SplineFontDB: 3.0
FontName: DejaVuSerifCondensed-Italic
FullName: DejaVu Serif Condensed Italic
FamilyName: DejaVu Serif Condensed
Weight: Book
Copyright: Copyright (c) 2003 by Bitstream, Inc. All Rights Reserved.\nDejaVu changes are in public domain\n
Version: 2.37
ItalicAngle: -11
UnderlinePosition: -85
UnderlineWidth: 90
Ascent: 1556
Descent: 492
InvalidEm: 0
LayerCount: 2
Layer: 0 1 "Back" 1
Layer: 1 1 "Fore" 0
FSType: 0
OS2Version: 0
OS2_WeightWidthSlopeOnly: 0
OS2_UseTypoMetrics: 0
PfmFamily: 17
TTFWeight: 400
TTFWidth: 4
LineGap: 0
VLineGap: 0
Panose: 2 6 6 6 5 3 5 11 2 4
OS2TypoAscent: 1556
OS2TypoAOffset: 0
OS2TypoDescent: -492
OS2TypoDOffset: 0
OS2TypoLinegap: 410
OS2WinAscent: 1901
OS2WinAOffset: 0
OS2WinDescent: 483
OS2WinDOffset: 0
HheadAscent: 1901
HheadAOffset: 0
HheadDescent: -483
HheadDOffset: 0
OS2CapHeight: 0
OS2XHeight: 0
OS2Vendor: 'PfEd'
Lookup: 6 0 0 "'ccmp' Contextual Chaining Substitution" { "'ccmp' Contextual Chaining Substitution"  } ['ccmp' ('DFLT' <'dflt' > 'cyrl' <'MKD ' 'SRB ' 'dflt' > 'grek' <'dflt' > 'latn' <'AZE ' 'CRT ' 'GAG ' 'ISM ' 'KAZ ' 'KRK ' 'KSM ' 'LSM ' 'MOL ' 'NSM ' 'ROM ' 'SKS ' 'SSM ' 'TAT ' 'TRK ' 'dflt' > ) ]
Lookup: 1 0 0 "'locl' Localized Forms in Cyrillic - Serbian" { "'locl' Localized Forms in Cyrillic - Serbian"  } ['locl' ('cyrl' <'MKD ' 'SRB ' > ) ]
Lookup: 1 0 0 "'locl' Localized Forms in Latin - Sami" { "'locl' Localized Forms in Latin - Sami"  } ['locl' ('latn' <'ISM ' 'KSM ' 'LSM ' 'NSM ' 'SKS ' 'SSM ' > ) ]
Lookup: 4 0 1 "'liga' Standard Ligatures" { "'liga' Standard Ligatures"  } ['liga' ('DFLT' <'dflt' > 'cyrl' <'MKD ' 'SRB ' 'dflt' > 'grek' <'dflt' > 'latn' <'AZE ' 'CRT ' 'GAG ' 'ISM ' 'KAZ ' 'KRK ' 'KSM ' 'LSM ' 'MOL ' 'NSM ' 'ROM ' 'SKS ' 'SSM ' 'TAT ' 'TRK ' 'dflt' > ) ]

StartChar: .notdef
Encoding: 0 -1 0
Width: 1106
Flags: W
LayerCount: 2
Back
Fore
SplineSet
91.7998046875 -362 m 1,0,-1
 91.7998046875 1444 l 1,1,-1
 1013.40039062 1444 l 1,2,-1
 1013.40039062 -362 l 1,3,-1
 91.7998046875 -362 l 1,0,-1
195.299804688 -248 m 1,4,-1
 910.799804688 -248 l 1,5,-1
 910.799804688 1329 l 1,6,-1
 195.299804688 1329 l 1,7,-1
 195.299804688 -248 l 1,4,-1
EndSplineSet
EndChar
StartChar: exclam
Encoding: 33 33 33
Width: 740
Flags: W
LayerCount: 2
Back
Fore
SplineSet
141.236328125 104 m 0,0,1
 151.032226562 160 151.032226562 160 192.056640625 199 c 128,-1,2
 233.079101562 238 233.079101562 238 284.37890625 238 c 0,3,4
 333.87890625 238 333.87890625 238 362.15625 199 c 128,-1,5
 390.432617188 160 390.432617188 160 380.635742188 104 c 0,6,7
 371.014648438 49 371.014648438 49 329.090820312 10 c 128,-1,8
 287.16796875 -29 287.16796875 -29 237.66796875 -29 c 0,9,10
 186.368164062 -29 186.368164062 -29 158.905273438 9.5 c 128,-1,11
 131.439453125 48 131.439453125 48 141.236328125 104 c 0,0,1
387.83203125 1493 m 1,12,-1
 620.03125 1493 l 1,13,-1
 415.203125 672 l 1,14,-1
 371.118164062 420 l 1,15,-1
 260.418945312 420 l 1,16,-1
 304.502929688 672 l 1,17,-1
 387.83203125 1493 l 1,12,-1
EndSplineSet
EndChar
StartChar: quotedbl
Encoding: 34 34 34
Width: 847
Flags: W
LayerCount: 2
Back
Fore
SplineSet
324 1493 m 1,0,-1
 324 938 l 1,1,-1
 180.900390625 938 l 1,2,-1
 180.900390625 1493 l 1,3,-1
 324 1493 l 1,0,-1
666.900390625 1493 m 1,4,-1
 666.900390625 938 l 1,5,-1
 523.799804688 938 l 1,6,-1
 523.799804688 1493 l 1,7,-1
 666.900390625 1493 l 1,4,-1
EndSplineSet
EndChar
StartChar: numbersign
Encoding: 35 35 35
Width: 1544
Flags: W
LayerCount: 2
Back
Fore
SplineSet
937.799804688 901 m 1,0,-1
 684 901 l 1,1,-1
 608.400390625 567 l 1,2,-1
 864.900390625 567 l 1,3,-1
 937.799804688 901 l 1,0,-1
810.900390625 1470 m 1,4,-1
 719.099609375 1055 l 1,5,-1
 972.900390625 1055 l 1,6,-1
 1065.59960938 1470 l 1,7,-1
 1220.40039062 1470 l 1,8,-1
 1125.90039062 1055 l 1,9,-1
 1403.09960938 1055 l 1,10,-1
 1403.09960938 901 l 1,11,-1
 1090.79980469 901 l 1,12,-1
 1017 567 l 1,13,-1
 1299.59960938 567 l 1,14,-1
 1299.59960938 414 l 1,15,-1
 982.799804688 414 l 1,16,-1
 890.099609375 0 l 1,17,-1
 735.299804688 0 l 1,18,-1
 829.799804688 414 l 1,19,-1
 575.099609375 414 l 1,20,-1
 481.5 0 l 1,21,-1
 328.5 0 l 1,22,-1
 420.299804688 414 l 1,23,-1
 142.200195312 414 l 1,24,-1
 142.200195312 567 l 1,25,-1
 455.400390625 567 l 1,26,-1
 529.200195312 901 l 1,27,-1
 244.799804688 901 l 1,28,-1
 244.799804688 1055 l 1,29,-1
 564.299804688 1055 l 1,30,-1
 657.900390625 1470 l 1,31,-1
 810.900390625 1470 l 1,4,-1
EndSplineSet
EndChar
StartChar: dollar
Encoding: 36 36 36
Width: 1172
Flags: W
LayerCount: 2
Back
Fore
SplineSet
523.119140625 68 m 1,0,1
 626.569335938 78 626.569335938 78 689.741210938 133 c 128,-1,2
 752.913085938 188 752.913085938 188 769.532226562 283 c 0,3,4
 784.578125 369 784.578125 369 741.973632812 429 c 128,-1,5
 699.370117188 489 699.370117188 489 602.193359375 520 c 1,6,-1
 523.119140625 68 l 1,0,1
628.880859375 1187 m 1,7,8
 534.956054688 1180 534.956054688 1180 474.470703125 1127.5 c 128,-1,9
 413.986328125 1075 413.986328125 1075 398.591796875 987 c 0,10,11
 384.595703125 907 384.595703125 907 422.57421875 854 c 128,-1,12
 460.552734375 801 460.552734375 801 555.580078125 768 c 1,13,-1
 628.880859375 1187 l 1,7,8
61.2197265625 72 m 1,14,-1
 109.50390625 348 l 1,15,-1
 206.704101562 348 l 1,16,17
 186.336914062 211 186.336914062 211 242.490234375 141 c 128,-1,18
 298.64453125 71 298.64453125 71 433.119140625 68 c 1,19,-1
 517.966796875 553 l 1,20,21
 322.163085938 617 322.163085938 617 253.0703125 700.5 c 128,-1,22
 183.978515625 784 183.978515625 784 208.120117188 922 c 0,23,24
 236.111328125 1082 236.111328125 1082 352.081054688 1179 c 128,-1,25
 468.05078125 1276 468.05078125 1276 646.549804688 1288 c 1,26,-1
 693.43359375 1556 l 1,27,-1
 783.43359375 1556 l 1,28,-1
 736.549804688 1288 l 1,29,30
 826.049804688 1280 826.049804688 1280 905.913085938 1255.5 c 128,-1,31
 985.779296875 1231 985.779296875 1231 1058.70605469 1190 c 1,32,-1
 1012.86914062 928 l 1,33,-1
 914.768554688 928 l 1,34,35
 924.263671875 1044 924.263671875 1044 873.883789062 1111 c 128,-1,36
 823.505859375 1178 823.505859375 1178 718.880859375 1187 c 1,37,-1
 639.806640625 735 l 1,38,39
 849.484375 668 849.484375 668 923.00390625 581.5 c 128,-1,40
 996.515625 495 996.515625 495 971.154296875 350 c 0,41,42
 942.111328125 184 942.111328125 184 820.21875 84 c 128,-1,43
 698.32421875 -16 698.32421875 -16 505.80078125 -31 c 1,44,-1
 458.56640625 -301 l 1,45,-1
 368.56640625 -301 l 1,46,-1
 415.80078125 -31 l 1,47,48
 329.750976562 -29 329.750976562 -29 241.51171875 -3.5 c 128,-1,49
 153.272460938 22 153.272460938 22 61.2197265625 72 c 1,14,-1
EndSplineSet
EndChar
StartChar: percent
Encoding: 37 37 37
Width: 1751
Flags: W
LayerCount: 2
Back
Fore
SplineSet
532.323242188 1427 m 0,0,1
 453.123046875 1427 453.123046875 1427 394.053710938 1344 c 128,-1,2
 334.982421875 1261 334.982421875 1261 308.916015625 1112 c 0,3,4
 283.19921875 965 283.19921875 965 313.955078125 881 c 128,-1,5
 344.709960938 797 344.709960938 797 422.110351562 797 c 0,6,7
 498.610351562 797 498.610351562 797 557.766601562 880.5 c 128,-1,8
 616.924804688 964 616.924804688 964 642.81640625 1112 c 0,9,10
 668.708007812 1260 668.708007812 1260 638.764648438 1343.5 c 128,-1,11
 608.823242188 1427 608.823242188 1427 532.323242188 1427 c 0,0,1
1331.09082031 694 m 0,12,13
 1252.79101562 694 1252.79101562 694 1193.54394531 610 c 128,-1,14
 1134.296875 526 1134.296875 526 1108.23339844 377 c 0,15,16
 1082.51953125 230 1082.51953125 230 1112.91308594 146.5 c 128,-1,17
 1143.30566406 63 1143.30566406 63 1220.69726562 63 c 0,18,19
 1298.10644531 63 1298.10644531 63 1356.81347656 146.5 c 128,-1,20
 1415.51953125 230 1415.51953125 230 1441.23339844 377 c 0,21,22
 1467.12597656 525 1467.12597656 525 1437.35351562 609.5 c 128,-1,23
 1407.59082031 694 1407.59082031 694 1331.09082031 694 c 0,12,13
1346.83203125 784 m 0,24,25
 1489.03222656 784 1489.03222656 784 1553.49023438 674 c 128,-1,26
 1617.94824219 564 1617.94824219 564 1585.23339844 377 c 0,27,28
 1552.51757812 190 1552.51757812 190 1449.21582031 80.5 c 128,-1,29
 1345.90527344 -29 1345.90527344 -29 1204.60546875 -29 c 0,30,31
 1060.60546875 -29 1060.60546875 -29 996.06640625 80.5 c 128,-1,32
 931.517578125 190 931.517578125 190 964.233398438 377 c 0,33,34
 997.119140625 565 997.119140625 565 1100.4296875 674.5 c 128,-1,35
 1203.73242188 784 1203.73242188 784 1346.83203125 784 c 0,24,25
1363.09472656 1520 m 1,36,-1
 1499.89453125 1520 l 1,37,-1
 388.306640625 -29 l 1,38,-1
 251.506835938 -29 l 1,39,-1
 1363.09472656 1520 l 1,36,-1
546.79296875 1520 m 0,40,41
 688.993164062 1520 688.993164062 1520 754.436523438 1410.5 c 128,-1,42
 819.880859375 1301 819.880859375 1301 787.166015625 1114 c 0,43,44
 754.102539062 925 754.102539062 925 650.883789062 816 c 128,-1,45
 547.665039062 707 547.665039062 707 404.565429688 707 c 0,46,47
 261.46484375 707 261.46484375 707 197.37109375 816.5 c 128,-1,48
 133.27734375 926 133.27734375 926 166.166015625 1114 c 0,49,50
 198.706054688 1300 198.706054688 1300 301.649414062 1410 c 128,-1,51
 404.592773438 1520 404.592773438 1520 546.79296875 1520 c 0,40,41
EndSplineSet
EndChar
StartChar: ampersand
Encoding: 38 38 38
Width: 1640
Flags: W
LayerCount: 2
Back
Fore
SplineSet
905.390625 231 m 1,0,-1
 488.834960938 844 l 1,1,2
 396.881835938 766 396.881835938 766 341.901367188 675.5 c 128,-1,4
 286.919921875 585 286.919921875 585 269.08203125 483 c 0,5,6
 261.612304688 440.280273438 261.612304688 440.280273438 261.612304688 401.110351562 c 0,7,8
 261.612304688 288.049804688 261.612304688 288.049804688 323.856445312 204.5 c 0,9,10
 407.672851562 92 407.672851562 92 562.47265625 92 c 0,11,12
 654.2734375 92 654.2734375 92 741.932617188 127.5 c 128,-1,13
 829.592773438 163 829.592773438 163 905.390625 231 c 1,0,-1
1422.98144531 0 m 1,14,-1
 1062.08105469 0 l 1,15,-1
 964.142578125 145 l 1,16,17
 854.252929688 57 854.252929688 57 739.62890625 14 c 128,-1,18
 625.004882812 -29 625.004882812 -29 500.8046875 -29 c 0,19,20
 268.60546875 -29 268.60546875 -29 155.798828125 103 c 0,21,22
 72.26953125 200.740234375 72.26953125 200.740234375 72.26953125 350.030273438 c 0,23,24
 72.26953125 402.349609375 72.26953125 402.349609375 82.5302734375 461 c 0,25,26
 105.794921875 594 105.794921875 594 194.849609375 709.5 c 128,-1,28
 283.905273438 825 283.905273438 825 441.081054688 926 c 1,29,30
 405.845703125 987 405.845703125 987 394.830078125 1047.5 c 0,31,32
 389.448242188 1077.04003906 389.448242188 1077.04003906 389.448242188 1107.88964844 c 0,33,34
 389.448242188 1140.21972656 389.448242188 1140.21972656 395.361328125 1174 c 0,35,36
 423.1796875 1333 423.1796875 1333 542.583007812 1426.5 c 128,-1,38
 661.995117188 1520 661.995117188 1520 839.294921875 1520 c 0,39,40
 899.594726562 1520 899.594726562 1520 977.166015625 1503 c 128,-1,42
 1054.74609375 1486 1054.74609375 1486 1152.296875 1452 c 1,43,-1
 1107.16210938 1194 l 1,44,-1
 1005.46191406 1194 l 1,45,46
 1006.15527344 1206.13964844 1006.15527344 1206.13964844 1006.15527344 1217.62988281 c 0,47,48
 1006.15527344 1307.36035156 1006.15527344 1307.36035156 963.774414062 1357 c 0,49,50
 915.974609375 1413 915.974609375 1413 816.974609375 1413 c 0,51,52
 724.275390625 1413 724.275390625 1413 656.79296875 1356.5 c 128,-1,54
 589.301757812 1300 589.301757812 1300 573.560546875 1210 c 0,55,56
 569.852539062 1188.78027344 569.852539062 1188.78027344 569.852539062 1167.62988281 c 0,57,58
 569.852539062 1127.95996094 569.852539062 1127.95996094 582.903320312 1088.5 c 0,59,60
 602.225585938 1030.11035156 602.225585938 1030.11035156 680.35546875 915 c 2,61,-1
 1049.58007812 371 l 1,62,63
 1125.67480469 451 1125.67480469 451 1177.41601562 543.5 c 128,-1,65
 1229.1484375 636 1229.1484375 636 1256.5078125 741 c 1,66,-1
 1275.22753906 848 l 1,67,-1
 1538.92773438 848 l 1,68,-1
 1520.20800781 741 l 1,69,-1
 1365.40820312 741 l 1,70,71
 1327.37402344 611 1327.37402344 611 1263.05078125 498 c 128,-1,73
 1198.73730469 385 1198.73730469 385 1107.24316406 289 c 1,74,-1
 1230.02148438 106 l 1,75,-1
 1441.52148438 106 l 1,76,-1
 1422.98144531 0 l 1,14,-1
EndSplineSet
EndChar
StartChar: quotesingle
Encoding: 39 39 39
Width: 506
Flags: W
LayerCount: 2
Back
Fore
SplineSet
324 1493 m 1,0,-1
 324 938 l 1,1,-1
 180.900390625 938 l 1,2,-1
 180.900390625 1493 l 1,3,-1
 324 1493 l 1,0,-1
EndSplineSet
EndChar
StartChar: parenleft
Encoding: 40 40 40
Width: 719
Flags: W
LayerCount: 2
Back
Fore
SplineSet
423.692382812 -319 m 1,0,1
 224.060546875 -210 224.060546875 -210 153.833984375 26.5 c 128,-1,2
 83.607421875 263 83.607421875 263 145.711914062 618 c 0,3,4
 207.993164062 974 207.993164062 974 360.965820312 1210.5 c 128,-1,5
 513.939453125 1447 513.939453125 1447 751.708007812 1556 c 1,6,-1
 734.564453125 1458 l 1,7,8
 577.419921875 1352 577.419921875 1352 483.444335938 1159.5 c 128,-1,9
 389.466796875 967 389.466796875 967 328.412109375 618 c 0,10,11
 267.533203125 270 267.533203125 270 294.15625 77.5 c 128,-1,12
 320.780273438 -115 320.780273438 -115 440.834960938 -221 c 1,13,-1
 423.692382812 -319 l 1,0,1
EndSplineSet
EndChar
StartChar: parenright
Encoding: 41 41 41
Width: 719
Flags: W
LayerCount: 2
Back
Fore
SplineSet
-33.5078125 -319 m 1,0,-1
 -16.3642578125 -221 l 1,1,2
 140.780273438 -115 140.780273438 -115 235.206054688 77.5 c 128,-1,3
 329.6328125 270 329.6328125 270 390.51171875 618 c 0,4,5
 451.567382812 967 451.567382812 967 424.494140625 1159.5 c 128,-1,6
 397.419921875 1352 397.419921875 1352 277.364257812 1458 c 1,7,-1
 294.5078125 1556 l 1,8,9
 495.040039062 1447 495.040039062 1447 565.265625 1210.5 c 128,-1,10
 635.493164062 974 635.493164062 974 573.211914062 618 c 0,11,12
 511.107421875 263 511.107421875 263 358.134765625 26.5 c 128,-1,13
 205.16015625 -210 205.16015625 -210 -33.5078125 -319 c 1,0,-1
EndSplineSet
EndChar
StartChar: asterisk
Encoding: 42 42 42
Width: 921
Flags: W
LayerCount: 2
Back
Fore
SplineSet
891.900390625 1237 m 1,0,-1
 540 1055 l 1,1,-1
 891.900390625 870 l 1,2,-1
 823.5 752 l 1,3,-1
 510.299804688 969 l 1,4,-1
 522 588 l 1,5,-1
 399.599609375 588 l 1,6,-1
 411.299804688 969 l 1,7,-1
 98.099609375 752 l 1,8,-1
 29.7001953125 870 l 1,9,-1
 381.599609375 1053 l 1,10,-1
 29.7001953125 1237 l 1,11,-1
 98.099609375 1356 l 1,12,-1
 411.299804688 1139 l 1,13,-1
 399.599609375 1520 l 1,14,-1
 522 1520 l 1,15,-1
 510.299804688 1139 l 1,16,-1
 823.5 1356 l 1,17,-1
 891.900390625 1237 l 1,0,-1
EndSplineSet
EndChar
StartChar: plus
Encoding: 43 43 43
Width: 1544
Flags: W
LayerCount: 2
Back
Fore
SplineSet
844.200195312 1284 m 1,0,-1
 844.200195312 723 l 1,1,-1
 1349.09960938 723 l 1,2,-1
 1349.09960938 561 l 1,3,-1
 844.200195312 561 l 1,4,-1
 844.200195312 0 l 1,5,-1
 700.200195312 0 l 1,6,-1
 700.200195312 561 l 1,7,-1
 195.299804688 561 l 1,8,-1
 195.299804688 723 l 1,9,-1
 700.200195312 723 l 1,10,-1
 700.200195312 1284 l 1,11,-1
 844.200195312 1284 l 1,0,-1
EndSplineSet
EndChar
StartChar: comma
Encoding: 44 44 44
Width: 585
Flags: W
LayerCount: 2
Back
Fore
SplineSet
36.3349609375 -199 m 1,0,1
 133.005859375 -130 133.005859375 -130 188.962890625 -36.5 c 128,-1,2
 244.920898438 57 244.920898438 57 268.1875 190 c 2,3,-1
 274.66015625 227 l 1,4,-1
 451.959960938 227 l 1,5,6
 414.844726562 56 414.844726562 56 328.165039062 -66.5 c 128,-1,7
 241.484375 -189 241.484375 -189 94.33984375 -279 c 1,8,-1
 36.3349609375 -199 l 1,0,1
EndSplineSet
EndChar
StartChar: hyphen
Encoding: 45 45 45
Width: 622
Flags: W
LayerCount: 2
Back
Fore
SplineSet
94.6455078125 627 m 1,0,-1
 555.4453125 627 l 1,1,-1
 528.154296875 471 l 1,2,-1
 67.3544921875 471 l 1,3,-1
 94.6455078125 627 l 1,0,-1
EndSplineSet
EndChar
StartChar: period
Encoding: 46 46 46
Width: 585
Flags: W
LayerCount: 2
Back
Fore
SplineSet
173.611328125 104 m 0,0,1
 183.409179688 160 183.409179688 160 224.431640625 199 c 128,-1,2
 265.455078125 238 265.455078125 238 316.754882812 238 c 0,3,4
 366.254882812 238 366.254882812 238 394.532226562 199 c 128,-1,5
 422.809570312 160 422.809570312 160 413.01171875 104 c 0,6,7
 403.390625 49 403.390625 49 361.467773438 10 c 128,-1,8
 319.544921875 -29 319.544921875 -29 270.044921875 -29 c 0,9,10
 218.745117188 -29 218.745117188 -29 191.280273438 9.5 c 128,-1,11
 163.81640625 48 163.81640625 48 173.611328125 104 c 0,0,1
EndSplineSet
EndChar
StartChar: slash
Encoding: 47 47 47
Width: 621
Flags: W
LayerCount: 2
Back
Fore
SplineSet
624.213867188 1493 m 1,0,-1
 768.213867188 1493 l 1,1,-1
 -3.2138671875 -190 l 1,2,-1
 -147.213867188 -190 l 1,3,-1
 624.213867188 1493 l 1,0,-1
EndSplineSet
EndChar
StartChar: zero
Encoding: 48 48 48
Width: 1172
Flags: W
LayerCount: 2
Back
Fore
SplineSet
467.7265625 70 m 0,0,1
 605.426757812 70 605.426757812 70 703.216796875 238 c 128,-1,2
 801.006835938 406 801.006835938 406 860.311523438 745 c 0,3,4
 919.791015625 1085 919.791015625 1085 880.783203125 1253 c 128,-1,5
 841.7734375 1421 841.7734375 1421 704.073242188 1421 c 0,6,7
 566.374023438 1421 566.374023438 1421 468.583007812 1253 c 128,-1,8
 370.79296875 1085 370.79296875 1085 311.311523438 745 c 0,9,10
 252.006835938 406 252.006835938 406 291.016601562 238 c 128,-1,11
 330.026367188 70 330.026367188 70 467.7265625 70 c 0,0,1
450.407226562 -29 m 0,12,13
 231.70703125 -29 231.70703125 -29 144.544921875 175 c 128,-1,14
 57.3837890625 379 57.3837890625 379 121.412109375 745 c 0,15,16
 185.616210938 1112 185.616210938 1112 344.154296875 1316 c 128,-1,17
 502.693359375 1520 502.693359375 1520 721.393554688 1520 c 0,18,19
 940.995117188 1520 940.995117188 1520 1027.70117188 1316 c 128,-1,20
 1114.41601562 1112 1114.41601562 1112 1050.20996094 745 c 0,21,22
 986.18359375 379 986.18359375 379 828.095703125 175 c 128,-1,23
 670.006835938 -29 670.006835938 -29 450.407226562 -29 c 0,12,13
EndSplineSet
EndChar
StartChar: one
Encoding: 49 49 49
Width: 1172
Flags: W
LayerCount: 2
Back
Fore
SplineSet
128.944335938 0 m 1,0,-1
 147.487304688 106 l 1,1,-1
 381.487304688 106 l 1,2,-1
 598.766601562 1348 l 1,3,-1
 293.752929688 1153 l 1,4,-1
 316.669921875 1284 l 1,5,-1
 685.555664062 1520 l 1,6,-1
 809.755859375 1520 l 1,7,-1
 562.387695312 106 l 1,8,-1
 796.387695312 106 l 1,9,-1
 777.84375 0 l 1,10,-1
 128.944335938 0 l 1,0,-1
EndSplineSet
EndChar
StartChar: two
Encoding: 50 50 50
Width: 1172
Flags: W
LayerCount: 2
Back
Fore
SplineSet
301.752929688 1137 m 1,0,-1
 200.953125 1137 l 1,1,-1
 247.487304688 1403 l 1,2,3
 353.759765625 1460 353.759765625 1460 456.657226562 1490 c 128,-1,4
 559.555664062 1520 559.555664062 1520 653.15625 1520 c 0,5,6
 862.856445312 1520 862.856445312 1520 964.583984375 1407 c 128,-1,7
 1066.3203125 1294 1066.3203125 1294 1032.38085938 1100 c 0,8,9
 994.068359375 881 994.068359375 881 665.310546875 576 c 0,10,11
 639.6875 553 639.6875 553 626.788085938 541 c 2,12,-1
 221.534179688 164 l 1,13,-1
 782.234375 164 l 1,14,-1
 814.423828125 348 l 1,15,-1
 919.727539062 348 l 1,16,-1
 858.84375 0 l 1,17,-1
 -7.8564453125 0 l 1,18,-1
 11.2119140625 109 l 1,19,-1
 497.986328125 561 l 2,20,21
 659.228515625 711 659.228515625 711 738.783203125 836.5 c 128,-1,22
 818.338867188 962 818.338867188 962 842.48046875 1100 c 0,23,24
 868.896484375 1251 868.896484375 1251 813.1171875 1336 c 128,-1,25
 757.336914062 1421 757.336914062 1421 633.13671875 1421 c 0,26,27
 504.436523438 1421 504.436523438 1421 421.81640625 1350 c 128,-1,28
 339.1953125 1279 339.1953125 1279 301.752929688 1137 c 1,0,-1
EndSplineSet
EndChar
StartChar: three
Encoding: 51 51 51
Width: 1172
Flags: W
LayerCount: 2
Back
Fore
SplineSet
298.848632812 1430 m 1,0,1
 411.845703125 1474 411.845703125 1474 512.619140625 1497 c 128,-1,2
 613.393554688 1520 613.393554688 1520 697.993164062 1520 c 0,3,4
 895.092773438 1520 895.092773438 1520 989.26171875 1425.5 c 128,-1,5
 1083.42871094 1331 1083.42871094 1331 1054.03515625 1163 c 0,6,7
 1030.41894531 1028 1030.41894531 1028 938.087890625 937.5 c 128,-1,8
 845.755859375 847 845.755859375 847 699.758789062 815 c 1,9,10
 860.809570312 789 860.809570312 789 933.353515625 681.5 c 128,-1,11
 1005.89355469 574 1005.89355469 574 975.977539062 403 c 0,12,13
 939.419921875 194 939.419921875 194 793.463867188 82.5 c 128,-1,14
 647.506835938 -29 647.506835938 -29 409.907226562 -29 c 0,15,16
 304.606445312 -29 304.606445312 -29 208.630859375 -4 c 128,-1,17
 112.655273438 21 112.655273438 21 22.576171875 72 c 1,18,-1
 73.3095703125 362 l 1,19,-1
 174.109375 362 l 1,20,21
 157.918945312 218 157.918945312 218 223.272460938 144 c 128,-1,22
 288.625976562 70 288.625976562 70 430.826171875 70 c 0,23,24
 568.526367188 70 568.526367188 70 663.658203125 158.5 c 128,-1,25
 758.791992188 247 758.791992188 247 785.732421875 401 c 0,26,27
 816.522460938 577 816.522460938 577 750.454101562 667.5 c 128,-1,28
 684.38671875 758 684.38671875 758 525.987304688 758 c 2,29,-1
 440.487304688 758 l 1,30,-1
 458.331054688 860 l 1,31,-1
 503.331054688 860 l 2,32,33
 660.831054688 860 660.831054688 860 752.263671875 932.5 c 128,-1,34
 843.697265625 1005 843.697265625 1005 869.239257812 1151 c 0,35,36
 892.15625 1282 892.15625 1282 839.515625 1351.5 c 128,-1,37
 786.874023438 1421 786.874023438 1421 665.374023438 1421 c 0,38,39
 543.874023438 1421 543.874023438 1421 465.626953125 1357 c 128,-1,40
 387.380859375 1293 387.380859375 1293 353.638671875 1167 c 1,41,-1
 252.838867188 1167 l 1,42,-1
 298.848632812 1430 l 1,0,1
EndSplineSet
EndChar
StartChar: four
Encoding: 52 52 52
Width: 1172
Flags: W
LayerCount: 2
Back
Fore
SplineSet
599.064453125 506 m 1,0,-1
 737.969726562 1300 l 1,1,-1
 140.064453125 506 l 1,2,-1
 599.064453125 506 l 1,0,-1
906.54296875 0 m 1,3,-1
 294.543945312 0 l 1,4,-1
 313.087890625 106 l 1,5,-1
 529.087890625 106 l 1,6,-1
 580.345703125 399 l 1,7,-1
 -6.4541015625 399 l 1,8,-1
 12.615234375 508 l 1,9,-1
 778.255859375 1520 l 1,10,-1
 956.45703125 1520 l 1,11,-1
 779.064453125 506 l 1,12,-1
 1035.56738281 506 l 1,13,-1
 1016.84667969 399 l 1,14,-1
 760.345703125 399 l 1,15,-1
 709.087890625 106 l 1,16,-1
 925.091796875 106 l 1,17,-1
 906.54296875 0 l 1,3,-1
EndSplineSet
EndChar
StartChar: five
Encoding: 53 53 53
Width: 1172
Flags: W
LayerCount: 2
Back
Fore
SplineSet
1060.12792969 1493 m 1,0,-1
 1031.43554688 1329 l 1,1,-1
 415.840820312 1329 l 1,2,-1
 340.965820312 901 l 1,3,4
 394.063476562 937 394.063476562 937 459.762695312 955 c 128,-1,5
 525.4609375 973 525.4609375 973 602.861328125 973 c 0,6,7
 820.661132812 973 820.661132812 973 923.219726562 839 c 128,-1,8
 1025.77539062 705 1025.77539062 705 985.194335938 473 c 0,9,10
 943.731445312 236 943.731445312 236 793.19921875 103.5 c 128,-1,11
 642.66796875 -29 642.66796875 -29 412.268554688 -29 c 0,12,13
 319.568359375 -29 319.568359375 -29 226.743164062 -4 c 128,-1,14
 133.916015625 21 133.916015625 21 41.1376953125 72 c 1,15,-1
 91.87109375 362 l 1,16,-1
 193.571289062 362 l 1,17,18
 176.830078125 220 176.830078125 220 237.05859375 145 c 128,-1,19
 297.288085938 70 297.288085938 70 429.587890625 70 c 0,20,21
 571.788085938 70 571.788085938 70 666.482421875 174 c 128,-1,22
 761.17578125 278 761.17578125 278 795.2890625 473 c 0,23,24
 829.228515625 667 829.228515625 667 771.28515625 770.5 c 128,-1,25
 713.341796875 874 713.341796875 874 570.2421875 874 c 0,26,27
 489.2421875 874 489.2421875 874 421.994140625 842 c 128,-1,28
 354.74609375 810 354.74609375 810 295.32421875 743 c 1,29,-1
 217.923828125 743 l 1,30,-1
 349.131835938 1493 l 1,31,-1
 1060.12792969 1493 l 1,0,-1
EndSplineSet
EndChar
StartChar: six
Encoding: 54 54 54
Width: 1172
Flags: W
LayerCount: 2
Back
Fore
SplineSet
484.826171875 70 m 0,0,1
 611.7265625 70 611.7265625 70 698.232421875 173.5 c 128,-1,2
 784.739257812 277 784.739257812 277 818.678710938 471 c 0,3,4
 852.618164062 665 852.618164062 665 802.32421875 768.5 c 128,-1,5
 752.030273438 872 752.030273438 872 625.129882812 872 c 0,6,7
 496.4296875 872 496.4296875 872 411.435546875 772 c 128,-1,8
 326.44140625 672 326.44140625 672 293.377929688 483 c 0,9,10
 258.564453125 284 258.564453125 284 308.245117188 177 c 128,-1,11
 357.926757812 70 357.926757812 70 484.826171875 70 c 0,0,1
322.983398438 822 m 1,12,13
 397.302734375 897 397.302734375 897 481.176757812 934 c 128,-1,14
 565.049804688 971 565.049804688 971 662.25 971 c 0,15,16
 862.94921875 971 862.94921875 971 956.060546875 837 c 128,-1,17
 1049.16601562 703 1049.16601562 703 1008.57617188 471 c 0,18,19
 968.868164062 244 968.868164062 244 819.436523438 107.5 c 128,-1,20
 670.006835938 -29 670.006835938 -29 460.306640625 -29 c 0,21,22
 232.606445312 -29 232.606445312 -29 143.18359375 159.5 c 128,-1,23
 53.759765625 348 53.759765625 348 114.990234375 698 c 0,24,25
 183.567382812 1090 183.567382812 1090 366.080078125 1305 c 128,-1,26
 548.592773438 1520 548.592773438 1520 812.29296875 1520 c 0,27,28
 883.393554688 1520 883.393554688 1520 959.067382812 1505 c 128,-1,29
 1034.74804688 1490 1034.74804688 1490 1111.39160156 1460 c 1,30,-1
 1068.36328125 1214 l 1,31,-1
 966.663085938 1214 l 1,32,33
 973.530273438 1315 973.530273438 1315 924.299804688 1368 c 128,-1,34
 875.073242188 1421 875.073242188 1421 776.073242188 1421 c 0,35,36
 601.473632812 1421 601.473632812 1421 490.256835938 1274 c 128,-1,37
 379.040039062 1127 379.040039062 1127 322.983398438 822 c 1,12,13
EndSplineSet
EndChar
StartChar: seven
Encoding: 55 55 55
Width: 1172
Flags: W
LayerCount: 2
Back
Fore
SplineSet
1152.25195312 1391 m 1,0,-1
 383.306640625 0 l 1,1,-1
 249.206054688 0 l 1,2,-1
 983.006835938 1329 l 1,3,-1
 362.00390625 1329 l 1,4,-1
 329.814453125 1145 l 1,5,-1
 224.514648438 1145 l 1,6,-1
 285.393554688 1493 l 1,7,-1
 1170.08984375 1493 l 1,8,-1
 1152.25195312 1391 l 1,0,-1
EndSplineSet
EndChar
StartChar: eight
Encoding: 56 56 56
Width: 1172
Flags: W
LayerCount: 2
Back
Fore
SplineSet
799.556640625 408 m 0,0,1
 827.546875 568 827.546875 568 771.48046875 656.5 c 128,-1,2
 715.412109375 745 715.412109375 745 585.811523438 745 c 0,3,4
 456.211914062 745 456.211914062 745 369.1796875 656.5 c 128,-1,5
 282.147460938 568 282.147460938 568 254.15625 408 c 0,6,7
 225.9921875 247 225.9921875 247 282.05859375 158.5 c 128,-1,8
 338.125976562 70 338.125976562 70 467.7265625 70 c 0,9,10
 597.326171875 70 597.326171875 70 684.358398438 158.5 c 128,-1,11
 771.391601562 247 771.391601562 247 799.556640625 408 c 0,0,1
889.490234375 1133 m 0,12,13
 913.284179688 1269 913.284179688 1269 864.477539062 1345 c 128,-1,14
 815.673828125 1421 815.673828125 1421 704.073242188 1421 c 0,15,16
 593.374023438 1421 593.374023438 1421 517.528320312 1345 c 128,-1,17
 441.682617188 1269 441.682617188 1269 417.889648438 1133 c 0,18,19
 393.922851562 996 393.922851562 996 443.176757812 920 c 128,-1,20
 492.431640625 844 492.431640625 844 603.131835938 844 c 0,21,22
 714.731445312 844 714.731445312 844 790.126953125 920 c 128,-1,23
 865.522460938 996 865.522460938 996 889.490234375 1133 c 0,12,13
733.16015625 795 m 1,24,25
 882.135742188 772 882.135742188 772 949.70703125 669.5 c 128,-1,26
 1017.26953125 567 1017.26953125 567 989.459960938 408 c 0,27,28
 952.721679688 198 952.721679688 198 813.163085938 84.5 c 128,-1,29
 673.606445312 -29 673.606445312 -29 450.407226562 -29 c 0,30,31
 228.106445312 -29 228.106445312 -29 127.813476562 84.5 c 128,-1,32
 27.51953125 198 27.51953125 198 64.2568359375 408 c 0,33,34
 92.072265625 567 92.072265625 567 195.504882812 669.5 c 128,-1,35
 298.935546875 772 298.935546875 772 456.859375 795 c 1,36,37
 325.682617188 822 325.682617188 822 268.540039062 909.5 c 128,-1,38
 211.3984375 997 211.3984375 997 235.189453125 1133 c 0,39,40
 266.6796875 1313 266.6796875 1313 396.385742188 1416.5 c 128,-1,41
 526.092773438 1520 526.092773438 1520 721.393554688 1520 c 0,42,43
 916.6953125 1520 916.6953125 1520 1010.18652344 1416.5 c 128,-1,44
 1103.67871094 1313 1103.67871094 1313 1072.18847656 1133 c 0,45,46
 1048.40136719 997 1048.40136719 997 960.641601562 909.5 c 128,-1,47
 872.8828125 822 872.8828125 822 733.16015625 795 c 1,24,25
EndSplineSet
EndChar
StartChar: nine
Encoding: 57 57 57
Width: 1172
Flags: W
LayerCount: 2
Back
Fore
SplineSet
848.817382812 669 m 1,0,1
 775.396484375 594 775.396484375 594 690.623046875 557 c 128,-1,2
 605.850585938 520 605.850585938 520 507.75 520 c 0,3,4
 307.950195312 520 307.950195312 520 215.7421875 654 c 128,-1,5
 123.53515625 788 123.53515625 788 164.12109375 1020 c 0,6,7
 203.833007812 1247 203.833007812 1247 353.263671875 1383.5 c 128,-1,8
 502.693359375 1520 502.693359375 1520 712.393554688 1520 c 0,9,10
 940.094726562 1520 940.094726562 1520 1029.06933594 1331.5 c 128,-1,11
 1118.04296875 1143 1118.04296875 1143 1056.80664062 793 c 0,12,13
 988.236328125 401 988.236328125 401 805.719726562 186 c 128,-1,14
 623.20703125 -29 623.20703125 -29 360.407226562 -29 c 0,15,16
 289.306640625 -29 289.306640625 -29 213.630859375 -14 c 128,-1,17
 137.956054688 1 137.956054688 1 61.3037109375 31 c 1,18,-1
 104.688476562 279 l 1,19,-1
 205.489257812 279 l 1,20,21
 199.520507812 178 199.520507812 178 248.573242188 124 c 128,-1,22
 297.625976562 70 297.625976562 70 395.7265625 70 c 0,23,24
 570.326171875 70 570.326171875 70 681.456054688 216.5 c 128,-1,25
 792.583984375 363 792.583984375 363 848.817382812 669 c 1,0,1
687.874023438 1421 m 0,26,27
 560.073242188 1421 560.073242188 1421 474.017578125 1317.5 c 128,-1,28
 387.959960938 1214 387.959960938 1214 354.021484375 1020 c 0,29,30
 320.08203125 826 320.08203125 826 369.838867188 722 c 128,-1,31
 419.595703125 618 419.595703125 618 547.395507812 618 c 0,32,33
 675.1953125 618 675.1953125 618 760.7265625 718.5 c 128,-1,34
 846.2578125 819 846.2578125 819 879.321289062 1008 c 0,35,36
 914.138671875 1207 914.138671875 1207 864.454101562 1314 c 128,-1,37
 814.7734375 1421 814.7734375 1421 687.874023438 1421 c 0,26,27
EndSplineSet
EndChar
StartChar: colon
Encoding: 58 58 58
Width: 621
Flags: W
LayerCount: 2
Back
Fore
SplineSet
134.668945312 104 m 0,0,1
 144.465820312 160 144.465820312 160 185.939453125 199 c 128,-1,2
 227.411132812 238 227.411132812 238 277.811523438 238 c 0,3,4
 328.2109375 238 328.2109375 238 356.0390625 199 c 128,-1,5
 383.866210938 160 383.866210938 160 374.068359375 104 c 0,6,7
 364.272460938 48 364.272460938 48 323.336914062 9.5 c 128,-1,8
 282.401367188 -29 282.401367188 -29 231.1015625 -29 c 0,9,10
 179.80078125 -29 179.80078125 -29 152.336914062 9.5 c 128,-1,11
 124.872070312 48 124.872070312 48 134.668945312 104 c 0,0,1
248.731445312 756 m 0,12,13
 258.52734375 812 258.52734375 812 299.913085938 850.5 c 128,-1,14
 341.298828125 889 341.298828125 889 391.69921875 889 c 0,15,16
 442.999023438 889 442.999023438 889 470.55078125 851 c 128,-1,17
 498.102539062 813 498.102539062 813 488.130859375 756 c 0,18,19
 478.159179688 699 478.159179688 699 437.310546875 661 c 128,-1,20
 396.46484375 623 396.46484375 623 345.1640625 623 c 0,21,22
 294.764648438 623 294.764648438 623 266.848632812 661.5 c 128,-1,23
 238.93359375 700 238.93359375 700 248.731445312 756 c 0,12,13
EndSplineSet
EndChar
StartChar: semicolon
Encoding: 59 59 59
Width: 621
Flags: W
LayerCount: 2
Back
Fore
SplineSet
-21.5712890625 -199 m 1,0,1
 75.099609375 -130 75.099609375 -130 131.056640625 -36.5 c 128,-1,2
 187.014648438 57 187.014648438 57 210.28125 190 c 2,3,-1
 216.75390625 227 l 1,4,-1
 394.0546875 227 l 1,5,6
 356.940429688 56 356.940429688 56 270.258789062 -66.5 c 128,-1,7
 183.579101562 -189 183.579101562 -189 36.43359375 -279 c 1,8,-1
 -21.5712890625 -199 l 1,0,1
274.198242188 756 m 0,9,10
 283.99609375 812 283.99609375 812 325.380859375 850.5 c 128,-1,11
 366.767578125 889 366.767578125 889 417.166992188 889 c 0,12,13
 467.567382812 889 467.567382812 889 495.39453125 850 c 128,-1,14
 523.220703125 811 523.220703125 811 513.598632812 756 c 0,15,16
 503.801757812 700 503.801757812 700 462.416992188 661.5 c 128,-1,17
 421.03125 623 421.03125 623 370.630859375 623 c 0,18,19
 320.23046875 623 320.23046875 623 292.317382812 661.5 c 128,-1,20
 264.40234375 700 264.40234375 700 274.198242188 756 c 0,9,10
EndSplineSet
EndChar
StartChar: less
Encoding: 60 60 60
Width: 1544
Flags: W
LayerCount: 2
Back
Fore
SplineSet
1349.09960938 1020 m 1,0,-1
 414.900390625 641 l 1,1,-1
 1349.09960938 264 l 1,2,-1
 1349.09960938 94 l 1,3,-1
 195.299804688 559 l 1,4,-1
 195.299804688 725 l 1,5,-1
 1349.09960938 1190 l 1,6,-1
 1349.09960938 1020 l 1,0,-1
EndSplineSet
EndChar
StartChar: equal
Encoding: 61 61 61
Width: 1544
Flags: W
LayerCount: 2
Back
Fore
SplineSet
195.299804688 926 m 1,0,-1
 1349.09960938 926 l 1,1,-1
 1349.09960938 766 l 1,2,-1
 195.299804688 766 l 1,3,-1
 195.299804688 926 l 1,0,-1
195.299804688 518 m 1,4,-1
 1349.09960938 518 l 1,5,-1
 1349.09960938 358 l 1,6,-1
 195.299804688 358 l 1,7,-1
 195.299804688 518 l 1,4,-1
EndSplineSet
EndChar
StartChar: greater
Encoding: 62 62 62
Width: 1544
Flags: W
LayerCount: 2
Back
Fore
SplineSet
195.299804688 1020 m 1,0,-1
 195.299804688 1190 l 1,1,-1
 1349.09960938 725 l 1,2,-1
 1349.09960938 559 l 1,3,-1
 195.299804688 94 l 1,4,-1
 195.299804688 264 l 1,5,-1
 1129.5 641 l 1,6,-1
 195.299804688 1020 l 1,0,-1
EndSplineSet
EndChar
StartChar: question
Encoding: 63 63 63
Width: 988
Flags: W
LayerCount: 2
Back
Fore
SplineSet
211.774414062 104 m 0,0,1
 221.571289062 160 221.571289062 160 263.043945312 199 c 128,-1,2
 304.516601562 238 304.516601562 238 355.81640625 238 c 0,3,4
 405.31640625 238 405.31640625 238 433.59375 199 c 128,-1,5
 461.87109375 160 461.87109375 160 452.07421875 104 c 0,6,7
 442.452148438 49 442.452148438 49 400.529296875 10 c 128,-1,8
 358.606445312 -29 358.606445312 -29 309.106445312 -29 c 0,9,10
 257.806640625 -29 257.806640625 -29 229.893554688 9.5 c 128,-1,11
 201.977539062 48 201.977539062 48 211.774414062 104 c 0,0,1
244.323242188 1427 m 1,12,13
 347.9453125 1474 347.9453125 1474 437.918945312 1497 c 128,-1,14
 527.893554688 1520 527.893554688 1520 603.493164062 1520 c 0,15,16
 803.29296875 1520 803.29296875 1520 900.224609375 1413 c 128,-1,17
 997.155273438 1306 997.155273438 1306 965.313476562 1124 c 0,18,19
 932.778320312 938 932.778320312 938 812.682617188 820 c 128,-1,20
 692.590820312 702 692.590820312 702 482.967773438 651 c 1,21,-1
 438.533203125 397 l 1,22,-1
 327.833007812 397 l 1,23,-1
 385.21484375 725 l 1,24,25
 552.036132812 768 552.036132812 768 650.255859375 869 c 128,-1,26
 748.475585938 970 748.475585938 970 775.765625 1126 c 0,27,28
 799.732421875 1263 799.732421875 1263 747.853515625 1342 c 128,-1,29
 695.973632812 1421 695.973632812 1421 582.573242188 1421 c 0,30,31
 479.973632812 1421 479.973632812 1421 403.264648438 1355.5 c 128,-1,32
 326.555664062 1290 326.555664062 1290 286.138671875 1167 c 1,33,-1
 198.838867188 1167 l 1,34,-1
 244.323242188 1427 l 1,12,13
EndSplineSet
EndChar
StartChar: at
Encoding: 64 64 64
Width: 1843
Flags: W
LayerCount: 2
Back
Fore
SplineSet
1112.99414062 248 m 1,0,1
 1045.54785156 166 1045.54785156 166 972.396484375 126 c 128,-1,2
 899.250976562 86 899.250976562 86 815.55078125 86 c 0,3,4
 658.05078125 86 658.05078125 86 581.819335938 211 c 128,-1,5
 505.587890625 336 505.587890625 336 540.750976562 537 c 0,6,7
 575.9140625 738 575.9140625 738 695.793945312 862.5 c 128,-1,8
 815.674804688 987 815.674804688 987 973.169921875 987 c 0,9,10
 1056.87011719 987 1056.87011719 987 1116.02734375 947 c 128,-1,11
 1175.17480469 907 1175.17480469 907 1213.93847656 825 c 1,12,-1
 1238.77832031 967 l 1,13,-1
 1379.17773438 967 l 1,14,-1
 1244.12402344 195 l 1,15,16
 1403.59472656 232 1403.59472656 232 1510.06542969 357 c 128,-1,17
 1616.52636719 482 1616.52636719 482 1649.42089844 670 c 0,18,19
 1668.83398438 781 1668.83398438 781 1655.55859375 880 c 128,-1,20
 1642.27539062 979 1642.27539062 979 1596.671875 1063 c 0,21,22
 1524.53710938 1196 1524.53710938 1196 1399.6171875 1266.5 c 128,-1,23
 1274.70605469 1337 1274.70605469 1337 1113.60644531 1337 c 0,24,25
 1032.60644531 1337 1032.60644531 1337 950.076171875 1318 c 128,-1,26
 867.555664062 1299 867.555664062 1299 783.333984375 1260 c 0,27,28
 585.263671875 1167 585.263671875 1167 451.486328125 978.5 c 128,-1,29
 317.7109375 790 317.7109375 790 274.5 543 c 0,30,31
 245.284179688 376 245.284179688 376 265.706054688 235.5 c 128,-1,32
 286.125976562 95 286.125976562 95 353.606445312 -8 c 0,33,34
 430.889648438 -127 430.889648438 -127 554.504882812 -189.5 c 128,-1,35
 678.12109375 -252 678.12109375 -252 833.821289062 -252 c 0,36,37
 949.922851562 -252 949.922851562 -252 1057.36523438 -214 c 128,-1,38
 1164.81640625 -176 1164.81640625 -176 1264.50878906 -100 c 1,39,-1
 1299.96875 -170 l 1,40,41
 1186.49707031 -263 1186.49707031 -263 1055.06054688 -309.5 c 128,-1,42
 923.625 -356 923.625 -356 776.926757812 -356 c 0,43,44
 612.2265625 -356 612.2265625 -356 474.010742188 -289.5 c 128,-1,45
 335.793945312 -223 335.793945312 -223 244.8125 -100 c 0,46,47
 150.9296875 27 150.9296875 27 119.681640625 190.5 c 128,-1,48
 88.435546875 354 88.435546875 354 121.5 543 c 0,49,50
 153.689453125 727 153.689453125 727 242.504882812 890 c 128,-1,51
 331.3203125 1053 331.3203125 1053 468.73828125 1180 c 0,52,53
 605.081054688 1306 605.081054688 1306 772.2265625 1374 c 128,-1,54
 939.375 1442 939.375 1442 1113.97460938 1442 c 0,55,56
 1306.57519531 1442 1306.57519531 1442 1450.89941406 1359 c 128,-1,57
 1595.23242188 1276 1595.23242188 1276 1675.04394531 1120 c 0,58,59
 1726.29882812 1022 1726.29882812 1022 1741.27539062 907 c 128,-1,60
 1756.25976562 792 1756.25976562 792 1734.5703125 668 c 0,61,62
 1687.6796875 400 1687.6796875 400 1513.78222656 244.5 c 128,-1,63
 1339.875 89 1339.875 89 1085.55273438 86 c 1,64,-1
 1112.99414062 248 l 1,0,1
1154.45703125 485 m 2,65,-1
 1172.82617188 590 l 2,66,67
 1194.68652344 715 1194.68652344 715 1143.90039062 792.5 c 128,-1,68
 1093.10351562 870 1093.10351562 870 989.603515625 870 c 0,69,70
 880.706054688 870 880.706054688 870 804.6484375 782.5 c 128,-1,71
 728.591796875 695 728.591796875 695 700.950195312 537 c 0,72,73
 673.134765625 378 673.134765625 378 719.02734375 290.5 c 128,-1,74
 764.919921875 203 764.919921875 203 874.719726562 203 c 0,75,76
 977.319335938 203 977.319335938 203 1054.953125 281.5 c 128,-1,77
 1132.58691406 360 1132.58691406 360 1154.45703125 485 c 2,65,-1
EndSplineSet
EndChar
StartChar: A
Encoding: 65 65 65
Width: 1331
Flags: W
AnchorPoint: "above" 790.796 1465 basechar 0
AnchorPoint: "below" 534.507 0 basechar 0
LayerCount: 2
Back
Fore
SplineSet
333.049804688 541 m 1,0,-1
 826.249023438 541 l 1,1,-1
 703.857421875 1251 l 1,2,-1
 333.049804688 541 l 1,0,-1
-141.393554688 0 m 1,3,-1
 -122.850585938 106 l 1,4,-1
 -4.951171875 106 l 1,5,-1
 716.493164062 1493 l 1,6,-1
 867.693359375 1493 l 1,7,-1
 1104.75 106 l 1,8,-1
 1237.04980469 106 l 1,9,-1
 1218.50976562 0 l 1,10,-1
 729.806640625 0 l 1,11,-1
 748.348632812 106 l 1,12,-1
 897.749023438 106 l 1,13,-1
 842.630859375 434 l 1,14,-1
 277.430664062 434 l 1,15,-1
 107.548828125 106 l 1,16,-1
 255.149414062 106 l 1,17,-1
 236.606445312 0 l 1,18,-1
 -141.393554688 0 l 1,3,-1
EndSplineSet
EndChar
StartChar: B
Encoding: 66 66 66
Width: 1354
Flags: W
AnchorPoint: "above" 794.396 1465 basechar 0
AnchorPoint: "below" 538.106 0 basechar 0
LayerCount: 2
Back
Fore
SplineSet
343.348632812 106 m 1,0,-1
 612.44921875 106 l 2,1,2
 774.44921875 106 774.44921875 106 862.794921875 184 c 128,-1,3
 951.137695312 262 951.137695312 262 980.8828125 432 c 0,4,5
 1010.44824219 601 1010.44824219 601 949.751953125 678.5 c 128,-1,6
 889.0625 756 889.0625 756 726.162109375 756 c 2,7,-1
 457.0625 756 l 1,8,-1
 343.348632812 106 l 1,0,-1
475.60546875 862 m 1,9,-1
 704.206054688 862 l 2,10,11
 851.805664062 862 851.805664062 862 930.780273438 925 c 128,-1,12
 1009.74609375 988 1009.74609375 988 1033.54199219 1124 c 0,13,14
 1057.50878906 1261 1057.50878906 1261 1000.49414062 1323.5 c 128,-1,15
 943.478515625 1386 943.478515625 1386 795.875976562 1386 c 2,16,-1
 567.276367188 1386 l 1,17,-1
 475.60546875 862 l 1,9,-1
-28.89453125 0 m 1,18,-1
 -10.3505859375 106 l 1,19,-1
 160.649414062 106 l 1,20,-1
 384.576171875 1386 l 1,21,-1
 213.576171875 1386 l 1,22,-1
 232.293945312 1493 l 1,23,-1
 895.59375 1493 l 2,24,25
 1098.99023438 1493 1098.99023438 1493 1185.85839844 1400.5 c 128,-1,26
 1272.72558594 1308 1272.72558594 1308 1240.54199219 1124 c 0,27,28
 1217.27734375 991 1217.27734375 991 1131.90332031 912 c 128,-1,29
 1046.52929688 833 1046.52929688 833 905.688476562 815 c 1,30,31
 1072.48535156 791 1072.48535156 791 1144.08007812 693.5 c 128,-1,32
 1215.67480469 596 1215.67480469 596 1186.98339844 432 c 0,33,34
 1148.13867188 210 1148.13867188 210 1003.76953125 105 c 128,-1,35
 859.40625 0 859.40625 0 592.106445312 0 c 2,36,-1
 -28.89453125 0 l 1,18,-1
EndSplineSet
EndChar
StartChar: C
Encoding: 67 67 67
Width: 1410
Flags: W
AnchorPoint: "above" 871.971 1465 basechar 0
AnchorPoint: "below" 615.681 0 basechar 0
LayerCount: 2
Back
Fore
SplineSet
1238.28320312 395 m 1,0,1
 1142.31640625 186 1142.31640625 186 983.565429688 78.5 c 128,-1,2
 824.806640625 -29 824.806640625 -29 610.606445312 -29 c 0,3,4
 479.20703125 -29 479.20703125 -29 375.455078125 21 c 128,-1,5
 271.702148438 71 271.702148438 71 201.370117188 168 c 0,6,7
 120.1640625 280 120.1640625 280 96.0439453125 422.5 c 128,-1,8
 71.9228515625 565 71.9228515625 565 103.412109375 745 c 0,9,10
 164.291992188 1093 164.291992188 1093 382.541992188 1306.5 c 128,-1,11
 600.79296875 1520 600.79296875 1520 896.893554688 1520 c 0,12,13
 1006.6953125 1520 1006.6953125 1520 1125.296875 1488 c 128,-1,14
 1243.89941406 1456 1243.89941406 1456 1375.62304688 1391 c 1,15,-1
 1315.44921875 1047 l 1,16,-1
 1213.74902344 1047 l 1,17,18
 1213.33496094 1235 1213.33496094 1235 1128.5546875 1324 c 128,-1,19
 1043.77539062 1413 1043.77539062 1413 862.874023438 1413 c 0,20,21
 647.774414062 1413 647.774414062 1413 507.421875 1243.5 c 128,-1,22
 367.068359375 1074 367.068359375 1074 309.51171875 745 c 0,23,24
 252.131835938 417 252.131835938 417 333.177734375 247.5 c 128,-1,25
 414.225585938 78 414.225585938 78 629.326171875 78 c 0,26,27
 779.625976562 78 779.625976562 78 890.733398438 157.5 c 128,-1,28
 1001.84375 237 1001.84375 237 1072.68261719 395 c 1,29,-1
 1238.28320312 395 l 1,0,1
EndSplineSet
EndChar
StartChar: D
Encoding: 68 68 68
Width: 1477
Flags: W
AnchorPoint: "below" 538.106 0 basechar 0
AnchorPoint: "above" 799.65 1465 basechar 0
LayerCount: 2
Back
Fore
SplineSet
343.348632812 106 m 1,0,-1
 510.749023438 106 l 2,1,2
 772.649414062 106 772.649414062 106 941.642578125 272 c 128,-1,3
 1110.62695312 438 1110.62695312 438 1164.86132812 748 c 128,-1,4
 1219.09472656 1058 1219.09472656 1058 1108.28710938 1222 c 128,-1,5
 997.478515625 1386 997.478515625 1386 734.676757812 1386 c 2,6,-1
 567.276367188 1386 l 1,7,-1
 343.348632812 106 l 1,0,-1
-28.89453125 0 m 1,8,-1
 -10.3505859375 106 l 1,9,-1
 160.649414062 106 l 1,10,-1
 384.576171875 1386 l 1,11,-1
 213.576171875 1386 l 1,12,-1
 232.293945312 1493 l 1,13,-1
 766.893554688 1493 l 2,14,15
 1114.29003906 1493 1114.29003906 1493 1273.77929688 1296 c 128,-1,16
 1433.26757812 1099 1433.26757812 1099 1371.86132812 748 c 0,17,18
 1310.28320312 396 1310.28320312 396 1081.2421875 198 c 128,-1,19
 852.206054688 0 852.206054688 0 505.706054688 0 c 2,20,-1
 -28.89453125 0 l 1,8,-1
EndSplineSet
EndChar
StartChar: E
Encoding: 69 69 69
Width: 1345
Flags: W
AnchorPoint: "above" 798.896 1465 basechar 0
AnchorPoint: "below" 542.606 0 basechar 0
LayerCount: 2
Back
Fore
SplineSet
-28.89453125 0 m 1,0,-1
 -10.3505859375 106 l 1,1,-1
 160.649414062 106 l 1,2,-1
 384.576171875 1386 l 1,3,-1
 213.576171875 1386 l 1,4,-1
 232.293945312 1493 l 1,5,-1
 1314.08984375 1493 l 1,6,-1
 1256.01269531 1161 l 1,7,-1
 1145.31347656 1161 l 1,8,-1
 1181.87988281 1370 l 1,9,-1
 564.4765625 1370 l 1,10,-1
 477.005859375 870 l 1,11,-1
 917.109375 870 l 1,12,-1
 949.82421875 1057 l 1,13,-1
 1060.52441406 1057 l 1,14,-1
 973.74609375 561 l 1,15,-1
 863.047851562 561 l 1,16,-1
 895.762695312 748 l 1,17,-1
 455.663085938 748 l 1,18,-1
 346.323242188 123 l 1,19,-1
 978.120117188 123 l 1,20,-1
 1014.68652344 332 l 1,21,-1
 1125.38671875 332 l 1,22,-1
 1067.30957031 0 l 1,23,-1
 -28.89453125 0 l 1,0,-1
EndSplineSet
EndChar
StartChar: F
Encoding: 70 70 70
Width: 1278
Flags: W
AnchorPoint: "below" 233.007 0 basechar 0
AnchorPoint: "above" 807.896 1465 basechar 0
LayerCount: 2
Back
Fore
SplineSet
-28.89453125 0 m 1,0,-1
 -10.3505859375 106 l 1,1,-1
 160.649414062 106 l 1,2,-1
 384.576171875 1386 l 1,3,-1
 213.576171875 1386 l 1,4,-1
 232.293945312 1493 l 1,5,-1
 1332.08984375 1493 l 1,6,-1
 1274.01269531 1161 l 1,7,-1
 1163.31347656 1161 l 1,8,-1
 1199.87988281 1370 l 1,9,-1
 564.4765625 1370 l 1,10,-1
 477.005859375 870 l 1,11,-1
 936.008789062 870 l 1,12,-1
 968.723632812 1057 l 1,13,-1
 1079.42382812 1057 l 1,14,-1
 992.646484375 561 l 1,15,-1
 881.948242188 561 l 1,16,-1
 914.661132812 748 l 1,17,-1
 455.663085938 748 l 1,18,-1
 343.348632812 106 l 1,19,-1
 558.44921875 106 l 1,20,-1
 539.90625 0 l 1,21,-1
 -28.89453125 0 l 1,0,-1
EndSplineSet
EndChar
StartChar: G
Encoding: 71 71 71
Width: 1472
Flags: W
AnchorPoint: "below" 639.981 0 basechar 0
AnchorPoint: "above" 901.35 1465 basechar 0
LayerCount: 2
Back
Fore
SplineSet
1232.64941406 1047 m 1,0,1
 1233.86425781 1234 1233.86425781 1234 1149.61523438 1323.5 c 128,-1,2
 1065.375 1413 1065.375 1413 887.173828125 1413 c 0,3,4
 654.973632812 1413 654.973632812 1413 511.6328125 1247 c 128,-1,5
 368.293945312 1081 368.293945312 1081 309.51171875 745 c 0,6,7
 251.95703125 416 251.95703125 416 340.291992188 247 c 128,-1,8
 428.625976562 78 428.625976562 78 657.225585938 78 c 0,9,10
 758.92578125 78 758.92578125 78 856.5234375 106 c 128,-1,11
 954.125976562 134 954.125976562 134 1047.61816406 190 c 1,12,-1
 1114.97363281 575 l 1,13,-1
 862.072265625 575 l 1,14,-1
 880.791015625 682 l 1,15,-1
 1316.39355469 682 l 1,16,-1
 1218.95117188 125 l 1,17,18
 1085.77832031 48 1085.77832031 48 940.896484375 9.5 c 128,-1,19
 796.006835938 -29 796.006835938 -29 638.506835938 -29 c 0,20,21
 334.306640625 -29 334.306640625 -29 188.15625 182.5 c 128,-1,22
 42.0078125 394 42.0078125 394 103.412109375 745 c 0,23,24
 165.342773438 1099 165.342773438 1099 385.767578125 1309.5 c 128,-1,25
 606.193359375 1520 606.193359375 1520 916.6953125 1520 c 0,26,27
 1031.89453125 1520 1031.89453125 1520 1149.57910156 1490.5 c 128,-1,28
 1267.27246094 1461 1267.27246094 1461 1395.37792969 1401 c 1,29,-1
 1333.44921875 1047 l 1,30,-1
 1232.64941406 1047 l 1,0,1
EndSplineSet
EndChar
StartChar: H
Encoding: 72 72 72
Width: 1607
Flags: W
AnchorPoint: "above" 929.394 1465 basechar 0
AnchorPoint: "below" 673.106 0 basechar 0
LayerCount: 2
Back
Fore
SplineSet
-28.89453125 0 m 1,0,-1
 -10.3505859375 106 l 1,1,-1
 160.649414062 106 l 1,2,-1
 384.576171875 1386 l 1,3,-1
 213.576171875 1386 l 1,4,-1
 232.293945312 1493 l 1,5,-1
 756.993164062 1493 l 1,6,-1
 738.276367188 1386 l 1,7,-1
 567.276367188 1386 l 1,8,-1
 477.005859375 870 l 1,9,-1
 1173.609375 870 l 1,10,-1
 1263.87890625 1386 l 1,11,-1
 1092.87890625 1386 l 1,12,-1
 1111.58984375 1493 l 1,13,-1
 1636.29003906 1493 l 1,14,-1
 1617.57910156 1386 l 1,15,-1
 1446.57910156 1386 l 1,16,-1
 1222.65039062 106 l 1,17,-1
 1393.65039062 106 l 1,18,-1
 1375.11035156 0 l 1,19,-1
 850.40625 0 l 1,20,-1
 868.94921875 106 l 1,21,-1
 1039.95019531 106 l 1,22,-1
 1152.26074219 748 l 1,23,-1
 455.663085938 748 l 1,24,-1
 343.348632812 106 l 1,25,-1
 514.348632812 106 l 1,26,-1
 495.806640625 0 l 1,27,-1
 -28.89453125 0 l 1,0,-1
EndSplineSet
EndChar
StartChar: I
Encoding: 73 73 73
Width: 728
Flags: W
AnchorPoint: "below" 234.807 0 basechar 0
AnchorPoint: "above" 496.354 1465 basechar 0
LayerCount: 2
Back
Fore
SplineSet
343.348632812 106 m 1,0,-1
 514.348632812 106 l 1,1,-1
 495.806640625 0 l 1,2,-1
 -28.89453125 0 l 1,3,-1
 -10.3505859375 106 l 1,4,-1
 160.649414062 106 l 1,5,-1
 384.576171875 1386 l 1,6,-1
 213.576171875 1386 l 1,7,-1
 232.293945312 1493 l 1,8,-1
 756.993164062 1493 l 1,9,-1
 738.276367188 1386 l 1,10,-1
 567.276367188 1386 l 1,11,-1
 343.348632812 106 l 1,0,-1
EndSplineSet
EndChar
StartChar: J
Encoding: 74 74 74
Width: 738
Flags: W
AnchorPoint: "above" 554.459 1465 basechar 0
AnchorPoint: "below" -0.256836 -430 basechar 0
LayerCount: 2
Back
Fore
SplineSet
-310.760742188 -358 m 1,0,-1
 -269.649414062 -123 l 1,1,-1
 -167.048828125 -123 l 1,2,3
 -181.668945312 -222 -181.668945312 -222 -150.553710938 -270.5 c 128,-1,4
 -119.438476562 -319 -119.438476562 -319 -40.23828125 -319 c 0,5,6
 66.8623046875 -319 66.8623046875 -319 122.282226562 -244 c 128,-1,7
 177.703125 -169 177.703125 -169 215.83984375 49 c 2,8,-1
 449.73828125 1386 l 1,9,-1
 240.938476562 1386 l 1,10,-1
 259.657226562 1493 l 1,11,-1
 822.157226562 1493 l 1,12,-1
 803.438476562 1386 l 1,13,-1
 632.438476562 1386 l 1,14,-1
 397.141601562 41 l 2,15,16
 353.930664062 -206 353.930664062 -206 245.586914062 -316 c 128,-1,17
 137.243164062 -426 137.243164062 -426 -60.7568359375 -426 c 0,18,19
 -124.657226562 -426 -124.657226562 -426 -187.833007812 -409 c 128,-1,20
 -251.008789062 -392 -251.008789062 -392 -310.760742188 -358 c 1,0,-1
EndSplineSet
EndChar
StartChar: K
Encoding: 75 75 75
Width: 1377
Flags: W
AnchorPoint: "below" 626.307 0 basechar 0
AnchorPoint: "above" 882.596 1465 basechar 0
LayerCount: 2
Back
Fore
SplineSet
-28.89453125 0 m 1,0,-1
 -10.3505859375 106 l 1,1,-1
 160.649414062 106 l 1,2,-1
 384.576171875 1386 l 1,3,-1
 213.576171875 1386 l 1,4,-1
 232.293945312 1493 l 1,5,-1
 756.993164062 1493 l 1,6,-1
 738.276367188 1386 l 1,7,-1
 567.276367188 1386 l 1,8,-1
 468.432617188 821 l 1,9,-1
 1145.97851562 1386 l 1,10,-1
 1000.17871094 1386 l 1,11,-1
 1018.88964844 1493 l 1,12,-1
 1465.29003906 1493 l 1,13,-1
 1446.57910156 1386 l 1,14,-1
 1295.37890625 1386 l 1,15,-1
 619.983398438 823 l 1,16,-1
 1139.84960938 106 l 1,17,-1
 1292.84960938 106 l 1,18,-1
 1274.30957031 0 l 1,19,-1
 962.009765625 0 l 1,20,-1
 448.83984375 709 l 1,21,-1
 343.348632812 106 l 1,22,-1
 514.348632812 106 l 1,23,-1
 495.806640625 0 l 1,24,-1
 -28.89453125 0 l 1,0,-1
EndSplineSet
EndChar
StartChar: L
Encoding: 76 76 76
Width: 1224
Flags: W
AnchorPoint: "below" 553.406 0 basechar 0
AnchorPoint: "above" 491.096 1465 basechar 0
LayerCount: 2
Back
Fore
SplineSet
-28.89453125 0 m 1,0,-1
 -10.3505859375 106 l 1,1,-1
 160.649414062 106 l 1,2,-1
 384.576171875 1386 l 1,3,-1
 213.576171875 1386 l 1,4,-1
 232.293945312 1493 l 1,5,-1
 756.993164062 1493 l 1,6,-1
 738.276367188 1386 l 1,7,-1
 567.276367188 1386 l 1,8,-1
 346.323242188 123 l 1,9,-1
 960.120117188 123 l 1,10,-1
 1003.86035156 373 l 1,11,-1
 1114.55957031 373 l 1,12,-1
 1049.30957031 0 l 1,13,-1
 -28.89453125 0 l 1,0,-1
EndSplineSet
EndChar
StartChar: M
Encoding: 77 77 77
Width: 1887
Flags: W
AnchorPoint: "above" 1068.89 1465 basechar 0
AnchorPoint: "below" 812.606 0 basechar 0
LayerCount: 2
Back
Fore
SplineSet
-28.89453125 0 m 1,0,-1
 -10.3505859375 106 l 1,1,-1
 160.649414062 106 l 1,2,-1
 384.576171875 1386 l 1,3,-1
 203.676757812 1386 l 1,4,-1
 222.393554688 1493 l 1,5,-1
 613.893554688 1493 l 1,6,-1
 899.53125 430 l 1,7,-1
 1557.08984375 1493 l 1,8,-1
 1924.29003906 1493 l 1,9,-1
 1905.57910156 1386 l 1,10,-1
 1726.47851562 1386 l 1,11,-1
 1502.54980469 106 l 1,12,-1
 1674.45019531 106 l 1,13,-1
 1655.91015625 0 l 1,14,-1
 1130.30957031 0 l 1,15,-1
 1148.84960938 106 l 1,16,-1
 1319.84960938 106 l 1,17,-1
 1521.72851562 1260 l 1,18,-1
 878.818359375 219 l 1,19,-1
 751.918945312 219 l 1,20,-1
 473.232421875 1260 l 1,21,-1
 271.348632812 106 l 1,22,-1
 442.348632812 106 l 1,23,-1
 423.806640625 0 l 1,24,-1
 -28.89453125 0 l 1,0,-1
EndSplineSet
EndChar
StartChar: N
Encoding: 78 78 78
Width: 1612
Flags: W
AnchorPoint: "below" 655.843 0 basechar 0
AnchorPoint: "above" 906.3 1464 basechar 0
LayerCount: 2
Back
Fore
SplineSet
-38.0576171875 0 m 1,0,-1
 -19.513671875 106 l 1,1,-1
 161.385742188 106 l 1,2,-1
 385.3125 1386 l 1,3,-1
 204.412109375 1386 l 1,4,-1
 223.131835938 1493 l 1,5,-1
 567.83203125 1493 l 1,6,-1
 1167.24609375 315 l 1,7,-1
 1354.60839844 1386 l 1,8,-1
 1174.60839844 1386 l 1,9,-1
 1193.328125 1493 l 1,10,-1
 1664.92773438 1493 l 1,11,-1
 1646.20800781 1386 l 1,12,-1
 1465.30761719 1386 l 1,13,-1
 1217.77246094 -29 l 1,14,-1
 1108.87207031 -29 l 1,15,-1
 468.545898438 1229 l 1,16,-1
 272.0859375 106 l 1,17,-1
 452.986328125 106 l 1,18,-1
 434.442382812 0 l 1,19,-1
 -38.0576171875 0 l 1,0,-1
EndSplineSet
EndChar
StartChar: O
Encoding: 79 79 79
Width: 1511
Flags: W
AnchorPoint: "above" 881.87 1465 basechar 0
AnchorPoint: "below" 625.581 0 basechar 0
LayerCount: 2
Back
Fore
SplineSet
639.225585938 78 m 0,0,1
 859.725585938 78 859.725585938 78 1001.70019531 246.5 c 128,-1,2
 1143.68359375 415 1143.68359375 415 1201.41015625 745 c 0,3,4
 1259.31640625 1076 1259.31640625 1076 1176.29980469 1244.5 c 128,-1,5
 1093.27539062 1413 1093.27539062 1413 872.774414062 1413 c 0,6,7
 651.374023438 1413 651.374023438 1413 509.396484375 1244.5 c 128,-1,8
 367.418945312 1076 367.418945312 1076 309.51171875 745 c 0,9,10
 251.78125 415 251.78125 415 334.803710938 246.5 c 128,-1,11
 417.826171875 78 417.826171875 78 639.225585938 78 c 0,0,1
620.506835938 -29 m 0,12,13
 483.70703125 -29 483.70703125 -29 377.705078125 21 c 128,-1,14
 271.702148438 71 271.702148438 71 201.370117188 168 c 0,15,16
 120.1640625 280 120.1640625 280 95.9560546875 422 c 128,-1,17
 71.748046875 564 71.748046875 564 103.412109375 745 c 128,-1,18
 135.077148438 926 135.077148438 926 209.056640625 1068.5 c 128,-1,19
 283.03515625 1211 283.03515625 1211 403.4296875 1323 c 0,20,21
 508.7734375 1421 508.7734375 1421 630.833007812 1470.5 c 128,-1,22
 752.893554688 1520 752.893554688 1520 891.493164062 1520 c 0,23,24
 1183.99511719 1520 1183.99511719 1520 1326.72558594 1307 c 128,-1,25
 1469.46582031 1094 1469.46582031 1094 1408.41015625 745 c 0,26,27
 1377.09863281 566 1377.09863281 566 1302.48925781 422.5 c 128,-1,28
 1227.88769531 279 1227.88769531 279 1107.67480469 168 c 0,29,30
 1002.33007812 70 1002.33007812 70 880.266601562 20.5 c 128,-1,31
 758.20703125 -29 758.20703125 -29 620.506835938 -29 c 0,12,13
EndSplineSet
EndChar
StartChar: P
Encoding: 80 80 80
Width: 1240
Flags: W
AnchorPoint: "above" 794.396 1465 basechar 0
AnchorPoint: "below" 234.807 0 basechar 0
LayerCount: 2
Back
Fore
SplineSet
457.76171875 760 m 1,0,-1
 695.361328125 760 l 2,1,2
 829.461914062 760 829.461914062 760 913.743164062 840.5 c 128,-1,3
 998.028320312 921 998.028320312 921 1024.61425781 1073 c 0,4,5
 1051.38867188 1226 1051.38867188 1226 995.18359375 1306 c 128,-1,6
 938.978515625 1386 938.978515625 1386 804.875976562 1386 c 2,7,-1
 567.276367188 1386 l 1,8,-1
 457.76171875 760 l 1,0,-1
-28.89453125 0 m 1,9,-1
 -10.3505859375 106 l 1,10,-1
 160.649414062 106 l 1,11,-1
 384.576171875 1386 l 1,12,-1
 213.576171875 1386 l 1,13,-1
 232.293945312 1493 l 1,14,-1
 867.693359375 1493 l 2,15,16
 1069.29003906 1493 1069.29003906 1493 1167.3359375 1379.5 c 128,-1,17
 1265.38183594 1266 1265.38183594 1266 1231.61425781 1073 c 0,18,19
 1198.02636719 881 1198.02636719 881 1060.18164062 767 c 128,-1,20
 922.346679688 653 922.346679688 653 720.7421875 653 c 2,21,-1
 439.04296875 653 l 1,22,-1
 343.348632812 106 l 1,23,-1
 551.249023438 106 l 1,24,-1
 532.706054688 0 l 1,25,-1
 -28.89453125 0 l 1,9,-1
EndSplineSet
EndChar
StartChar: Q
Encoding: 81 81 81
Width: 1511
Flags: W
AnchorPoint: "below" 594.004 -330 basechar 0
AnchorPoint: "above" 908.028 1465 basechar 0
LayerCount: 2
Back
Fore
SplineSet
668.258789062 -29 m 1,0,1
 359.55859375 -29 359.55859375 -29 213.686523438 181.5 c 0,2,3
 111.204101562 329.389648438 111.204101562 329.389648438 111.204101562 547.620117188 c 0,4,5
 111.204101562 640.009765625 111.204101562 640.009765625 129.564453125 745 c 0,6,7
 161.235351562 926 161.235351562 926 235.21484375 1068.5 c 128,-1,8
 309.185546875 1211 309.185546875 1211 429.579101562 1323 c 0,9,10
 534.923828125 1421 534.923828125 1421 656.982421875 1470.5 c 128,-1,11
 779.048828125 1520 779.048828125 1520 917.649414062 1520 c 0,12,13
 1210.14941406 1520 1210.14941406 1520 1352.87988281 1307 c 0,14,15
 1452.86132812 1157.80957031 1452.86132812 1157.80957031 1452.86132812 941.91015625 c 0,16,17
 1452.86132812 849.559570312 1452.86132812 849.559570312 1434.56445312 745 c 0,18,19
 1382.78710938 449 1382.78710938 449 1212.53417969 247.5 c 0,20,21
 1042.28125 46 1042.28125 46 794.538085938 -12 c 1,22,23
 831.411132812 -79 831.411132812 -79 895.563476562 -111 c 0,24,25
 959.71484375 -143 959.71484375 -143 1057.81542969 -143 c 2,26,-1
 1282.81542969 -143 l 1,27,-1
 1250.45117188 -328 l 1,28,-1
 1145.15136719 -328 l 2,29,30
 906.389648438 -328 906.389648438 -328 807.237304688 -245.5 c 0,31,32
 709.802734375 -164.440429688 709.802734375 -164.440429688 668.258789062 -29 c 1,0,1
665.37890625 78 m 0,33,34
 885.87890625 78 885.87890625 78 1027.85351562 246.5 c 0,35,36
 1169.83789062 415 1169.83789062 415 1227.56445312 745 c 0,37,38
 1251.36035156 881 1251.36035156 881 1251.36035156 989.5703125 c 0,39,40
 1251.36035156 1145.23046875 1251.36035156 1145.23046875 1202.45410156 1244.5 c 0,41,42
 1119.42871094 1413 1119.42871094 1413 898.928710938 1413 c 0,43,44
 677.529296875 1413 677.529296875 1413 535.553710938 1244.5 c 128,-1,45
 393.5703125 1076 393.5703125 1076 335.6640625 745 c 0,46,47
 311.985351562 609.650390625 311.985351562 609.650390625 311.994140625 501.459960938 c 0,48,49
 311.994140625 345.889648438 311.994140625 345.889648438 360.954101562 246.5 c 0,50,51
 443.978515625 78 443.978515625 78 665.37890625 78 c 0,33,34
EndSplineSet
EndChar
StartChar: R
Encoding: 82 82 82
Width: 1387
Flags: W
AnchorPoint: "below" 527.307 0 basechar 0
AnchorPoint: "above" 788.85 1465 basechar 0
LayerCount: 2
Back
Fore
SplineSet
881.9375 741 m 1,0,1
 941.616210938 722 941.616210938 722 979.100585938 676.5 c 128,-1,2
 1016.59472656 631 1016.59472656 631 1038.24902344 549 c 2,3,-1
 1156.04980469 106 l 1,4,-1
 1319.84960938 106 l 1,5,-1
 1301.30957031 0 l 1,6,-1
 984.509765625 0 l 1,7,-1
 857.903320312 475 l 1,8,9
 821.745117188 613 821.745117188 613 778.430664062 653.5 c 128,-1,10
 735.115234375 694 735.115234375 694 646.915039062 694 c 2,11,-1
 446.215820312 694 l 1,12,-1
 343.348632812 106 l 1,13,-1
 533.249023438 106 l 1,14,-1
 514.706054688 0 l 1,15,-1
 -28.89453125 0 l 1,16,-1
 -10.3505859375 106 l 1,17,-1
 160.649414062 106 l 1,18,-1
 384.576171875 1386 l 1,19,-1
 213.576171875 1386 l 1,20,-1
 232.293945312 1493 l 1,21,-1
 913.58984375 1493 l 2,22,23
 1109.79003906 1493 1109.79003906 1493 1198.25097656 1389 c 128,-1,24
 1286.703125 1285 1286.703125 1285 1253.29492188 1094 c 0,25,26
 1226.34863281 940 1226.34863281 940 1133.01855469 851.5 c 128,-1,27
 1039.68945312 763 1039.68945312 763 881.9375 741 c 1,0,1
464.934570312 801 m 1,28,-1
 730.434570312 801 l 2,29,30
 866.334960938 801 866.334960938 801 943.640625 872.5 c 128,-1,31
 1020.95117188 944 1020.95117188 944 1047.1953125 1094 c 128,-1,32
 1073.4296875 1244 1073.4296875 1244 1021.04980469 1315 c 128,-1,33
 968.678710938 1386 968.678710938 1386 832.776367188 1386 c 2,34,-1
 567.276367188 1386 l 1,35,-1
 464.934570312 801 l 1,28,-1
EndSplineSet
EndChar
StartChar: S
Encoding: 83 83 83
Width: 1262
Flags: W
AnchorPoint: "below" 501.381 0 basechar 0
AnchorPoint: "above" 762.75 1465 basechar 0
LayerCount: 2
Back
Fore
SplineSet
53.1767578125 72 m 1,0,-1
 112.65625 412 l 1,1,-1
 215.981445312 411 l 1,2,3
 190.7421875 241 190.7421875 241 260.633789062 159.5 c 128,-1,4
 330.526367188 78 330.526367188 78 502.42578125 78 c 0,5,6
 662.625976562 78 662.625976562 78 759.109375 148.5 c 128,-1,7
 855.592773438 219 855.592773438 219 879.209960938 354 c 0,8,9
 898.104492188 462 898.104492188 462 857.400390625 520 c 128,-1,10
 816.697265625 578 816.697265625 578 662.518554688 633 c 2,11,-1
 495.541015625 692 l 2,12,13
 314.311523438 757 314.311523438 757 252.53125 854 c 128,-1,14
 190.750976562 951 190.750976562 951 220.31640625 1120 c 0,15,16
 253.555664062 1310 253.555664062 1310 393.423828125 1415 c 128,-1,17
 533.29296875 1520 533.29296875 1520 752.893554688 1520 c 0,18,19
 846.493164062 1520 846.493164062 1520 954.153320312 1497.5 c 128,-1,20
 1061.8203125 1475 1061.8203125 1475 1180.29589844 1432 c 1,21,-1
 1124.66699219 1114 l 1,22,-1
 1022.96679688 1114 l 1,23,24
 1035.30566406 1272 1035.30566406 1272 967.986328125 1342.5 c 128,-1,25
 900.674804688 1413 900.674804688 1413 737.774414062 1413 c 0,26,27
 595.57421875 1413 595.57421875 1413 510.040039062 1348.5 c 128,-1,28
 424.506835938 1284 424.506835938 1284 402.98828125 1161 c 0,29,30
 384.270507812 1054 384.270507812 1054 429.3984375 993 c 128,-1,31
 474.526367188 932 474.526367188 932 644.9296875 872 c 2,32,-1
 801.80859375 817 l 2,33,34
 973.8359375 756 973.8359375 756 1035.15332031 661.5 c 128,-1,35
 1096.46972656 567 1096.46972656 567 1068.66015625 408 c 0,36,37
 1030.69824219 191 1030.69824219 191 886.350585938 81 c 128,-1,38
 742.006835938 -29 742.006835938 -29 494.506835938 -29 c 0,39,40
 383.806640625 -29 383.806640625 -29 273.430664062 -4 c 128,-1,41
 163.0546875 21 163.0546875 21 53.1767578125 72 c 1,0,-1
EndSplineSet
EndChar
StartChar: T
Encoding: 84 84 84
Width: 1229
Flags: W
AnchorPoint: "below" 478.706 0 basechar 0
AnchorPoint: "above" 740.25 1465 basechar 0
LayerCount: 2
Back
Fore
SplineSet
221.306640625 0 m 1,0,-1
 239.848632812 106 l 1,1,-1
 411.749023438 106 l 1,2,-1
 633.576171875 1374 l 1,3,-1
 238.4765625 1374 l 1,4,-1
 197.71484375 1141 l 1,5,-1
 87.0146484375 1141 l 1,6,-1
 148.59375 1493 l 1,7,-1
 1341.99023438 1493 l 1,8,-1
 1280.41210938 1141 l 1,9,-1
 1169.71191406 1141 l 1,10,-1
 1210.47265625 1374 l 1,11,-1
 815.376953125 1374 l 1,12,-1
 593.548828125 106 l 1,13,-1
 765.44921875 106 l 1,14,-1
 746.90625 0 l 1,15,-1
 221.306640625 0 l 1,0,-1
EndSplineSet
EndChar
StartChar: U
Encoding: 85 85 85
Width: 1553
Flags: W
AnchorPoint: "below" 684.643 0 basechar 0
AnchorPoint: "above" 943.65 1465 basechar 0
LayerCount: 2
Back
Fore
SplineSet
372.712890625 1386 m 1,0,-1
 200.8125 1386 l 1,1,-1
 219.53125 1493 l 1,2,-1
 745.131835938 1493 l 1,3,-1
 726.412109375 1386 l 1,4,-1
 554.512695312 1386 l 1,5,-1
 419.45703125 614 l 2,6,7
 369.423828125 328 369.423828125 328 433.805664062 215 c 128,-1,8
 498.185546875 102 498.185546875 102 704.286132812 102 c 0,9,10
 910.385742188 102 910.385742188 102 1014.30859375 215 c 128,-1,11
 1118.22265625 328 1118.22265625 328 1168.25390625 614 c 2,12,-1
 1303.30761719 1386 l 1,13,-1
 1131.40820312 1386 l 1,14,-1
 1150.12792969 1493 l 1,15,-1
 1603.72753906 1493 l 1,16,-1
 1585.0078125 1386 l 1,17,-1
 1414.0078125 1386 l 1,18,-1
 1275.46191406 594 l 2,19,20
 1215.80078125 253 1215.80078125 253 1073.23242188 112 c 128,-1,21
 930.671875 -29 930.671875 -29 648.068359375 -29 c 0,22,23
 365.46875 -29 365.46875 -29 270.161132812 113 c 128,-1,24
 174.8515625 255 174.8515625 255 234.158203125 594 c 2,25,-1
 372.712890625 1386 l 1,0,-1
EndSplineSet
EndChar
StartChar: V
Encoding: 86 86 86
Width: 1331
Flags: W
AnchorPoint: "below" 534.507 0 basechar 0
AnchorPoint: "above" 790.796 1465 basechar 0
LayerCount: 2
Back
Fore
SplineSet
434.076171875 1386 m 1,0,-1
 630.491210938 240 l 1,1,-1
 1226.97851562 1386 l 1,2,-1
 1075.77929688 1386 l 1,3,-1
 1094.49023438 1493 l 1,4,-1
 1488.69042969 1493 l 1,5,-1
 1469.97851562 1386 l 1,6,-1
 1339.47851562 1386 l 1,7,-1
 617.306640625 0 l 1,8,-1
 462.506835938 0 l 1,9,-1
 227.9765625 1386 l 1,10,-1
 93.8759765625 1386 l 1,11,-1
 112.59375 1493 l 1,12,-1
 602.193359375 1493 l 1,13,-1
 583.4765625 1386 l 1,14,-1
 434.076171875 1386 l 1,0,-1
EndSplineSet
EndChar
StartChar: W
Encoding: 87 87 87
Width: 1894
Flags: W
AnchorPoint: "below" 818.007 0 basechar 0
AnchorPoint: "above" 1059.3 1465 basechar 0
LayerCount: 2
Back
Fore
SplineSet
1274.30957031 0 m 1,0,-1
 1126.70996094 0 l 1,1,-1
 1031.28320312 1214 l 1,2,-1
 511.106445312 0 l 1,3,-1
 363.506835938 0 l 1,4,-1
 254.076171875 1386 l 1,5,-1
 120.875976562 1386 l 1,6,-1
 139.59375 1493 l 1,7,-1
 630.09375 1493 l 1,8,-1
 611.375976562 1386 l 1,9,-1
 443.9765625 1386 l 1,10,-1
 530.9140625 283 l 1,11,-1
 1048.58984375 1493 l 1,12,-1
 1194.38964844 1493 l 1,13,-1
 1291.84179688 270 l 1,14,-1
 1768.77929688 1386 l 1,15,-1
 1613.97851562 1386 l 1,16,-1
 1632.69042969 1493 l 1,17,-1
 2019.69042969 1493 l 1,18,-1
 2000.97851562 1386 l 1,19,-1
 1868.67871094 1386 l 1,20,-1
 1274.30957031 0 l 1,0,-1
EndSplineSet
EndChar
StartChar: X
Encoding: 88 88 88
Width: 1312
Flags: W
AnchorPoint: "below" 525.507 0 basechar 0
AnchorPoint: "above" 783.9 1465 basechar 0
LayerCount: 2
Back
Fore
SplineSet
591.393554688 639 m 1,0,-1
 169.649414062 106 l 1,1,-1
 343.348632812 106 l 1,2,-1
 324.806640625 0 l 1,3,-1
 -119.793945312 0 l 1,4,-1
 -101.250976562 106 l 1,5,-1
 53.548828125 106 l 1,6,-1
 550.23828125 733 l 1,7,-1
 272.076171875 1386 l 1,8,-1
 128.076171875 1386 l 1,9,-1
 146.793945312 1493 l 1,10,-1
 679.59375 1493 l 1,11,-1
 660.875976562 1386 l 1,12,-1
 502.4765625 1386 l 1,13,-1
 706.329101562 905 l 1,14,-1
 1086.57910156 1386 l 1,15,-1
 913.779296875 1386 l 1,16,-1
 932.490234375 1493 l 1,17,-1
 1372.58984375 1493 l 1,18,-1
 1353.87890625 1386 l 1,19,-1
 1202.67871094 1386 l 1,20,-1
 746.583007812 811 l 1,21,-1
 1047.15039062 106 l 1,22,-1
 1191.15039062 106 l 1,23,-1
 1172.61035156 0 l 1,24,-1
 639.806640625 0 l 1,25,-1
 658.348632812 106 l 1,26,-1
 818.548828125 106 l 1,27,-1
 591.393554688 639 l 1,0,-1
EndSplineSet
EndChar
StartChar: Y
Encoding: 89 89 89
Width: 1216
Flags: W
AnchorPoint: "below" 475.106 0 basechar 0
AnchorPoint: "above" 714.6 1465 basechar 0
LayerCount: 2
Back
Fore
SplineSet
217.706054688 0 m 1,0,-1
 236.249023438 106 l 1,1,-1
 408.149414062 106 l 1,2,-1
 502.09375 643 l 1,3,-1
 217.176757812 1386 l 1,4,-1
 91.1767578125 1386 l 1,5,-1
 109.893554688 1493 l 1,6,-1
 609.393554688 1493 l 1,7,-1
 590.676757812 1386 l 1,8,-1
 434.076171875 1386 l 1,9,-1
 664.110351562 782 l 1,10,-1
 1105.47851562 1386 l 1,11,-1
 954.279296875 1386 l 1,12,-1
 972.990234375 1493 l 1,13,-1
 1363.58984375 1493 l 1,14,-1
 1344.87890625 1386 l 1,15,-1
 1217.97851562 1386 l 1,16,-1
 687.217773438 662 l 1,17,-1
 589.94921875 106 l 1,18,-1
 761.848632812 106 l 1,19,-1
 743.306640625 0 l 1,20,-1
 217.706054688 0 l 1,0,-1
EndSplineSet
EndChar
StartChar: Z
Encoding: 90 90 90
Width: 1280
Flags: W
AnchorPoint: "below" 511.106 0 basechar 0
AnchorPoint: "above" 772.2 1465 basechar 0
LayerCount: 2
Back
Fore
SplineSet
-47.7001953125 0 m 1,0,-1
 -35.099609375 72 l 1,1,-1
 1028.70019531 1370 l 1,2,-1
 333.900390625 1370 l 1,3,-1
 295.200195312 1147 l 1,4,-1
 184.5 1147 l 1,5,-1
 244.799804688 1493 l 1,6,-1
 1306.79980469 1493 l 1,7,-1
 1294.20019531 1421 l 1,8,-1
 230.400390625 123 l 1,9,-1
 990 123 l 1,10,-1
 1026 332 l 1,11,-1
 1135.79980469 332 l 1,12,-1
 1078.20019531 0 l 1,13,-1
 -47.7001953125 0 l 1,0,-1
EndSplineSet
EndChar
StartChar: bracketleft
Encoding: 91 91 91
Width: 719
Flags: W
LayerCount: 2
Back
Fore
SplineSet
318.122070312 1556 m 1,0,-1
 736.622070312 1556 l 1,1,-1
 718.078125 1450 l 1,2,-1
 471.478515625 1450 l 1,3,-1
 189.12109375 -164 l 1,4,-1
 435.721679688 -164 l 1,5,-1
 417.177734375 -270 l 1,6,-1
 -1.322265625 -270 l 1,7,-1
 318.122070312 1556 l 1,0,-1
EndSplineSet
EndChar
StartChar: backslash
Encoding: 92 92 92
Width: 621
Flags: W
LayerCount: 2
Back
Fore
SplineSet
291.213867188 1493 m 1,0,-1
 473.786132812 -190 l 1,1,-1
 329.786132812 -190 l 1,2,-1
 147.213867188 1493 l 1,3,-1
 291.213867188 1493 l 1,0,-1
EndSplineSet
EndChar
StartChar: bracketright
Encoding: 93 93 93
Width: 719
Flags: W
LayerCount: 2
Back
Fore
SplineSet
720.421875 1556 m 1,0,-1
 400.977539062 -270 l 1,1,-1
 -17.521484375 -270 l 1,2,-1
 1.021484375 -164 l 1,3,-1
 247.62109375 -164 l 1,4,-1
 529.978515625 1450 l 1,5,-1
 283.37890625 1450 l 1,6,-1
 301.921875 1556 l 1,7,-1
 720.421875 1556 l 1,0,-1
EndSplineSet
EndChar
StartChar: asciicircum
Encoding: 94 94 94
Width: 1544
Flags: W
LayerCount: 2
Back
Fore
SplineSet
860.400390625 1493 m 1,0,-1
 1349.09960938 936 l 1,1,-1
 1211.40039062 936 l 1,2,-1
 772.200195312 1317 l 1,3,-1
 333.900390625 936 l 1,4,-1
 195.299804688 936 l 1,5,-1
 684 1493 l 1,6,-1
 860.400390625 1493 l 1,0,-1
EndSplineSet
EndChar
StartChar: underscore
Encoding: 95 95 95
Width: 921
Flags: W
LayerCount: 2
Back
Fore
SplineSet
921.599609375 -403 m 1,0,-1
 921.599609375 -483 l 1,1,-1
 0 -483 l 1,2,-1
 0 -403 l 1,3,-1
 921.599609375 -403 l 1,0,-1
EndSplineSet
EndChar
StartChar: grave
Encoding: 96 96 96
Width: 921
Flags: W
LayerCount: 2
Back
Fore
SplineSet
507.599609375 1636 m 1,0,-1
 675 1260 l 1,1,-1
 569.700195312 1260 l 1,2,-1
 330.299804688 1636 l 1,3,-1
 507.599609375 1636 l 1,0,-1
EndSplineSet
EndChar
StartChar: a
Encoding: 97 97 97
Width: 1098
Flags: W
AnchorPoint: "below" 419.4 0 basechar 0
AnchorPoint: "above" 609.3 1092 basechar 0
LayerCount: 2
Back
Fore
SplineSet
669.556640625 166 m 1,0,1
 549.467773438 -29 549.467773438 -29 356.802734375 -29 c 0,2,3
 198.049804688 -29 198.049804688 -29 118.079101562 90.3466796875 c 0,4,5
 61.75390625 174.409179688 61.75390625 174.409179688 61.75390625 294.442382812 c 0,6,7
 61.75390625 344.83203125 61.75390625 344.83203125 71.6796875 401.567382812 c 0,8,9
 133.583984375 755.4140625 133.583984375 755.4140625 354.4375 937 c 0,10,11
 542.984375 1092.01953125 542.984375 1092.01953125 770.419921875 1092.01953125 c 0,12,13
 923.076171875 1092.01953125 923.076171875 1092.01953125 975.87890625 1063 c 9,14,-1
 808.4609375 106 l 1,15,-1
 950.661132812 106 l 1,16,-1
 932.12109375 0 l 1,17,-1
 640.521484375 0 l 1,18,-1
 669.556640625 166 l 1,0,1
237.052734375 299.999023438 m 0,19,20
 237.052734375 86 237.052734375 86 423.087890625 86 c 0,21,22
 536.48828125 86 536.48828125 86 613.609375 186.5 c 128,-1,23
 690.7265625 287.0078125 690.7265625 287.0078125 724.313476562 479 c 2,24,-1
 808.635742188 961 l 1,25,-1
 808.639648438 961.451171875 l 2,26,27
 808.639648438 990 808.639648438 990 736.30859375 990 c 0,28,29
 563.508789062 990 563.508789062 990 429.268554688 840 c 0,30,31
 296.125976562 689.033203125 296.125976562 689.033203125 248.166015625 414.924804688 c 0,32,33
 237.052734375 351.409179688 237.052734375 351.409179688 237.052734375 299.999023438 c 0,19,20
EndSplineSet
EndChar
StartChar: b
Encoding: 98 98 98
Width: 1179
Flags: W
AnchorPoint: "below" 524.28 10 basechar 0
AnchorPoint: "above" 430.343 1536 basechar 0
LayerCount: 2
Back
Fore
SplineSet
332.49609375 1450 m 1,0,-1
 173.196289062 1450 l 1,1,-1
 191.745117188 1556 l 1,2,-1
 516.64453125 1556 l 1,3,-1
 401.35546875 897 l 1,4,5
 467.451171875 997 467.451171875 997 550.908203125 1044.5 c 128,-1,6
 634.365234375 1092 634.365234375 1092 745.065429688 1092 c 0,7,8
 921.46484375 1092 921.46484375 1092 1005.94824219 937 c 0,9,10
 1061.62207031 834.870117188 1061.62207031 834.870117188 1061.62207031 691.5 c 0,11,12
 1061.62207031 617.280273438 1061.62207031 617.280273438 1046.70019531 532 c 0,13,14
 1002.96875 282 1002.96875 282 864.162109375 126.5 c 128,-1,15
 725.35546875 -29 725.35546875 -29 548.955078125 -29 c 0,16,17
 438.254882812 -29 438.254882812 -29 371.420898438 18.5 c 128,-1,18
 304.578125 66 304.578125 66 273.473632812 166 c 1,19,-1
 244.430664062 0 l 1,20,-1
 78.8310546875 0 l 1,21,-1
 332.49609375 1450 l 1,0,-1
328.23046875 479 m 2,22,23
 314.49609375 400.5 314.49609375 400.5 314.49609375 337.299804688 c 0,24,25
 314.49609375 245.91015625 314.49609375 245.91015625 343.206054688 186.5 c 0,26,27
 391.779296875 86 391.779296875 86 517.779296875 86 c 0,28,29
 644.678710938 86 644.678710938 86 729.693359375 199 c 128,-1,30
 814.715820312 312 814.715820312 312 853.200195312 532 c 0,31,32
 870.9296875 633.33984375 870.9296875 633.33984375 870.9296875 711.75 c 0,33,34
 870.9296875 804.360351562 870.9296875 804.360351562 846.20703125 865 c 0,35,36
 800.549804688 977 800.549804688 977 673.650390625 977 c 0,37,38
 547.650390625 977 547.650390625 977 463.833007812 876 c 128,-1,39
 380.015625 775 380.015625 775 346.598632812 584 c 2,40,-1
 328.23046875 479 l 2,22,23
EndSplineSet
EndChar
StartChar: c
Encoding: 99 99 99
Width: 1032
Flags: W
AnchorPoint: "below" 463.168 10 basechar 0
AnchorPoint: "above" 651.6 1092 basechar 0
LayerCount: 2
Back
Fore
SplineSet
910.521484375 319 m 1,0,1
 845.684570312 149 845.684570312 149 730.21484375 60 c 128,-1,2
 614.745117188 -29 614.745117188 -29 456.344726562 -29 c 0,3,4
 247.544921875 -29 247.544921875 -29 147.500976562 124.5 c 0,5,6
 78.21875 230.790039062 78.21875 230.790039062 78.21875 385.259765625 c 0,7,8
 78.21875 453.879882812 78.21875 453.879882812 91.8896484375 532 c 0,9,10
 136.494140625 787 136.494140625 787 290.079101562 939.5 c 128,-1,11
 443.655273438 1092 443.655273438 1092 652.455078125 1092 c 0,12,13
 743.35546875 1092 743.35546875 1092 829.2421875 1068.5 c 128,-1,14
 915.12890625 1045 915.12890625 1045 997.631835938 997 c 1,15,-1
 950.048828125 725 l 1,16,-1
 853.749023438 725 l 1,17,18
 854.2890625 738.549804688 854.2890625 738.549804688 854.2890625 751.379882812 c 0,19,20
 854.2890625 871.190429688 854.2890625 871.190429688 807.092773438 929 c 0,21,22
 754.838867188 993 754.838867188 993 636.939453125 993 c 0,23,24
 502.838867188 993 502.838867188 993 414.234375 877.5 c 128,-1,25
 325.620117188 762 325.620117188 762 285.389648438 532 c 0,26,27
 266.966796875 426.700195312 266.966796875 426.700195312 266.966796875 345.299804688 c 0,28,29
 266.966796875 248.889648438 266.966796875 248.889648438 292.805664062 186 c 0,30,31
 340.4609375 70 340.4609375 70 475.4609375 70 c 0,32,33
 582.560546875 70 582.560546875 70 657.305664062 132 c 128,-1,34
 732.059570312 194 732.059570312 194 777.321289062 319 c 1,35,-1
 910.521484375 319 l 1,0,1
EndSplineSet
EndChar
StartChar: d
Encoding: 100 100 100
Width: 1179
Flags: W
AnchorPoint: "below" 378.532 0 basechar 0
AnchorPoint: "above" 1019.84 1536 basechar 0
LayerCount: 2
Back
Fore
SplineSet
1106.14453125 1556 m 1,0,-1
 833.930664062 0 l 1,1,-1
 668.331054688 0 l 1,2,-1
 697.374023438 166 l 1,3,4
 631.278320312 66 631.278320312 66 547.821289062 18.5 c 0,5,6
 464.35546875 -29 464.35546875 -29 353.655273438 -29 c 0,7,8
 177.254882812 -29 177.254882812 -29 92.412109375 126.5 c 0,9,10
 36.4228515625 229.110351562 36.4228515625 229.110351562 36.4228515625 372.870117188 c 0,11,12
 36.4228515625 446.969726562 36.4228515625 446.969726562 51.2998046875 532 c 0,13,14
 95.0400390625 782 95.0400390625 782 233.748046875 937 c 0,15,16
 372.46484375 1092 372.46484375 1092 549.764648438 1092 c 0,17,18
 660.46484375 1092 660.46484375 1092 727.307617188 1044.5 c 128,-1,19
 794.151367188 997 794.151367188 997 825.254882812 897 c 1,20,-1
 921.99609375 1450 l 1,21,-1
 765.396484375 1450 l 1,22,-1
 783.9453125 1556 l 1,23,-1
 1106.14453125 1556 l 1,0,-1
752.129882812 479 m 2,24,-1
 770.499023438 584 l 2,25,26
 784.133789062 661.9296875 784.133789062 661.9296875 784.133789062 724.879882812 c 0,27,28
 784.133789062 816.209960938 784.133789062 816.209960938 755.432617188 876 c 0,29,30
 706.950195312 977 706.950195312 977 580.950195312 977 c 0,31,32
 453.150390625 977 453.150390625 977 368.306640625 865 c 0,33,34
 283.463867188 753 283.463867188 753 244.799804688 532 c 0,35,36
 227.16015625 431.16015625 227.16015625 431.16015625 227.16015625 352.799804688 c 0,37,38
 227.16015625 260.209960938 227.16015625 260.209960938 251.79296875 199 c 0,39,40
 297.279296875 86 297.279296875 86 425.079101562 86 c 0,41,42
 551.079101562 86 551.079101562 86 634.805664062 186.5 c 0,43,44
 718.541992188 287 718.541992188 287 752.129882812 479 c 2,24,-1
EndSplineSet
EndChar
StartChar: e
Encoding: 101 101 101
Width: 1090
Flags: W
AnchorPoint: "below" 452.418 0 basechar 0
AnchorPoint: "above" 642.6 1092 basechar 0
LayerCount: 2
Back
Fore
SplineSet
270 408 m 1,0,1
 266.400390625 370 266.400390625 370 266.400390625 336 c 0,2,3
 266.400390625 242 266.400390625 242 297 180 c 0,4,5
 350.099609375 70 350.099609375 70 492.299804688 70 c 0,6,7
 596.700195312 70 596.700195312 70 648 105 c 0,8,9
 739.799804688 168 739.799804688 168 761.400390625 249 c 1,10,-1
 882.900390625 249 l 1,11,12
 846.900390625 122 846.900390625 122 712.799804688 33 c 0,13,14
 619.200195312 -29 619.200195312 -29 433.799804688 -29 c 128,-1,15
 248.400390625 -29 248.400390625 -29 148.5 124 c 0,16,17
 78.2998046875 231 78.2998046875 231 78.2998046875 386 c 0,18,19
 78.2998046875 454 78.2998046875 454 91.7998046875 531 c 0,20,21
 135.900390625 784 135.900390625 784 288 938 c 128,-1,22
 440.099609375 1092 440.099609375 1092 656.099609375 1092 c 0,23,24
 1008 1092 1008 1092 1008 815 c 0,25,26
 1008 612 1008 612 823.5 513 c 0,27,28
 635.400390625 412 635.400390625 412 270 408 c 1,0,1
731.700195312 632 m 16,29,30
 832.5 698 832.5 698 832.5 822 c 0,31,32
 832.5 993 832.5 993 628.200195312 993 c 0,33,34
 507.599609375 993 507.599609375 993 423.900390625 891 c 128,-1,35
 340.200195312 789 340.200195312 789 288.900390625 514 c 1,36,37
 577.799804688 529 577.799804688 529 731.700195312 632 c 16,29,30
EndSplineSet
EndChar
StartChar: f
Encoding: 102 102 102
Width: 682
Flags: W
AnchorPoint: "below" 36.0215 -430 basechar 0
AnchorPoint: "above" 674.259 1536 basechar 0
LayerCount: 2
Back
Fore
SplineSet
918.243164062 1305 m 1,0,-1
 830.944335938 1305 l 1,1,2
 834.439453125 1326.45019531 834.439453125 1326.45019531 834.438476562 1344.94042969 c 0,3,4
 834.438476562 1391.15039062 834.438476562 1391.15039062 812.640625 1419 c 0,5,6
 782.11328125 1458 782.11328125 1458 711.013671875 1458 c 0,7,8
 618.313476562 1458 618.313476562 1458 570.627929688 1401.5 c 128,-1,9
 522.943359375 1345 522.943359375 1345 497.577148438 1200 c 2,10,-1
 473.608398438 1063 l 1,11,-1
 740.909179688 1063 l 1,12,-1
 722.192382812 956 l 1,13,-1
 454.892578125 956 l 1,14,-1
 276.099609375 -66 l 2,15,16
 244.9609375 -243.997070312 244.9609375 -243.997070312 145.791015625 -335 c 128,-1,17
 46.6220703125 -426 46.6220703125 -426 -114.477539062 -426 c 1,18,-1
 -103.634765625 -328 l 1,19,20
 -9.083984375 -328 -9.083984375 -328 36.75 -271.5 c 0,21,22
 84.9423828125 -212.090820312 84.9423828125 -212.090820312 110.499023438 -66 c 2,23,-1
 289.291992188 956 l 1,24,-1
 130.892578125 956 l 1,25,-1
 149.608398438 1063 l 1,26,-1
 308.008789062 1063 l 1,27,-1
 331.27734375 1196 l 2,28,29
 362.543945312 1374.71972656 362.543945312 1374.71972656 461.586914062 1465 c 0,30,31
 560.755859375 1556 560.755859375 1556 721.85546875 1556 c 0,32,33
 782.15625 1556 782.15625 1556 840.356445312 1544 c 128,-1,34
 898.55859375 1532 898.55859375 1532 953.5859375 1507 c 1,35,-1
 918.243164062 1305 l 1,0,-1
EndSplineSet
EndChar
StartChar: g
Encoding: 103 103 103
Width: 1179
Flags: W
AnchorPoint: "below" 412.655 -430 basechar 0
AnchorPoint: "above" 640.8 1092 basechar 0
LayerCount: 2
Back
Fore
SplineSet
1100.27734375 1063 m 1,0,-1
 918.341796875 23 l 2,1,2
 876.6484375 -215.333007812 876.6484375 -215.333007812 743.099609375 -330.5 c 0,3,4
 598.728515625 -455 598.728515625 -455 398.219726562 -455 c 0,5,6
 303.71875 -455 303.71875 -455 220.642578125 -436 c 128,-1,7
 137.56640625 -417 137.56640625 -417 65.0146484375 -379 c 1,8,-1
 104.026367188 -156 l 1,9,-1
 190.426757812 -156 l 1,10,11
 188.431640625 -260 188.431640625 -260 240.334960938 -308 c 128,-1,12
 292.23828125 -356 292.23828125 -356 404.73828125 -356 c 0,13,14
 550.538085938 -356 550.538085938 -356 634.494140625 -264.5 c 0,15,16
 718.340820312 -173.625 718.340820312 -173.625 752.741210938 23 c 2,17,-1
 777.759765625 166 l 1,18,19
 711.663085938 66 711.663085938 66 628.204101562 18.5 c 128,-1,20
 544.744140625 -29 544.744140625 -29 439.178710938 -29 c 24,21,22
 280.426757812 -29 280.426757812 -29 200.452148438 90.3466796875 c 0,23,24
 150.27734375 165.227539062 150.27734375 165.227539062 144.796875 268.643554688 c 0,25,26
 141.546875 330.067382812 141.546875 330.067382812 154.057617188 401.567382812 c 0,27,28
 215.959960938 755.4140625 215.959960938 755.4140625 436.811523438 937 c 0,29,30
 624.66796875 1091.45019531 624.66796875 1091.45019531 844.627929688 1092 c 0,31,32
 1045.70117188 1092.79003906 1045.70117188 1092.79003906 1100.27734375 1063 c 1,0,-1
916.866210938 956 m 9,33,34
 916.623046875 990 916.623046875 990 818.681640625 990 c 0,35,36
 643.938476562 990 643.938476562 990 511.645507812 840 c 0,37,38
 378.5 689.033203125 378.5 689.033203125 330.538085938 414.924804688 c 0,39,40
 316.426757812 334.27734375 316.426757812 334.27734375 320.233398438 273.147460938 c 0,41,42
 324.0859375 211.265625 324.0859375 211.265625 346.297851562 169.337890625 c 0,43,44
 390.451171875 86 390.451171875 86 505.462890625 86 c 24,45,46
 631.462890625 86 631.462890625 86 715.194335938 186.5 c 128,-1,47
 798.926757812 287 798.926757812 287 832.516601562 479 c 2,48,-1
 850.884765625 584 l 17,49,-1
 916.866210938 956 l 9,33,34
EndSplineSet
AlternateSubs2: "'aalt' Access All Alternates" g.alt
Substitution2: "'salt' Stylistic Alternatives" g.alt
EndChar
StartChar: h
Encoding: 104 104 104
Width: 1187
Flags: W
AnchorPoint: "above" 427.98 1537 basechar 0
AnchorPoint: "below" 469.595 0 basechar 0
LayerCount: 2
Back
Fore
SplineSet
88.892578125 0 m 1,0,-1
 342.557617188 1450 l 1,1,-1
 184.158203125 1450 l 1,2,-1
 202.70703125 1556 l 1,3,-1
 526.70703125 1556 l 1,4,-1
 407.393554688 874 l 1,5,6
 472.184570312 982 472.184570312 982 555.15625 1037 c 0,7,8
 638.135742188 1092 638.135742188 1092 735.3359375 1092 c 0,9,10
 893.736328125 1092 893.736328125 1092 950.759765625 991 c 0,11,12
 985.194335938 930.030273438 985.194335938 930.030273438 985.194335938 827.870117188 c 0,13,14
 985.194335938 760.809570312 985.194335938 760.809570312 970.352539062 676 c 2,15,-1
 870.641601562 106 l 1,16,-1
 1018.2421875 106 l 1,17,-1
 999.693359375 0 l 1,18,-1
 685.592773438 0 l 1,19,-1
 793.709960938 618 l 2,20,21
 811.791015625 721.360351562 811.791015625 721.360351562 811.791015625 790.030273438 c 0,22,23
 811.791015625 850.900390625 811.791015625 850.900390625 797.580078125 884.5 c 0,24,25
 767.33984375 956 767.33984375 956 657.540039062 956 c 0,26,27
 542.33984375 956 542.33984375 956 465.767578125 863 c 0,28,29
 389.205078125 770 389.205078125 770 358.065429688 592 c 2,30,-1
 254.493164062 0 l 1,31,-1
 88.892578125 0 l 1,0,-1
EndSplineSet
EndChar
StartChar: i
Encoding: 105 105 105
Width: 589
Flags: W
AnchorPoint: "below" 163.381 0 basechar 0
AnchorPoint: "above" 430.175 1524 basechar 0
LayerCount: 2
Back
Fore
SplineSet
290.978515625 1393 m 0,0,1
 299.025390625 1439 299.025390625 1439 335.124023438 1473 c 128,-1,2
 371.22265625 1507 371.22265625 1507 413.5234375 1507 c 0,3,4
 454.922851562 1507 454.922851562 1507 479.124023438 1473 c 0,5,6
 497.286132812 1447.48046875 497.286132812 1447.48046875 497.286132812 1415.20996094 c 0,7,8
 497.286132812 1404.48046875 497.286132812 1404.48046875 495.279296875 1393 c 0,9,10
 487.052734375 1346 487.052734375 1346 451.583984375 1313 c 128,-1,11
 416.106445312 1280 416.106445312 1280 373.805664062 1280 c 128,-1,12
 331.505859375 1280 331.505859375 1280 307.133789062 1313 c 0,13,14
 288.900390625 1337.6796875 288.900390625 1337.6796875 288.900390625 1370.1796875 c 0,15,16
 288.900390625 1381.13964844 288.900390625 1381.13964844 290.978515625 1393 c 0,0,1
277.326171875 106 m 1,17,-1
 433.92578125 106 l 1,18,-1
 415.376953125 0 l 1,19,-1
 93.1767578125 0 l 1,20,-1
 260.423828125 956 l 1,21,-1
 102.024414062 956 l 1,22,-1
 120.744140625 1063 l 1,23,-1
 444.744140625 1063 l 1,24,-1
 277.326171875 106 l 1,17,-1
EndSplineSet
Substitution2: "Single Substitution - Dotless Form" dotlessi
EndChar
StartChar: j
Encoding: 106 106 106
Width: 571
Flags: W
AnchorPoint: "below" -61.0439 -430 basechar 0
AnchorPoint: "above" 484.175 1524 basechar 0
LayerCount: 2
Back
Fore
SplineSet
336.176757812 1393 m 0,0,1
 344.22265625 1439 344.22265625 1439 380.322265625 1473 c 0,2,3
 416.420898438 1507 416.420898438 1507 458.720703125 1507 c 0,4,5
 500.12109375 1507 500.12109375 1507 524.322265625 1473 c 0,6,7
 542.484375 1447.48046875 542.484375 1447.48046875 542.484375 1415.20996094 c 0,8,9
 542.484375 1404.48046875 542.484375 1404.48046875 540.4765625 1393 c 0,10,11
 532.250976562 1346 532.250976562 1346 497.232421875 1313 c 0,12,13
 462.204101562 1280 462.204101562 1280 419.00390625 1280 c 0,14,15
 376.704101562 1280 376.704101562 1280 352.33203125 1313 c 0,16,17
 334.09765625 1337.6796875 334.09765625 1337.6796875 334.09765625 1370.1796875 c 0,18,19
 334.09765625 1381.15039062 334.09765625 1381.15039062 336.176757812 1393 c 0,0,1
300.221679688 956 m 1,20,-1
 143.622070312 956 l 1,21,-1
 162.341796875 1063 l 1,22,-1
 484.541992188 1063 l 1,23,-1
 280.385742188 -104 l 2,24,25
 251.694335938 -268 251.694335938 -268 147.590820312 -361.5 c 0,26,27
 43.478515625 -455 43.478515625 -455 -110.420898438 -455 c 0,28,29
 -175.220703125 -455 -175.220703125 -455 -231.282226562 -438.5 c 0,30,31
 -287.342773438 -422 -287.342773438 -422 -337.374023438 -389 c 1,32,-1
 -299.060546875 -170 l 1,33,-1
 -213.560546875 -170 l 1,34,35
 -216.251953125 -194.650390625 -216.251953125 -194.650390625 -216.251953125 -215.9296875 c 0,36,37
 -216.251953125 -277.549804688 -216.251953125 -277.549804688 -193.6796875 -311 c 0,38,39
 -163.295898438 -356 -163.295898438 -356 -89.49609375 -356 c 0,40,41
 -7.595703125 -356 -7.595703125 -356 42.30859375 -294.5 c 0,42,43
 92.22265625 -233 92.22265625 -233 114.786132812 -104 c 2,44,-1
 300.221679688 956 l 1,20,-1
EndSplineSet
Substitution2: "Single Substitution - Dotless Form" dotlessj
EndChar
StartChar: k
Encoding: 107 107 107
Width: 1116
Flags: W
AnchorPoint: "above" 427.806 1536 basechar 0
AnchorPoint: "below" 456.095 0 basechar 0
LayerCount: 2
Back
Fore
SplineSet
608.255859375 664 m 1,0,-1
 874.2421875 106 l 1,1,-1
 1011.94238281 106 l 1,2,-1
 993.392578125 0 l 1,3,-1
 727.892578125 0 l 1,4,-1
 467.387695312 543 l 1,5,-1
 313.272460938 408 l 1,6,-1
 241.892578125 0 l 1,7,-1
 76.29296875 0 l 1,8,-1
 329.958007812 1450 l 1,9,-1
 170.658203125 1450 l 1,10,-1
 189.20703125 1556 l 1,11,-1
 514.107421875 1556 l 1,12,-1
 336.887695312 543 l 1,13,-1
 812.33984375 956 l 1,14,-1
 674.639648438 956 l 1,15,-1
 693.360351562 1063 l 1,16,-1
 962.459960938 1063 l 1,17,-1
 943.740234375 956 l 1,18,-1
 608.255859375 664 l 1,0,-1
EndSplineSet
EndChar
StartChar: l
Encoding: 108 108 108
Width: 589
Flags: W
AnchorPoint: "above" 427.806 1536 basechar 0
AnchorPoint: "below" 159.095 0 basechar 0
LayerCount: 2
Back
Fore
SplineSet
260.442382812 106 m 1,0,-1
 417.041992188 106 l 1,1,-1
 398.493164062 0 l 1,2,-1
 76.29296875 0 l 1,3,-1
 329.958007812 1450 l 1,4,-1
 170.658203125 1450 l 1,5,-1
 189.20703125 1556 l 1,6,-1
 514.107421875 1556 l 1,7,-1
 260.442382812 106 l 1,0,-1
EndSplineSet
EndChar
StartChar: m
Encoding: 109 109 109
Width: 1747
Flags: W
AnchorPoint: "below" 790.981 0 basechar 0
AnchorPoint: "above" 982.017 1092 basechar 0
LayerCount: 2
Back
Fore
SplineSet
1009.13378906 856 m 1,0,1
 1077.29980469 973 1077.29980469 973 1161.96289062 1032.5 c 0,2,3
 1246.6171875 1092 1246.6171875 1092 1345.6171875 1092 c 0,4,5
 1495.91699219 1092 1495.91699219 1092 1551.609375 988.5 c 0,6,7
 1585.23339844 926.01953125 1585.23339844 926.01953125 1585.23339844 825.08984375 c 0,8,9
 1585.23339844 758.830078125 1585.23339844 758.830078125 1570.74316406 676 c 2,10,-1
 1471.0234375 106 l 1,11,-1
 1620.42285156 106 l 1,12,-1
 1601.8828125 0 l 1,13,-1
 1286.8828125 0 l 1,14,-1
 1401.47070312 655 l 2,15,16
 1415.10644531 732.9296875 1415.10644531 732.9296875 1415.10644531 789.370117188 c 0,17,18
 1415.10644531 850.990234375 1415.10644531 850.990234375 1398.8515625 887 c 0,19,20
 1367.73046875 956 1367.73046875 956 1267.83007812 956 c 0,21,22
 1157.12988281 956 1157.12988281 956 1082.80761719 863 c 128,-1,23
 1008.48632812 770 1008.48632812 770 977.345703125 592 c 2,24,-1
 873.783203125 0 l 1,25,-1
 708.182617188 0 l 1,26,-1
 823.995117188 662 l 2,27,28
 837.063476562 736.700195312 837.063476562 736.700195312 837.063476562 791.200195312 c 0,29,30
 837.063476562 852.709960938 837.063476562 852.709960938 820.421875 888.5 c 0,31,32
 789.030273438 956 789.030273438 956 689.129882812 956 c 0,33,34
 578.4296875 956 578.4296875 956 504.108398438 863 c 0,35,36
 429.786132812 770 429.786132812 770 398.646484375 592 c 2,37,-1
 295.083007812 0 l 1,38,-1
 129.483398438 0 l 1,39,-1
 297.072265625 958 l 1,40,-1
 138.680664062 958 l 1,41,-1
 157.041015625 1063 l 1,42,-1
 481.041015625 1063 l 1,43,-1
 447.984375 874 l 1,44,45
 512.423828125 980 512.423828125 980 593.325195312 1036 c 0,46,47
 674.216796875 1092 674.216796875 1092 764.216796875 1092 c 0,48,49
 875.817382812 1092 875.817382812 1092 939.76171875 1030.5 c 0,50,51
 1003.69824219 969 1003.69824219 969 1009.13378906 856 c 1,0,1
EndSplineSet
EndChar
StartChar: n
Encoding: 110 110 110
Width: 1187
Flags: W
AnchorPoint: "below" 510.182 0 basechar 0
AnchorPoint: "above" 642.6 1092 basechar 0
LayerCount: 2
Back
Fore
SplineSet
129.483398438 0 m 1,0,-1
 296.73046875 956 l 1,1,-1
 138.330078125 956 l 1,2,-1
 157.041015625 1063 l 1,3,-1
 481.041015625 1063 l 1,4,-1
 447.984375 874 l 1,5,6
 512.775390625 982 512.775390625 982 595.74609375 1037 c 128,-1,7
 678.716796875 1092 678.716796875 1092 775.916992188 1092 c 0,8,9
 934.317382812 1092 934.317382812 1092 991.349609375 991 c 0,10,11
 1025.78417969 930.02734375 1025.78417969 930.02734375 1025.78417969 827.87109375 c 0,12,13
 1025.78417969 760.80859375 1025.78417969 760.80859375 1010.94335938 676 c 2,14,-1
 911.22265625 106 l 1,15,-1
 1058.82324219 106 l 1,16,-1
 1040.28320312 0 l 1,17,-1
 726.182617188 0 l 1,18,-1
 834.299804688 618 l 2,19,20
 852.302734375 720.916992188 852.302734375 720.916992188 852.302734375 789.711914062 c 0,21,22
 852.302734375 851.263671875 852.302734375 851.263671875 837.890625 885.5 c 0,23,24
 807.372070312 958 807.372070312 958 698.471679688 958 c 0,25,26
 583.272460938 958 583.272460938 958 506.619140625 864.5 c 0,27,28
 429.965820312 771 429.965820312 771 398.646484375 592 c 2,29,-1
 295.083007812 0 l 1,30,-1
 129.483398438 0 l 1,0,-1
EndSplineSet
EndChar
StartChar: o
Encoding: 111 111 111
Width: 1109
Flags: W
AnchorPoint: "below" 461.418 0 basechar 0
AnchorPoint: "above" 651.6 1092 basechar 0
LayerCount: 2
Back
Fore
SplineSet
473.661132812 70 m 0,0,1
 606.861328125 70 606.861328125 70 695.286132812 187 c 128,-1,2
 783.702148438 304 783.702148438 304 823.58984375 532 c 0,3,4
 841.78125 635.982421875 841.78125 635.982421875 841.78125 716.7734375 c 0,5,6
 841.78125 813.130859375 841.78125 813.130859375 815.904296875 876.5 c 0,7,8
 768.338867188 993 768.338867188 993 635.138671875 993 c 128,-1,9
 501.939453125 993 501.939453125 993 413.603515625 876.5 c 128,-1,10
 325.278320312 760 325.278320312 760 285.389648438 532 c 0,11,12
 267.2734375 428.444335938 267.2734375 428.444335938 267.2734375 347.787109375 c 0,13,14
 267.2734375 250.860351562 267.2734375 250.860351562 293.435546875 187 c 0,15,16
 341.361328125 70 341.361328125 70 473.661132812 70 c 0,0,1
456.344726562 -29 m 0,17,18
 247.544921875 -29 247.544921875 -29 147.500976562 124.5 c 0,19,20
 78.220703125 230.788085938 78.220703125 230.788085938 78.220703125 385.262695312 c 0,21,22
 78.220703125 453.877929688 78.220703125 453.877929688 91.8896484375 532 c 0,23,24
 136.323242188 786 136.323242188 786 289.5390625 939 c 128,-1,25
 442.754882812 1092 442.754882812 1092 652.455078125 1092 c 128,-1,26
 862.155273438 1092 862.155273438 1092 961.838867188 939 c 0,27,28
 1030.78808594 833.171875 1030.78808594 833.171875 1030.78808594 679.022460938 c 0,29,30
 1030.78808594 610.310546875 1030.78808594 610.310546875 1017.08984375 532 c 0,31,32
 972.6484375 278 972.6484375 278 819.350585938 124.5 c 128,-1,33
 666.044921875 -29 666.044921875 -29 456.344726562 -29 c 0,17,18
EndSplineSet
EndChar
StartChar: p
Encoding: 112 112 112
Width: 1179
Flags: W
AnchorPoint: "above" 770.882 1092 basechar 0
AnchorPoint: "below" 161.719 -430 basechar 0
LayerCount: 2
Back
Fore
SplineSet
421.911132812 584 m 2,0,-1
 403.541992188 479 l 2,1,2
 389.809570312 400.5 389.809570312 400.5 389.809570312 337.295898438 c 0,3,4
 389.809570312 245.91015625 389.809570312 245.91015625 418.517578125 186.5 c 0,5,6
 467.090820312 86 467.090820312 86 593.090820312 86 c 0,7,8
 719.991210938 86 719.991210938 86 805.004882812 199 c 0,9,10
 890.028320312 312 890.028320312 312 928.51171875 532 c 0,11,12
 946.2421875 633.3359375 946.2421875 633.3359375 946.2421875 711.75390625 c 0,13,14
 946.2421875 804.356445312 946.2421875 804.356445312 921.518554688 865 c 0,15,16
 875.862304688 977 875.862304688 977 748.961914062 977 c 0,17,18
 622.961914062 977 622.961914062 977 539.14453125 876 c 0,19,20
 455.328125 775 455.328125 775 421.911132812 584 c 2,0,-1
321.389648438 956 m 1,21,-1
 162.08984375 956 l 1,22,-1
 180.809570312 1063 l 1,23,-1
 505.709960938 1063 l 1,24,-1
 476.666992188 897 l 1,25,26
 542.762695312 997 542.762695312 997 626.219726562 1044.5 c 0,27,28
 709.676757812 1092 709.676757812 1092 820.376953125 1092 c 0,29,30
 996.77734375 1092 996.77734375 1092 1081.26855469 937 c 0,31,32
 1136.93359375 834.874023438 1136.93359375 834.874023438 1136.93359375 691.506835938 c 0,33,34
 1136.93359375 617.28125 1136.93359375 617.28125 1122.01171875 532 c 0,35,36
 1078.28125 282 1078.28125 282 939.473632812 126.5 c 128,-1,37
 800.666992188 -29 800.666992188 -29 624.266601562 -29 c 0,38,39
 513.567382812 -29 513.567382812 -29 446.733398438 18.5 c 0,40,41
 379.889648438 66 379.889648438 66 348.786132812 166 c 1,42,-1
 245.22265625 -426 l 1,43,-1
 79.623046875 -426 l 1,44,-1
 321.389648438 956 l 1,21,-1
EndSplineSet
EndChar
StartChar: q
Encoding: 113 113 113
Width: 1179
Flags: W
AnchorPoint: "below" 751.219 -430 basechar 0
AnchorPoint: "above" 644.882 1092 basechar 0
LayerCount: 2
Back
Fore
SplineSet
773.099609375 166 m 1,0,1
 711 66 711 66 635.400390625 18 c 0,2,3
 559.799804688 -29 559.799804688 -29 459.900390625 -29 c 0,4,5
 301.5 -29 301.5 -29 221.400390625 90 c 0,6,7
 171 165 171 165 165.599609375 269 c 0,8,9
 162 330 162 330 174.599609375 402 c 0,10,11
 236.700195312 755 236.700195312 755 457.200195312 937 c 0,12,13
 645.299804688 1091 645.299804688 1091 865.799804688 1092 c 0,14,15
 1040.40039062 1093 1040.40039062 1093 1095.29980469 1063 c 1,16,-1
 853.200195312 -320 l 1,17,-1
 1012.5 -320 l 1,18,-1
 993.599609375 -426 l 1,19,-1
 668.700195312 -426 l 1,20,-1
 773.099609375 166 l 1,0,1
839.700195312 990 m 0,21,22
 666.900390625 990 666.900390625 990 532.799804688 840 c 0,23,24
 399.599609375 689 399.599609375 689 351 415 c 0,25,26
 337.5 334 337.5 334 341.099609375 273 c 0,27,28
 344.700195312 211 344.700195312 211 367.200195312 169 c 0,29,30
 411.299804688 86 411.299804688 86 526.5 86 c 0,31,32
 639.900390625 86 639.900390625 86 716.849609375 186.5 c 128,-1,33
 793.799804688 287 793.799804688 287 827.099609375 479 c 2,34,-1
 911.700195312 961 l 9,35,36
 912.599609375 990 912.599609375 990 839.700195312 990 c 0,21,22
EndSplineSet
EndChar
StartChar: r
Encoding: 114 114 114
Width: 881
Flags: W
AnchorPoint: "below" 199.682 0 basechar 0
AnchorPoint: "above" 604.8 1092 basechar 0
LayerCount: 2
Back
Fore
SplineSet
971.891601562 1065 m 1,0,-1
 925.362304688 799 l 1,1,-1
 829.961914062 799 l 1,2,3
 832.270507812 818.580078125 832.270507812 818.580078125 832.270507812 835.702148438 c 0,4,5
 832.270507812 887.666015625 832.270507812 887.666015625 811.0078125 917 c 0,6,7
 782.73046875 956 782.73046875 956 715.23046875 956 c 0,8,9
 592.830078125 956 592.830078125 956 511.127929688 862 c 0,10,11
 429.434570312 768 429.434570312 768 398.646484375 592 c 2,12,-1
 295.083007812 0 l 1,13,-1
 129.483398438 0 l 1,14,-1
 297.072265625 958 l 1,15,-1
 138.671875 958 l 1,16,-1
 157.041015625 1063 l 1,17,-1
 481.041015625 1063 l 1,18,-1
 447.984375 874 l 1,19,20
 515.997070312 985 515.997070312 985 601.857421875 1038.5 c 0,21,22
 687.716796875 1092 687.716796875 1092 797.516601562 1092 c 0,23,24
 838.016601562 1092 838.016601562 1092 881.342773438 1085 c 128,-1,25
 924.668945312 1078 924.668945312 1078 971.891601562 1065 c 1,0,-1
EndSplineSet
EndChar
StartChar: s
Encoding: 115 115 115
Width: 945
Flags: W
AnchorPoint: "below" 380.418 0 basechar 0
AnchorPoint: "above" 570.6 1092 basechar 0
LayerCount: 2
Back
Fore
SplineSet
63.900390625 307 m 1,0,-1
 159.299804688 307 l 1,1,2
 155.700195312 278 155.700195312 278 155.700195312 252 c 0,3,4
 155.700195312 70 155.700195312 70 378 70 c 0,5,6
 601.200195312 70 601.200195312 70 633.599609375 252 c 0,7,8
 636.299804688 270 636.299804688 270 636.299804688 302 c 0,9,10
 636.299804688 333 636.299804688 333 605.700195312 370.5 c 128,-1,11
 575.099609375 408 575.099609375 408 446.400390625 457 c 2,12,-1
 333.900390625 502 l 2,13,14
 218.700195312 546 218.700195312 546 181.349609375 602.5 c 128,-1,15
 144 659 144 659 144 724 c 0,16,17
 144 750 144 750 148.5 780 c 0,18,19
 174.599609375 926 174.599609375 926 285.299804688 1009 c 128,-1,20
 396 1092 396 1092 556.200195312 1092 c 0,21,22
 715.5 1092 715.5 1092 882.900390625 1006 c 1,23,-1
 842.400390625 774 l 1,24,-1
 747 774 l 1,25,26
 750.599609375 797 750.599609375 797 750.599609375 817 c 0,27,28
 750.599609375 890 750.599609375 890 705.150390625 941.5 c 128,-1,29
 659.700195312 993 659.700195312 993 554.400390625 993 c 0,30,31
 342.900390625 993 342.900390625 993 314.099609375 829 c 0,32,33
 310.5 812 310.5 812 310.5 782 c 0,34,35
 310.5 751 310.5 751 339.75 716 c 128,-1,36
 369 681 369 681 483.299804688 639 c 2,37,-1
 606.599609375 594 l 2,38,39
 734.400390625 547 734.400390625 547 782.099609375 476 c 0,40,41
 815.400390625 426 815.400390625 426 815.400390625 377 c 0,42,43
 815.400390625 167 815.400390625 167 664.200195312 58 c 0,44,45
 545.400390625 -29 545.400390625 -29 363.599609375 -29 c 0,46,47
 181.799804688 -29 181.799804688 -29 20.7001953125 59 c 1,48,-1
 63.900390625 307 l 1,0,-1
EndSplineSet
EndChar
StartChar: t
Encoding: 116 116 116
Width: 740
Flags: W
AnchorPoint: "below" 343.29 0 basechar 0
AnchorPoint: "above" 431.101 1536 basechar 0
LayerCount: 2
Back
Fore
SplineSet
246.833984375 956 m 1,0,-1
 101.034179688 956 l 1,1,-1
 119.75390625 1063 l 1,2,-1
 265.553710938 1063 l 1,3,-1
 323.280273438 1393 l 1,4,-1
 489.780273438 1393 l 1,5,-1
 432.053710938 1063 l 1,6,-1
 743.454101562 1063 l 1,7,-1
 724.734375 956 l 1,8,-1
 413.333984375 956 l 1,9,-1
 295.245117188 281 l 2,10,11
 281.4296875 202.01953125 281.4296875 202.01953125 281.4296875 156.240234375 c 0,12,13
 281.4296875 123.76953125 281.4296875 123.76953125 288.38671875 108 c 0,14,15
 305.135742188 70 305.135742188 70 368.135742188 70 c 0,16,17
 432.935546875 70 432.935546875 70 470.0703125 112.5 c 0,18,19
 507.204101562 155 507.204101562 155 525.626953125 250 c 1,20,-1
 650.7265625 250 l 1,21,22
 618.15625 105 618.15625 105 542.538085938 38 c 0,23,24
 466.919921875 -29 466.919921875 -29 336.419921875 -29 c 0,25,26
 193.3203125 -29 193.3203125 -29 146.25 41.5 c 0,27,28
 117.341796875 84.7998046875 117.341796875 84.7998046875 117.341796875 165.259765625 c 0,29,30
 117.341796875 215.799804688 117.341796875 215.799804688 128.745117188 281 c 2,31,-1
 246.833984375 956 l 1,0,-1
EndSplineSet
EndChar
StartChar: u
Encoding: 117 117 117
Width: 1187
Flags: W
AnchorPoint: "below" 444.155 0 basechar 0
AnchorPoint: "above" 622.8 1092 basechar 0
LayerCount: 2
Back
Fore
SplineSet
892.016601562 1063 m 1,0,-1
 1057.6171875 1063 l 1,1,-1
 890.19921875 106 l 1,2,-1
 1046.79882812 106 l 1,3,-1
 1028.25878906 0 l 1,4,-1
 706.05859375 0 l 1,5,-1
 738.9453125 188 l 1,6,7
 674.49609375 82 674.49609375 82 591.893554688 26.5 c 0,8,9
 509.283203125 -29 509.283203125 -29 412.983398438 -29 c 0,10,11
 253.682617188 -29 253.682617188 -29 196.110351562 71.5 c 0,12,13
 161.297851562 132.280273438 161.297851562 132.280273438 161.297851562 234.950195312 c 0,14,15
 161.297851562 302.040039062 161.297851562 302.040039062 176.157226562 387 c 2,16,-1
 275.697265625 956 l 1,17,-1
 126.296875 956 l 1,18,-1
 145.016601562 1063 l 1,19,-1
 460.916992188 1063 l 1,20,-1
 352.62890625 444 l 2,21,22
 334.65625 341.280273438 334.65625 341.280273438 334.65625 272.759765625 c 0,23,24
 334.65625 211.879882812 334.65625 211.879882812 348.848632812 178 c 0,25,26
 378.999023438 106 378.999023438 106 488.798828125 106 c 0,27,28
 603.999023438 106 603.999023438 106 680.7421875 200 c 128,-1,29
 757.485351562 294 757.485351562 294 788.8046875 473 c 2,30,-1
 892.016601562 1063 l 1,0,-1
EndSplineSet
EndChar
StartChar: v
Encoding: 118 118 118
Width: 1041
Flags: W
AnchorPoint: "below" 427.219 0 basechar 0
AnchorPoint: "above" 618.255 1092 basechar 0
LayerCount: 2
Back
Fore
SplineSet
484.200195312 0 m 1,0,-1
 362.700195312 0 l 1,1,-1
 178.200195312 956 l 1,2,-1
 69.2998046875 956 l 1,3,-1
 87.2998046875 1063 l 1,4,-1
 334.799804688 1063 l 1,5,-1
 496.799804688 225 l 1,6,7
 600.299804688 325 600.299804688 325 669.599609375 452 c 0,8,9
 813.599609375 716 813.599609375 716 864.900390625 956 c 1,10,-1
 755.099609375 956 l 1,11,-1
 774 1063 l 1,12,-1
 1021.5 1063 l 1,13,14
 923.400390625 651 923.400390625 651 799.200195312 420 c 0,15,16
 691.200195312 220 691.200195312 220 484.200195312 0 c 1,0,-1
EndSplineSet
EndChar
StartChar: w
Encoding: 119 119 119
Width: 1577
Flags: W
AnchorPoint: "above" 889.155 1092 basechar 0
AnchorPoint: "below" 698.118 0 basechar 0
LayerCount: 2
Back
Fore
SplineSet
1077.28222656 233 m 1,0,1
 1197.34179688 377.487304688 1197.34179688 377.487304688 1224 430 c 0,2,3
 1323 630 1323 630 1419.75878906 956 c 1,4,-1
 1280.98828125 955.010742188 l 1,5,-1
 1299.87890625 1063 l 1,6,-1
 1540.17871094 1063 l 1,7,-1
 1521.28808594 955.01953125 l 1,8,-1
 1520.0546875 954.771484375 l 1,9,10
 1428.53417969 584.310546875 1428.53417969 584.310546875 1341 405 c 0,11,12
 1212.22753906 149.998046875 1212.22753906 149.998046875 1071 0 c 1,13,-1
 933.021484375 0 l 1,14,-1
 835.396484375 795 l 1,15,-1
 459.620117188 0 l 1,16,-1
 327.3203125 0 l 1,17,-1
 211.05859375 956 l 1,18,-1
 103.610351562 953.994140625 l 1,19,-1
 122.678710938 1063 l 1,20,-1
 369.28125 1063 l 1,21,-1
 469.783203125 233 l 1,22,-1
 861.578125 1063 l 1,23,-1
 977.678710938 1063 l 1,24,-1
 1077.28222656 233 l 1,0,1
EndSplineSet
EndChar
StartChar: x
Encoding: 120 120 120
Width: 1039
Flags: W
AnchorPoint: "above" 618.255 1092 basechar 0
AnchorPoint: "below" 427.219 0 basechar 0
LayerCount: 2
Back
Fore
SplineSet
117.62109375 0 m 1,0,-1
 5.12109375 0 l 1,1,-1
 427.337890625 510 l 1,2,-1
 214.659179688 956 l 1,3,-1
 96.7587890625 956 l 1,4,-1
 115.478515625 1063 l 1,5,-1
 358.478515625 1063 l 1,6,-1
 556.956054688 649 l 1,7,-1
 900.279296875 1063 l 1,8,-1
 1012.77929688 1063 l 1,9,-1
 598.608398438 563 l 1,10,-1
 817.4609375 106 l 1,11,-1
 942.560546875 106 l 1,12,-1
 924.021484375 0 l 1,13,-1
 672.920898438 0 l 1,14,-1
 469.889648438 424 l 1,15,-1
 117.62109375 0 l 1,0,-1
EndSplineSet
EndChar
StartChar: y
Encoding: 121 121 121
Width: 1041
Flags: W
AnchorPoint: "below" 386.393 -430 basechar 0
AnchorPoint: "above" 604.053 1092 basechar 0
LayerCount: 2
Back
Fore
SplineSet
1060.20019531 1054 m 1,0,1
 971.297851562 482.483398438 971.297851562 482.483398438 814.5 180 c 0,2,3
 584.708984375 -263.297851562 584.708984375 -263.297851562 400.5 -396 c 0,4,5
 318.599609375 -455 318.599609375 -455 102.599609375 -455 c 0,6,7
 60.2998046875 -455 60.2998046875 -455 17.5498046875 -447 c 128,-1,8
 -25.2001953125 -439 -25.2001953125 -439 -68.400390625 -424 c 1,9,-1
 -32.400390625 -221 l 1,10,-1
 52.2001953125 -221 l 1,11,12
 50.400390625 -237 50.400390625 -237 50.400390625 -252 c 0,13,14
 50.400390625 -293.51953125 50.400390625 -293.51953125 66.599609375 -318 c 0,15,16
 89.099609375 -352 89.099609375 -352 147.599609375 -352 c 0,17,18
 306 -352 306 -352 443.700195312 -199 c 1,19,-1
 217.799804688 956 l 1,20,-1
 108.900390625 956 l 1,21,-1
 127.799804688 1063 l 1,22,-1
 375.299804688 1063 l 1,23,-1
 587.700195312 8 l 1,24,25
 732.599609375 249 732.599609375 249 767.700195312 348 c 0,26,27
 881.099609375 659 881.099609375 659 903.599609375 947 c 1,28,-1
 794.700195312 947 l 1,29,-1
 813.599609375 1054 l 1,30,-1
 1060.20019531 1054 l 1,0,1
EndSplineSet
EndChar
StartChar: z
Encoding: 122 122 122
Width: 971
Flags: W
AnchorPoint: "above" 574.155 1092 basechar 0
AnchorPoint: "below" 383.118 0 basechar 0
LayerCount: 2
Back
Fore
SplineSet
733.40234375 975 m 0,0,1
 830.895507812 975 830.895507812 975 925.48828125 1063 c 1,2,-1
 979.48828125 1063 l 1,3,-1
 964.440429688 977 l 1,4,-1
 310.484375 219.331054688 l 1,5,6
 319.260742188 215.833984375 319.260742188 215.833984375 345.609375 206.9921875 c 0,7,8
 376.325195312 195.8046875 376.325195312 195.8046875 407.099609375 174.3984375 c 2,9,-1
 450.543945312 144 l 2,10,11
 535.827148438 87 535.827148438 87 596.415039062 87 c 0,12,13
 714.431640625 87 714.431640625 87 853.020507812 237 c 1,14,-1
 831.852539062 116 l 1,15,16
 677.3359375 -52 677.3359375 -52 560.76171875 -52 c 0,17,18
 489.829101562 -50.447265625 489.829101562 -50.447265625 389.796875 18.7763671875 c 128,-1,19
 289.764648438 88 289.764648438 88 226.911132812 88 c 0,20,21
 129.424804688 88 129.424804688 88 34.8271484375 0 c 1,22,-1
 -19.1728515625 0 l 1,23,-1
 -4.126953125 86 l 1,24,-1
 650.275390625 843.489257812 l 1,25,26
 641.22265625 847.134765625 641.22265625 847.134765625 614.7890625 855.9921875 c 0,27,28
 583.990234375 867.190429688 583.990234375 867.190429688 553.213867188 888.599609375 c 2,29,-1
 509.768554688 919 l 2,30,31
 424.485351562 976 424.485351562 976 363.897460938 976 c 0,32,33
 245.876953125 976 245.876953125 976 107.288085938 826 c 1,34,-1
 128.456054688 947 l 1,35,36
 282.971679688 1115 282.971679688 1115 399.55078125 1115 c 0,37,38
 470.462890625 1113.45019531 470.462890625 1113.45019531 570.505859375 1044.21972656 c 128,-1,39
 670.548828125 975 670.548828125 975 733.40234375 975 c 0,0,1
EndSplineSet
EndChar
StartChar: braceleft
Encoding: 123 123 123
Width: 1172
Flags: W
LayerCount: 2
Back
Fore
SplineSet
795.348632812 -229 m 1,0,-1
 776.979492188 -334 l 1,1,-1
 721.1796875 -334 l 2,2,3
 497.080078125 -334 497.080078125 -334 433.974609375 -260 c 128,-1,4
 370.87109375 -186 370.87109375 -186 409.533203125 35 c 2,5,-1
 454.668945312 293 l 2,6,7
 480.909179688 443 480.909179688 443 442.456054688 501 c 128,-1,8
 404.00390625 559 404.00390625 559 276.204101562 559 c 2,9,-1
 221.303710938 559 l 1,10,-1
 239.671875 664 l 1,11,-1
 294.572265625 664 l 2,12,13
 422.372070312 664 422.372070312 664 481.118164062 722 c 128,-1,14
 539.866210938 780 539.866210938 780 566.106445312 930 c 2,15,-1
 611.241210938 1188 l 2,16,17
 649.903320312 1409 649.903320312 1409 738.811523438 1482.5 c 128,-1,18
 827.719726562 1556 827.719726562 1556 1051.82128906 1556 c 2,19,-1
 1107.62109375 1556 l 1,20,-1
 1089.42285156 1452 l 1,21,-1
 1028.22265625 1452 l 2,22,23
 901.323242188 1452 901.323242188 1452 854.928710938 1408 c 128,-1,24
 808.53125 1364 808.53125 1364 783.865234375 1223 c 2,25,-1
 733.65625 936 l 2,26,27
 706.015625 778 706.015625 778 649.119140625 710 c 128,-1,28
 592.22265625 642 592.22265625 642 469.974609375 612 c 1,29,30
 582.826171875 578 582.826171875 578 615.206054688 511 c 128,-1,31
 647.583984375 444 647.583984375 444 620.119140625 287 c 2,32,-1
 569.91015625 0 l 2,33,34
 545.243164062 -141 545.243164062 -141 576.24609375 -185 c 128,-1,35
 607.249023438 -229 607.249023438 -229 734.1484375 -229 c 2,36,-1
 795.348632812 -229 l 1,0,-1
EndSplineSet
EndChar
StartChar: bar
Encoding: 124 124 124
Width: 621
Flags: W
LayerCount: 2
Back
Fore
SplineSet
383.400390625 1565 m 1,0,-1
 383.400390625 -483 l 1,1,-1
 237.599609375 -483 l 1,2,-1
 237.599609375 1565 l 1,3,-1
 383.400390625 1565 l 1,0,-1
EndSplineSet
EndChar
StartChar: braceright
Encoding: 125 125 125
Width: 1172
Flags: W
LayerCount: 2
Back
Fore
SplineSet
83.4482421875 -229 m 1,0,-1
 146.44921875 -229 l 2,1,2
 272.44921875 -229 272.44921875 -229 318.30859375 -185.5 c 128,-1,3
 364.168945312 -142 364.168945312 -142 389.009765625 0 c 2,4,-1
 439.21875 287 l 2,5,6
 466.684570312 444 466.684570312 444 522.505859375 511 c 128,-1,7
 578.326171875 578 578.326171875 578 702.174804688 612 c 1,8,9
 590.422851562 642 590.422851562 642 557.768554688 710 c 128,-1,10
 525.116210938 778 525.116210938 778 552.756835938 936 c 2,11,-1
 602.96484375 1223 l 2,12,13
 627.805664062 1365 627.805664062 1365 597.166992188 1408.5 c 128,-1,14
 566.526367188 1452 566.526367188 1452 440.526367188 1452 c 2,15,-1
 377.526367188 1452 l 1,16,-1
 395.719726562 1556 l 1,17,-1
 452.419921875 1556 l 2,18,19
 676.520507812 1556 676.520507812 1556 738.811523438 1482.5 c 128,-1,20
 801.103515625 1409 801.103515625 1409 762.44140625 1188 c 2,21,-1
 717.306640625 930 l 2,22,23
 691.065429688 780 691.065429688 780 729.518554688 722 c 128,-1,24
 767.971679688 664 767.971679688 664 895.771484375 664 c 2,25,-1
 951.5703125 664 l 1,26,-1
 933.201171875 559 l 1,27,-1
 877.403320312 559 l 2,28,29
 749.603515625 559 749.603515625 559 690.856445312 501 c 128,-1,30
 632.109375 443 632.109375 443 605.869140625 293 c 2,31,-1
 560.733398438 35 l 2,32,33
 522.071289062 -186 522.071289062 -186 433.974609375 -260 c 128,-1,34
 345.879882812 -334 345.879882812 -334 121.780273438 -334 c 2,35,-1
 65.0791015625 -334 l 1,36,-1
 83.4482421875 -229 l 1,0,-1
EndSplineSet
EndChar
StartChar: asciitilde
Encoding: 126 126 126
Width: 1544
Flags: W
LayerCount: 2
Back
Fore
SplineSet
1349.09960938 807 m 1,0,-1
 1349.09960938 659 l 1,1,2
 1259.09960938 571 1259.09960938 571 1178.09960938 529 c 128,-1,3
 1097.09960938 487 1097.09960938 487 1013.40039062 487 c 0,4,5
 927 487 927 487 770.400390625 553 c 2,6,-1
 761.400390625 557 l 2,7,8
 751.5 561 751.5 561 731.700195312 570 c 0,9,10
 599.400390625 627 599.400390625 627 513.900390625 627 c 0,11,12
 431.099609375 627 431.099609375 627 353.25 590.5 c 128,-1,13
 275.400390625 554 275.400390625 554 195.299804688 477 c 1,14,-1
 195.299804688 629 l 1,15,16
 285.299804688 716 285.299804688 716 365.849609375 756.5 c 128,-1,17
 446.400390625 797 446.400390625 797 531 797 c 0,18,19
 617.400390625 797 617.400390625 797 774 731 c 2,20,-1
 783 727 l 2,21,22
 792.900390625 723 792.900390625 723 810.900390625 715 c 0,23,24
 941.400390625 657 941.400390625 657 1028.70019531 657 c 0,25,26
 1111.5 657 1111.5 657 1190.70019531 694 c 128,-1,27
 1269.90039062 731 1269.90039062 731 1349.09960938 807 c 1,0,-1
EndSplineSet
EndChar
StartChar: exclamdown
Encoding: 161 161 161
Width: 740
Flags: W
LayerCount: 2
Back
Fore
SplineSet
360.900390625 1016 m 0,0,1
 370.799804688 1072 370.799804688 1072 411.75 1110.5 c 128,-1,2
 452.700195312 1149 452.700195312 1149 504 1149 c 0,3,4
 553.5 1149 553.5 1149 581.849609375 1110 c 128,-1,5
 610.200195312 1071 610.200195312 1071 600.299804688 1016 c 0,6,7
 590.400390625 960 590.400390625 960 548.549804688 921 c 128,-1,8
 506.700195312 882 506.700195312 882 457.200195312 882 c 0,9,10
 405.900390625 882 405.900390625 882 378.450195312 921 c 128,-1,11
 351 960 351 960 360.900390625 1016 c 0,0,1
121.5 -373 m 1,12,-1
 325.799804688 448 l 1,13,-1
 369.900390625 700 l 1,14,-1
 480.599609375 700 l 1,15,-1
 436.5 448 l 1,16,-1
 353.700195312 -373 l 1,17,-1
 121.5 -373 l 1,12,-1
EndSplineSet
Substitution2: "'case' Case-Sensitive Forms" exclamdown.case
EndChar
StartChar: cent
Encoding: 162 162 162
Width: 1172
Flags: W
LayerCount: 2
Back
Fore
SplineSet
646.834960938 991 m 1,0,1
 528.112304688 976 528.112304688 976 449.944335938 861 c 128,-1,2
 371.774414062 746 371.774414062 746 334.336914062 532 c 0,3,4
 296.724609375 317 296.724609375 317 334.657226562 202 c 128,-1,5
 372.586914062 87 372.586914062 87 486.063476562 72 c 1,6,-1
 646.834960938 991 l 1,0,1
956.772460938 319 m 1,7,8
 898.333007812 165 898.333007812 165 798.6015625 78.5 c 128,-1,9
 698.869140625 -8 698.869140625 -8 558.744140625 -27 c 1,10,-1
 511.510742188 -297 l 1,11,-1
 421.510742188 -297 l 1,12,-1
 468.744140625 -27 l 1,13,14
 274.069335938 -8 274.069335938 -8 185.560546875 142 c 128,-1,15
 97.0517578125 292 97.0517578125 292 139.037109375 532 c 0,16,17
 181.373046875 774 181.373046875 774 322.27734375 923.5 c 128,-1,18
 463.181640625 1073 463.181640625 1073 664.155273438 1090 c 1,19,-1
 710.689453125 1356 l 1,20,-1
 800.689453125 1356 l 1,21,-1
 754.155273438 1090 l 1,22,23
 835.556640625 1082 835.556640625 1082 907.127929688 1059 c 128,-1,24
 978.705078125 1036 978.705078125 1036 1043.8828125 997 c 1,25,-1
 996.299804688 725 l 1,26,-1
 900.900390625 725 l 1,27,28
 905.319335938 848 905.319335938 848 865.02734375 913.5 c 128,-1,29
 824.736328125 979 824.736328125 979 736.834960938 991 c 1,30,-1
 576.063476562 72 l 1,31,32
 659.163085938 84 659.163085938 84 722.47265625 147.5 c 128,-1,33
 785.78125 211 785.78125 211 823.57421875 319 c 1,34,-1
 956.772460938 319 l 1,7,8
EndSplineSet
EndChar
StartChar: sterling
Encoding: 163 163 163
Width: 1172
Flags: W
LayerCount: 2
Back
Fore
SplineSet
1073.15136719 1225 m 1,0,-1
 978.651367188 1225 l 1,1,2
 986.264648438 1320 986.264648438 1320 944.252929688 1370.5 c 128,-1,3
 902.241210938 1421 902.241210938 1421 815.836914062 1421 c 0,4,5
 701.536132812 1421 701.536132812 1421 633.529296875 1343.5 c 128,-1,6
 565.520507812 1266 565.520507812 1266 536.831054688 1102 c 2,7,-1
 485.22265625 807 l 1,8,-1
 856.022460938 807 l 1,9,-1
 837.303710938 700 l 1,10,-1
 466.502929688 700 l 1,11,-1
 365.211914062 121 l 1,12,-1
 795.412109375 121 l 1,13,-1
 835.123046875 348 l 1,14,-1
 939.528320312 348 l 1,15,-1
 878.643554688 0 l 1,16,-1
 -9.65625 0 l 1,17,-1
 8.8876953125 106 l 1,18,-1
 182.587890625 106 l 1,19,-1
 286.502929688 700 l 1,20,-1
 112.803710938 700 l 1,21,-1
 131.522460938 807 l 1,22,-1
 305.22265625 807 l 1,23,-1
 356.831054688 1102 l 2,24,25
 392.693359375 1307 392.693359375 1307 514.374023438 1413.5 c 128,-1,26
 636.055664062 1520 636.055664062 1520 834.956054688 1520 c 0,27,28
 911.45703125 1520 911.45703125 1520 982.169921875 1507.5 c 128,-1,29
 1052.8828125 1495 1052.8828125 1495 1116.00878906 1470 c 1,30,-1
 1073.15136719 1225 l 1,0,-1
EndSplineSet
EndChar
StartChar: currency
Encoding: 164 164 164
Width: 1172
Flags: W
LayerCount: 2
Back
Fore
SplineSet
810.900390625 985 m 1,0,-1
 999 1192 l 1,1,-1
 1083.59960938 1098 l 1,2,-1
 895.5 889 l 1,3,4
 934.200195312 829 934.200195312 829 952.650390625 768 c 128,-1,5
 971.099609375 707 971.099609375 707 971.099609375 641 c 0,6,7
 971.099609375 572 971.099609375 572 952.650390625 513 c 128,-1,8
 934.200195312 454 934.200195312 454 893.700195312 397 c 1,9,-1
 1080 190 l 1,10,-1
 993.599609375 96 l 1,11,-1
 807.299804688 301 l 1,12,13
 756.900390625 257 756.900390625 257 703.349609375 236 c 128,-1,14
 649.799804688 215 649.799804688 215 587.700195312 215 c 0,15,16
 530.099609375 215 530.099609375 215 473.849609375 235.5 c 128,-1,17
 417.599609375 256 417.599609375 256 362.700195312 297 c 1,18,-1
 179.099609375 92 l 1,19,-1
 93.599609375 186 l 1,20,-1
 278.099609375 393 l 1,21,22
 241.200195312 455 241.200195312 455 222.75 516 c 128,-1,23
 204.299804688 577 204.299804688 577 204.299804688 641 c 0,24,25
 204.299804688 711 204.299804688 711 223.200195312 770.5 c 128,-1,26
 242.099609375 830 242.099609375 830 281.700195312 887 c 1,27,-1
 95.400390625 1094 l 1,28,-1
 180.900390625 1188 l 1,29,-1
 367.200195312 981 l 1,30,31
 417.599609375 1025 417.599609375 1025 471.599609375 1046 c 128,-1,32
 525.599609375 1067 525.599609375 1067 587.700195312 1067 c 0,33,34
 647.099609375 1067 647.099609375 1067 702 1047 c 128,-1,35
 756.900390625 1027 756.900390625 1027 810.900390625 985 c 1,0,-1
829.799804688 643 m 0,36,37
 829.799804688 755 829.799804688 755 760.049804688 832 c 128,-1,38
 690.299804688 909 690.299804688 909 587.700195312 909 c 0,39,40
 486.900390625 909 486.900390625 909 416.700195312 832 c 128,-1,41
 346.5 755 346.5 755 346.5 643 c 0,42,43
 346.5 529 346.5 529 416.25 451 c 128,-1,44
 486 373 486 373 587.700195312 373 c 0,45,46
 689.400390625 373 689.400390625 373 759.599609375 451.5 c 128,-1,47
 829.799804688 530 829.799804688 530 829.799804688 643 c 0,36,37
EndSplineSet
EndChar
StartChar: yen
Encoding: 165 165 165
Width: 1172
Flags: W
LayerCount: 2
Back
Fore
SplineSet
193.40625 0 m 1,0,-1
 211.94921875 106 l 1,1,-1
 383.848632812 106 l 1,2,-1
 448.053710938 473 l 1,3,-1
 84.453125 473 l 1,4,-1
 102.822265625 578 l 1,5,-1
 466.421875 578 l 1,6,-1
 477.793945312 643 l 1,7,-1
 428.66015625 784 l 1,8,-1
 138.860351562 784 l 1,9,-1
 157.229492188 889 l 1,10,-1
 393.928710938 889 l 1,11,-1
 222.576171875 1386 l 1,12,-1
 97.4765625 1386 l 1,13,-1
 116.193359375 1493 l 1,14,-1
 613.893554688 1493 l 1,15,-1
 595.176757812 1386 l 1,16,-1
 437.676757812 1386 l 1,17,-1
 640.709960938 782 l 1,18,-1
 1051.47851562 1386 l 1,19,-1
 901.178710938 1386 l 1,20,-1
 919.889648438 1493 l 1,21,-1
 1308.69042969 1493 l 1,22,-1
 1289.97851562 1386 l 1,23,-1
 1162.17871094 1386 l 1,24,-1
 819.62890625 889 l 1,25,-1
 1064.4296875 889 l 1,26,-1
 1046.06054688 784 l 1,27,-1
 747.259765625 784 l 1,28,-1
 662.017578125 662 l 1,29,-1
 647.322265625 578 l 1,30,-1
 1010.02539062 578 l 1,31,-1
 991.65625 473 l 1,32,-1
 628.953125 473 l 1,33,-1
 564.749023438 106 l 1,34,-1
 735.749023438 106 l 1,35,-1
 717.206054688 0 l 1,36,-1
 193.40625 0 l 1,0,-1
EndSplineSet
EndChar
StartChar: brokenbar
Encoding: 166 166 166
Width: 621
Flags: W
LayerCount: 2
Back
Fore
SplineSet
383.400390625 408 m 1,0,-1
 383.400390625 -350 l 1,1,-1
 237.599609375 -350 l 1,2,-1
 237.599609375 408 l 1,3,-1
 383.400390625 408 l 1,0,-1
383.400390625 1432 m 1,4,-1
 383.400390625 674 l 1,5,-1
 237.599609375 674 l 1,6,-1
 237.599609375 1432 l 1,7,-1
 383.400390625 1432 l 1,4,-1
EndSplineSet
EndChar
StartChar: section
Encoding: 167 167 167
Width: 921
Flags: W
LayerCount: 2
Back
Fore
SplineSet
388.946289062 936 m 1,0,1
 319.700195312 890 319.700195312 890 287.688476562 848.5 c 128,-1,2
 255.6796875 807 255.6796875 807 246.407226562 754 c 0,3,4
 223.315429688 622 223.315429688 622 514.500976562 419 c 2,5,-1
 540.153320312 401 l 1,6,7
 599 439 599 439 633.948242188 487 c 128,-1,8
 668.895507812 535 668.895507812 535 678.866210938 592 c 0,9,10
 691.987304688 667 691.987304688 667 641.158203125 734 c 128,-1,11
 590.330078125 801 590.330078125 801 388.946289062 936 c 1,0,1
886.31640625 1464 m 1,12,-1
 850.977539062 1262 l 1,13,-1
 768.177734375 1262 l 1,14,15
 778.973632812 1334 778.973632812 1334 739.43359375 1375.5 c 128,-1,16
 699.893554688 1417 699.893554688 1417 620.694335938 1417 c 0,17,18
 530.694335938 1417 530.694335938 1417 470.458984375 1368.5 c 128,-1,19
 410.224609375 1320 410.224609375 1320 395.705078125 1237 c 0,20,21
 378.734375 1140 378.734375 1140 576.16796875 1003 c 0,22,23
 596.944335938 988 596.944335938 988 606.518554688 981 c 0,24,25
 762.951171875 872 762.951171875 872 806.080078125 797 c 128,-1,26
 849.208984375 722 849.208984375 722 831.889648438 623 c 0,27,28
 815.26953125 528 815.26953125 528 756.999023438 465 c 128,-1,29
 698.727539062 402 698.727539062 402 588.430664062 358 c 1,30,31
 650.408203125 311 650.408203125 311 672.237304688 248 c 128,-1,32
 694.065429688 185 694.065429688 185 678.145507812 94 c 0,33,34
 655.227539062 -37 655.227539062 -37 549.607421875 -116 c 128,-1,35
 443.987304688 -195 443.987304688 -195 288.287109375 -195 c 0,36,37
 207.287109375 -195 207.287109375 -195 137.6484375 -181.5 c 128,-1,38
 68.0107421875 -168 68.0107421875 -168 3.783203125 -139 c 1,39,-1
 40.3466796875 70 l 1,40,-1
 122.97265625 69 l 1,41,42
 110.776367188 -11 110.776367188 -11 152.291992188 -51.5 c 128,-1,43
 193.805664062 -92 193.805664062 -92 290.106445312 -92 c 0,44,45
 383.706054688 -92 383.706054688 -92 446.727539062 -43 c 128,-1,46
 509.750976562 6 509.750976562 6 524.4453125 90 c 0,47,48
 544.21484375 203 544.21484375 203 361.231445312 330 c 0,49,50
 344.430664062 342 344.430664062 342 335.580078125 348 c 0,51,52
 162.5234375 470 162.5234375 470 118.944335938 545 c 128,-1,53
 75.365234375 620 75.365234375 620 92.68359375 719 c 0,54,55
 109.12890625 813 109.12890625 813 173.86328125 879.5 c 128,-1,56
 238.595703125 946 238.595703125 946 342.120117188 977 c 1,57,58
 276.891601562 1026 276.891601562 1026 252.362304688 1089 c 128,-1,59
 227.833984375 1152 227.833984375 1152 241.654296875 1231 c 0,60,61
 264.396484375 1361 264.396484375 1361 368.305664062 1440.5 c 128,-1,62
 472.212890625 1520 472.212890625 1520 621.61328125 1520 c 0,63,64
 691.8125 1520 691.8125 1520 757.763671875 1506 c 128,-1,65
 823.713867188 1492 823.713867188 1492 886.31640625 1464 c 1,12,-1
EndSplineSet
EndChar
StartChar: dieresis
Encoding: 168 168 168
Width: 921
Flags: W
LayerCount: 2
Back
Fore
SplineSet
480.599609375 1569 m 0,0,1
 523.799804688 1569 523.799804688 1569 549 1534 c 0,2,3
 573.299804688 1500 573.299804688 1500 565.200195312 1452 c 0,4,5
 556.200195312 1401 556.200195312 1401 521.099609375 1368 c 0,6,7
 485.099609375 1335 485.099609375 1335 439.200195312 1335 c 0,8,9
 394.200195312 1335 394.200195312 1335 370.799804688 1368 c 0,10,11
 346.5 1401 346.5 1401 355.5 1452 c 0,12,13
 363.599609375 1500 363.599609375 1500 401.400390625 1534 c 0,14,15
 438.299804688 1569 438.299804688 1569 480.599609375 1569 c 0,0,1
831.599609375 1569 m 0,16,17
 873.900390625 1569 873.900390625 1569 899.099609375 1534 c 0,18,19
 923.400390625 1500 923.400390625 1500 915.299804688 1452 c 0,20,21
 906.299804688 1401 906.299804688 1401 871.200195312 1368 c 0,22,23
 835.200195312 1335 835.200195312 1335 790.200195312 1335 c 0,24,25
 744.299804688 1335 744.299804688 1335 720.900390625 1368 c 0,26,27
 696.599609375 1401 696.599609375 1401 705.599609375 1452 c 0,28,29
 713.700195312 1500 713.700195312 1500 751.5 1534 c 0,30,31
 788.400390625 1569 788.400390625 1569 831.599609375 1569 c 0,16,17
EndSplineSet
LCarets2: 1 0
EndChar
StartChar: copyright
Encoding: 169 169 169
Width: 1843
Flags: W
LayerCount: 2
Back
Fore
SplineSet
1238.40039062 573 m 1,0,1
 1214.09960938 442 1214.09960938 442 1132.65039062 371.5 c 128,-1,2
 1051.20019531 301 1051.20019531 301 923.400390625 301 c 0,3,4
 755.099609375 301 755.099609375 301 654.75 421 c 128,-1,5
 554.400390625 541 554.400390625 541 554.400390625 741 c 0,6,7
 554.400390625 942 554.400390625 942 655.650390625 1063 c 128,-1,8
 756.900390625 1184 756.900390625 1184 923.400390625 1184 c 0,9,10
 995.400390625 1184 995.400390625 1184 1065.15039062 1165.5 c 128,-1,11
 1134.90039062 1147 1134.90039062 1147 1213.20019531 1108 c 1,12,-1
 1213.20019531 895 l 1,13,-1
 1137.59960938 895 l 1,14,15
 1122.29980469 1004 1122.29980469 1004 1071 1055 c 128,-1,16
 1019.70019531 1106 1019.70019531 1106 925.200195312 1106 c 0,17,18
 818.099609375 1106 818.099609375 1106 763.650390625 1014.5 c 128,-1,19
 709.200195312 923 709.200195312 923 709.200195312 741 c 0,20,21
 709.200195312 560 709.200195312 560 763.200195312 469.5 c 128,-1,22
 817.200195312 379 817.200195312 379 923.400390625 379 c 0,23,24
 1010.70019531 379 1010.70019531 379 1061.54980469 426.5 c 128,-1,25
 1112.40039062 474 1112.40039062 474 1131.29980469 573 c 1,26,-1
 1238.40039062 573 l 1,0,1
921.599609375 1485 m 0,27,28
 1058.40039062 1485 1058.40039062 1485 1176.75 1430 c 128,-1,29
 1295.09960938 1375 1295.09960938 1375 1393.20019531 1266 c 0,30,31
 1491.29980469 1157 1491.29980469 1157 1539.90039062 1026 c 128,-1,32
 1588.5 895 1588.5 895 1588.5 741 c 0,33,34
 1588.5 589 1588.5 589 1539.90039062 458.5 c 128,-1,35
 1491.29980469 328 1491.29980469 328 1393.20019531 219 c 0,36,37
 1295.09960938 110 1295.09960938 110 1176.75 55 c 128,-1,38
 1058.40039062 0 1058.40039062 0 921.599609375 0 c 0,39,40
 784.799804688 0 784.799804688 0 666.450195312 55 c 128,-1,41
 548.099609375 110 548.099609375 110 450 219 c 0,42,43
 351.900390625 328 351.900390625 328 303.299804688 458.5 c 128,-1,44
 254.700195312 589 254.700195312 589 254.700195312 741 c 0,45,46
 254.700195312 895 254.700195312 895 303.299804688 1026 c 128,-1,47
 351.900390625 1157 351.900390625 1157 450 1266 c 0,48,49
 548.099609375 1375 548.099609375 1375 666.450195312 1430 c 128,-1,50
 784.799804688 1485 784.799804688 1485 921.599609375 1485 c 0,27,28
921.599609375 1382 m 0,51,52
 803.700195312 1382 803.700195312 1382 702 1335 c 128,-1,53
 600.299804688 1288 600.299804688 1288 515.700195312 1194 c 0,54,55
 432 1101 432 1101 389.25 986.5 c 128,-1,56
 346.5 872 346.5 872 346.5 741 c 0,57,58
 346.5 611 346.5 611 389.25 498 c 128,-1,59
 432 385 432 385 515.700195312 291 c 0,60,61
 600.299804688 197 600.299804688 197 702 149.5 c 128,-1,62
 803.700195312 102 803.700195312 102 921.599609375 102 c 0,63,64
 1040.40039062 102 1040.40039062 102 1142.54980469 149.5 c 128,-1,65
 1244.70019531 197 1244.70019531 197 1329.29980469 291 c 0,66,67
 1413 384 1413 384 1454.84960938 497 c 128,-1,68
 1496.70019531 610 1496.70019531 610 1496.70019531 741 c 0,69,70
 1496.70019531 874 1496.70019531 874 1454.40039062 987.5 c 128,-1,71
 1412.09960938 1101 1412.09960938 1101 1329.29980469 1194 c 0,72,73
 1244.70019531 1288 1244.70019531 1288 1142.54980469 1335 c 128,-1,74
 1040.40039062 1382 1040.40039062 1382 921.599609375 1382 c 0,51,52
EndSplineSet
EndChar
StartChar: ordfeminine
Encoding: 170 170 170
Width: 875
Flags: W
LayerCount: 2
Back
Fore
SplineSet
551.501953125 756 m 17,0,-1
 582.641601562 934 l 1,1,2
 528.668945312 857 528.668945312 857 470.294921875 813.400390625 c 0,3,4
 411.416992188 769.740234375 411.416992188 769.740234375 345.40234375 756 c 0,5,6
 316.295898438 749.940429688 316.295898438 749.940429688 290.717773438 749.940429688 c 0,7,8
 205.911132812 749.940429688 205.911132812 749.940429688 159.8671875 816.530273438 c 0,9,10
 119.493164062 874.91015625 119.493164062 874.91015625 119.493164062 969.290039062 c 0,11,12
 119.493164062 1015.04003906 119.493164062 1015.04003906 128.978515625 1069.25 c 0,13,14
 158.03125 1235.29980469 158.03125 1235.29980469 253.961914062 1354.41015625 c 0,15,16
 349.712890625 1472.5 349.712890625 1472.5 475.326171875 1498.63964844 c 0,17,18
 501.0390625 1503.99023438 501.0390625 1503.99023438 523.944335938 1503.99023438 c 0,19,20
 559.827148438 1503.99023438 559.827148438 1503.99023438 588.806640625 1490.84960938 c 0,21,22
 636.641601562 1469.12988281 636.641601562 1469.12988281 666.50390625 1409.65039062 c 1,23,-1
 680.607421875 1494 l 1,24,-1
 794.006835938 1494 l 1,25,-1
 680.30078125 844 l 1,26,-1
 795.500976562 844 l 9,27,-1
 780.1015625 756 l 25,28,-1
 551.501953125 756 l 17,0,-1
616.58984375 1129.5 m 2,29,-1
 631.737304688 1216.08984375 l 2,30,31
 637.317382812 1247.95996094 637.317382812 1247.95996094 637.317382812 1275.08984375 c 0,32,33
 637.317382812 1335.55957031 637.317382812 1335.55957031 609.624023438 1372.48046875 c 0,34,35
 579.923828125 1413.15039062 579.923828125 1413.15039062 525.357421875 1413.15039062 c 0,36,37
 507.90625 1413.15039062 507.90625 1413.15039062 487.908203125 1408.99023438 c 0,38,39
 400.805664062 1390.86035156 400.805664062 1390.86035156 340.478515625 1308.61035156 c 0,40,41
 279.234375 1226.16992188 279.234375 1226.16992188 256.418945312 1095.78027344 c 0,42,43
 247.455078125 1044.50976562 247.455078125 1044.50976562 247.455078125 1003.76953125 c 0,44,45
 247.455078125 940.08984375 247.455078125 940.08984375 269.370117188 902.150390625 c 0,46,47
 297.198242188 853.969726562 297.198242188 853.969726562 355.715820312 853.969726562 c 0,48,49
 372.76171875 853.969726562 372.76171875 853.969726562 392.409179688 858.059570312 c 0,50,51
 474.01171875 875.040039062 474.01171875 875.040039062 536.759765625 950.919921875 c 0,52,53
 598.58984375 1026.61035156 598.58984375 1026.61035156 616.58984375 1129.5 c 2,29,-1
82.8359375 639 m 1,54,-1
 711.036132812 639 l 1,55,-1
 692.837890625 535 l 1,56,-1
 64.6376953125 535 l 1,57,-1
 82.8359375 639 l 1,54,-1
EndSplineSet
EndChar
StartChar: guillemotleft
Encoding: 171 171 171
Width: 1127
Flags: W
LayerCount: 2
Back
Fore
SplineSet
1035.19824219 1059 m 1,0,-1
 1015.08300781 944 l 1,1,-1
 687.599609375 600 l 1,2,-1
 894.719726562 256 l 1,3,-1
 874.6015625 141 l 1,4,-1
 525.626953125 559 l 1,5,-1
 539.97265625 641 l 1,6,-1
 1035.19824219 1059 l 1,0,-1
644.598632812 1059 m 1,7,-1
 624.48046875 944 l 1,8,-1
 297 600 l 1,9,-1
 504.120117188 256 l 1,10,-1
 484.000976562 141 l 1,11,-1
 135.02734375 559 l 1,12,-1
 149.373046875 641 l 1,13,-1
 644.598632812 1059 l 1,7,-1
EndSplineSet
EndChar
StartChar: logicalnot
Encoding: 172 172 172
Width: 1544
Flags: W
LayerCount: 2
Back
Fore
SplineSet
195.299804688 862 m 1,0,-1
 1349.09960938 862 l 1,1,-1
 1349.09960938 287 l 1,2,-1
 1205.09960938 287 l 1,3,-1
 1205.09960938 700 l 1,4,-1
 195.299804688 700 l 1,5,-1
 195.299804688 862 l 1,0,-1
EndSplineSet
EndChar
StartChar: sfthyphen
Encoding: 173 173 173
Width: 622
Flags: W
LayerCount: 2
Back
Fore
SplineSet
94.6455078125 627 m 1,0,-1
 555.4453125 627 l 1,1,-1
 528.154296875 471 l 1,2,-1
 67.3544921875 471 l 1,3,-1
 94.6455078125 627 l 1,0,-1
EndSplineSet
EndChar
StartChar: registered
Encoding: 174 174 174
Width: 1843
Flags: W
LayerCount: 2
Back
Fore
SplineSet
805.5 791 m 1,0,-1
 918 791 l 2,1,2
 992.700195312 791 992.700195312 791 1030.04980469 829 c 128,-1,3
 1067.40039062 867 1067.40039062 867 1067.40039062 942 c 0,4,5
 1067.40039062 1016 1067.40039062 1016 1029.59960938 1054 c 128,-1,6
 991.799804688 1092 991.799804688 1092 918 1092 c 2,7,-1
 805.5 1092 l 1,8,-1
 805.5 791 l 1,0,-1
1026.90039062 754 m 1,9,10
 1064.70019531 740 1064.70019531 740 1091.25 714.5 c 128,-1,11
 1117.79980469 689 1117.79980469 689 1135.79980469 649 c 2,12,-1
 1240.20019531 420 l 1,13,-1
 1308.59960938 420 l 1,14,-1
 1308.59960938 352 l 1,15,-1
 1137.59960938 352 l 1,16,-1
 1019.70019531 606 l 1,17,18
 988.200195312 676 988.200195312 676 960.299804688 699.5 c 128,-1,19
 932.400390625 723 932.400390625 723 888.299804688 723 c 2,20,-1
 805.5 723 l 1,21,-1
 805.5 420 l 1,22,-1
 881.099609375 420 l 1,23,-1
 881.099609375 352 l 1,24,-1
 595.799804688 352 l 1,25,-1
 595.799804688 420 l 1,26,-1
 670.5 420 l 1,27,-1
 670.5 1092 l 1,28,-1
 595.799804688 1092 l 1,29,-1
 595.799804688 1159 l 1,30,-1
 969.299804688 1159 l 2,31,32
 1084.5 1159 1084.5 1159 1143 1103 c 128,-1,33
 1201.5 1047 1201.5 1047 1201.5 938 c 0,34,35
 1201.5 855 1201.5 855 1158.29980469 809.5 c 128,-1,36
 1115.09960938 764 1115.09960938 764 1026.90039062 754 c 1,9,10
921.599609375 1382 m 0,37,38
 803.700195312 1382 803.700195312 1382 702 1335 c 128,-1,39
 600.299804688 1288 600.299804688 1288 515.700195312 1194 c 0,40,41
 432 1101 432 1101 389.25 986.5 c 128,-1,42
 346.5 872 346.5 872 346.5 741 c 0,43,44
 346.5 611 346.5 611 389.25 498 c 128,-1,45
 432 385 432 385 515.700195312 291 c 0,46,47
 600.299804688 197 600.299804688 197 702 149.5 c 128,-1,48
 803.700195312 102 803.700195312 102 921.599609375 102 c 0,49,50
 1040.40039062 102 1040.40039062 102 1142.54980469 149.5 c 128,-1,51
 1244.70019531 197 1244.70019531 197 1329.29980469 291 c 0,52,53
 1413 384 1413 384 1454.84960938 497 c 128,-1,54
 1496.70019531 610 1496.70019531 610 1496.70019531 741 c 0,55,56
 1496.70019531 874 1496.70019531 874 1454.40039062 987.5 c 128,-1,57
 1412.09960938 1101 1412.09960938 1101 1329.29980469 1194 c 0,58,59
 1244.70019531 1288 1244.70019531 1288 1142.54980469 1335 c 128,-1,60
 1040.40039062 1382 1040.40039062 1382 921.599609375 1382 c 0,37,38
921.599609375 1485 m 0,61,62
 1058.40039062 1485 1058.40039062 1485 1176.75 1430 c 128,-1,63
 1295.09960938 1375 1295.09960938 1375 1393.20019531 1266 c 0,64,65
 1491.29980469 1157 1491.29980469 1157 1539.90039062 1026 c 128,-1,66
 1588.5 895 1588.5 895 1588.5 741 c 0,67,68
 1588.5 589 1588.5 589 1539.90039062 458.5 c 128,-1,69
 1491.29980469 328 1491.29980469 328 1393.20019531 219 c 0,70,71
 1295.09960938 110 1295.09960938 110 1176.75 55 c 128,-1,72
 1058.40039062 0 1058.40039062 0 921.599609375 0 c 0,73,74
 784.799804688 0 784.799804688 0 666.450195312 55 c 128,-1,75
 548.099609375 110 548.099609375 110 450 219 c 0,76,77
 351.900390625 328 351.900390625 328 303.299804688 458.5 c 128,-1,78
 254.700195312 589 254.700195312 589 254.700195312 741 c 0,79,80
 254.700195312 895 254.700195312 895 303.299804688 1026 c 128,-1,81
 351.900390625 1157 351.900390625 1157 450 1266 c 0,82,83
 548.099609375 1375 548.099609375 1375 666.450195312 1430 c 128,-1,84
 784.799804688 1485 784.799804688 1485 921.599609375 1485 c 0,61,62
EndSplineSet
EndChar
StartChar: macron
Encoding: 175 175 175
Width: 921
Flags: W
LayerCount: 2
Back
Fore
SplineSet
356.400390625 1526 m 1,0,-1
 894.599609375 1526 l 1,1,-1
 869.400390625 1378 l 1,2,-1
 331.200195312 1378 l 1,3,-1
 356.400390625 1526 l 1,0,-1
EndSplineSet
LCarets2: 1 0
EndChar
StartChar: degree
Encoding: 176 176 176
Width: 921
Flags: W
LayerCount: 2
Back
Fore
SplineSet
460.799804688 1382 m 0,0,1
 392.400390625 1382 392.400390625 1382 345.599609375 1329.5 c 128,-1,2
 298.799804688 1277 298.799804688 1277 298.799804688 1200 c 0,3,4
 298.799804688 1124 298.799804688 1124 345.150390625 1073 c 128,-1,5
 391.5 1022 391.5 1022 460.799804688 1022 c 0,6,7
 529.200195312 1022 529.200195312 1022 576 1073.5 c 128,-1,8
 622.799804688 1125 622.799804688 1125 622.799804688 1200 c 128,-1,9
 622.799804688 1275 622.799804688 1275 575.099609375 1328.5 c 128,-1,10
 527.400390625 1382 527.400390625 1382 460.799804688 1382 c 0,0,1
460.799804688 1520 m 0,11,12
 518.400390625 1520 518.400390625 1520 571.5 1495.5 c 128,-1,13
 624.599609375 1471 624.599609375 1471 663.299804688 1425 c 1,14,15
 704.700195312 1380 704.700195312 1380 725.400390625 1323 c 128,-1,16
 746.099609375 1266 746.099609375 1266 746.099609375 1200 c 0,17,18
 746.099609375 1068 746.099609375 1068 662.849609375 976.5 c 128,-1,19
 579.599609375 885 579.599609375 885 459 885 c 0,20,21
 337.5 885 337.5 885 256.5 975 c 128,-1,22
 175.5 1065 175.5 1065 175.5 1200 c 0,23,24
 175.5 1334 175.5 1334 258.299804688 1427 c 128,-1,25
 341.099609375 1520 341.099609375 1520 460.799804688 1520 c 0,11,12
EndSplineSet
EndChar
StartChar: plusminus
Encoding: 177 177 177
Width: 1544
Flags: W
LayerCount: 2
Back
Fore
SplineSet
844.200195312 1284 m 1,0,-1
 844.200195312 893 l 1,1,-1
 1349.09960938 893 l 1,2,-1
 1349.09960938 731 l 1,3,-1
 844.200195312 731 l 1,4,-1
 844.200195312 340 l 1,5,-1
 700.200195312 340 l 1,6,-1
 700.200195312 731 l 1,7,-1
 195.299804688 731 l 1,8,-1
 195.299804688 893 l 1,9,-1
 700.200195312 893 l 1,10,-1
 700.200195312 1284 l 1,11,-1
 844.200195312 1284 l 1,0,-1
195.299804688 160 m 1,12,-1
 1349.09960938 160 l 1,13,-1
 1349.09960938 0 l 1,14,-1
 195.299804688 0 l 1,15,-1
 195.299804688 160 l 1,12,-1
EndSplineSet
EndChar
StartChar: twosuperior
Encoding: 178 178 178
Width: 738
Flags: W
LayerCount: 2
Back
Fore
SplineSet
188.338867188 1296 m 1,0,-1
 125.338867188 1296 l 1,1,-1
 152.979492188 1454 l 1,2,3
 217.977539062 1486 217.977539062 1486 283.952148438 1503 c 128,-1,4
 349.92578125 1520 349.92578125 1520 412.025390625 1520 c 0,5,6
 536.225585938 1520 536.225585938 1520 601.62890625 1454 c 128,-1,7
 667.032226562 1388 667.032226562 1388 648.83984375 1284 c 0,8,9
 627.49609375 1162 627.49609375 1162 422.456054688 988 c 2,10,-1
 402.381835938 971 l 1,11,-1
 150.5703125 756 l 1,12,-1
 497.0703125 756 l 1,13,-1
 515.963867188 864 l 1,14,-1
 582.563476562 864 l 1,15,-1
 548.274414062 668 l 1,16,-1
 6.474609375 668 l 1,17,-1
 19.595703125 743 l 1,18,-1
 320.53125 997 l 2,19,20
 411.400390625 1074 411.400390625 1074 455.373046875 1135 c 128,-1,21
 499.344726562 1196 499.344726562 1196 510.890625 1262 c 0,22,23
 525.759765625 1347 525.759765625 1347 490.76953125 1396.5 c 128,-1,24
 455.780273438 1446 455.780273438 1446 380.1796875 1446 c 0,25,26
 309.979492188 1446 309.979492188 1446 261.03125 1408 c 128,-1,27
 212.083984375 1370 212.083984375 1370 188.338867188 1296 c 1,0,-1
EndSplineSet
EndChar
StartChar: threesuperior
Encoding: 179 179 179
Width: 738
Flags: W
LayerCount: 2
Back
Fore
SplineSet
179.240234375 1468 m 1,0,1
 249.489257812 1494 249.489257812 1494 312.063476562 1507 c 128,-1,2
 374.637695312 1520 374.637695312 1520 427.737304688 1520 c 0,3,4
 551.9375 1520 551.9375 1520 609.541015625 1466 c 128,-1,5
 667.143554688 1412 667.143554688 1412 649.82421875 1313 c 0,6,7
 637.228515625 1241 637.228515625 1241 580.78125 1191 c 128,-1,8
 524.334960938 1141 524.334960938 1141 435.860351562 1124 c 1,9,10
 540.161132812 1108 540.161132812 1108 584.202148438 1048.5 c 128,-1,11
 628.243164062 989 628.243164062 989 610.749023438 889 c 0,12,13
 590.8046875 775 590.8046875 775 501.384765625 714 c 128,-1,14
 411.961914062 653 411.961914062 653 265.262695312 653 c 0,15,16
 200.461914062 653 200.461914062 653 140.361328125 667 c 128,-1,17
 80.2607421875 681 80.2607421875 681 23.958984375 709 c 1,18,-1
 53.69921875 879 l 1,19,-1
 116.524414062 878 l 1,20,21
 108.079101562 804 108.079101562 804 145.443359375 765.5 c 128,-1,22
 182.807617188 727 182.807617188 727 265.608398438 727 c 0,23,24
 350.208007812 727 350.208007812 727 403.805664062 771 c 128,-1,25
 457.403320312 815 457.403320312 815 471.748046875 897 c 0,26,27
 488.017578125 990 488.017578125 990 450.428710938 1037.5 c 128,-1,28
 412.836914062 1085 412.836914062 1085 321.9375 1085 c 2,29,-1
 274.237304688 1085 l 1,30,-1
 287.18359375 1159 l 1,31,-1
 311.483398438 1159 l 2,32,33
 398.784179688 1159 398.784179688 1159 449.805664062 1196 c 128,-1,34
 500.829101562 1233 500.829101562 1233 513.774414062 1307 c 0,35,36
 525.49609375 1374 525.49609375 1374 495.34375 1410 c 128,-1,37
 465.192382812 1446 465.192382812 1446 396.791992188 1446 c 0,38,39
 322.9921875 1446 322.9921875 1446 278.243164062 1414 c 128,-1,40
 233.495117188 1382 233.495117188 1382 215.82421875 1317 c 1,41,-1
 152.82421875 1317 l 1,42,-1
 179.240234375 1468 l 1,0,1
EndSplineSet
EndChar
StartChar: acute
Encoding: 180 180 180
Width: 921
Flags: W
LayerCount: 2
Back
Fore
SplineSet
772.200195312 1638 m 1,0,-1
 951.299804688 1638 l 1,1,-1
 578.700195312 1262 l 1,2,-1
 473.400390625 1262 l 1,3,-1
 772.200195312 1638 l 1,0,-1
EndSplineSet
LCarets2: 1 0
EndChar
StartChar: mu
Encoding: 181 181 181
Width: 1197
Flags: W
LayerCount: 2
Back
Fore
SplineSet
939.34765625 1063 m 1,0,-1
 1104.94824219 1063 l 1,1,-1
 937.178710938 104 l 1,2,-1
 1093.77929688 104 l 1,3,-1
 1075.58105469 0 l 1,4,-1
 753.380859375 0 l 1,5,-1
 786.266601562 188 l 1,6,7
 720.926757812 82 720.926757812 82 645.06640625 26.5 c 0,8,9
 569.205078125 -29 569.205078125 -29 488.205078125 -29 c 0,10,11
 436.905273438 -29 436.905273438 -29 397.754882812 -11 c 0,12,13
 358.60546875 7 358.60546875 7 329.8046875 43 c 1,14,-1
 247.751953125 -426 l 1,15,-1
 82.15234375 -426 l 1,16,-1
 323.927734375 956 l 1,17,-1
 174.528320312 956 l 1,18,-1
 193.248046875 1063 l 1,19,-1
 508.248046875 1063 l 1,20,-1
 399.951171875 444 l 2,21,22
 382.11328125 341.990234375 382.11328125 341.990234375 382.11328125 273.709960938 c 0,23,24
 382.11328125 212.139648438 382.11328125 212.139648438 396.62109375 178 c 0,25,26
 427.220703125 106 427.220703125 106 536.12109375 106 c 0,27,28
 651.321289062 106 651.321289062 106 728.073242188 200 c 0,29,30
 804.81640625 294 804.81640625 294 836.126953125 473 c 2,31,-1
 939.34765625 1063 l 1,0,-1
EndSplineSet
EndChar
StartChar: paragraph
Encoding: 182 182 182
Width: 1172
Flags: W
LayerCount: 2
Back
Fore
SplineSet
717.526367188 1493 m 2,0,-1
 1201.72460938 1493 l 1,1,-1
 1183.00488281 1386 l 1,2,-1
 1076.8046875 1386 l 1,3,-1
 799.874023438 -197 l 1,4,-1
 703.57421875 -197 l 1,5,-1
 980.504882812 1386 l 1,6,-1
 772.607421875 1386 l 1,7,-1
 495.673828125 -197 l 1,8,-1
 399.374023438 -197 l 1,9,-1
 547.375 649 l 1,10,11
 356.848632812 666 356.848632812 666 270.430664062 776.5 c 128,-1,12
 184.01171875 887 184.01171875 887 216.201171875 1071 c 0,13,14
 249.439453125 1261 249.439453125 1261 386.732421875 1377 c 128,-1,15
 524.026367188 1493 524.026367188 1493 717.526367188 1493 c 2,0,-1
EndSplineSet
EndChar
StartChar: periodcentered
Encoding: 183 183 183
Width: 585
Flags: W
LayerCount: 2
Back
Fore
SplineSet
171 711 m 0,0,1
 180.797851562 767 180.797851562 767 222.181640625 805.5 c 128,-1,2
 263.567382812 844 263.567382812 844 314.868164062 844 c 0,3,4
 364.368164062 844 364.368164062 844 392.643554688 805 c 128,-1,5
 420.921875 766 420.921875 766 411.299804688 711 c 0,6,7
 401.502929688 655 401.502929688 655 359.66796875 616.5 c 128,-1,8
 317.83203125 578 317.83203125 578 268.33203125 578 c 0,9,10
 217.032226562 578 217.032226562 578 189.030273438 616 c 128,-1,11
 161.028320312 654 161.028320312 654 171 711 c 0,0,1
EndSplineSet
EndChar
StartChar: cedilla
Encoding: 184 184 184
Width: 921
Flags: W
LayerCount: 2
Back
Fore
SplineSet
554.750976562 0 m 1,0,1
 601.155273438 -64 601.155273438 -64 619.708007812 -120 c 128,-1,2
 638.260742188 -176 638.260742188 -176 629.688476562 -225 c 0,3,4
 615.518554688 -306 615.518554688 -306 551.034179688 -350.5 c 128,-1,5
 486.548828125 -395 486.548828125 -395 385.749023438 -395 c 0,6,7
 347.94921875 -395 347.94921875 -395 309.3984375 -389 c 128,-1,8
 270.84765625 -383 270.84765625 -383 231.547851562 -371 c 1,9,-1
 254.46484375 -240 l 1,10,11
 288.391601562 -257 288.391601562 -257 322.454101562 -265.5 c 128,-1,12
 356.516601562 -274 356.516601562 -274 388.016601562 -274 c 0,13,14
 439.317382812 -274 439.317382812 -274 473.653320312 -247.5 c 128,-1,15
 507.989257812 -221 507.989257812 -221 515.861328125 -176 c 0,16,17
 520.759765625 -148 520.759765625 -148 508.657226562 -104 c 128,-1,18
 496.555664062 -60 496.555664062 -60 467.451171875 0 c 1,19,-1
 554.750976562 0 l 1,0,1
EndSplineSet
EndChar
StartChar: onesuperior
Encoding: 185 185 185
Width: 738
Flags: W
LayerCount: 2
Back
Fore
SplineSet
85.3623046875 668 m 1,0,-1
 100.056640625 752 l 1,1,-1
 254.856445312 752 l 1,2,-1
 365.76953125 1386 l 1,3,-1
 166.326171875 1280 l 1,4,-1
 182.771484375 1374 l 1,5,-1
 421.337890625 1503 l 1,6,-1
 513.137695312 1503 l 1,7,-1
 381.756835938 752 l 1,8,-1
 537.45703125 752 l 1,9,-1
 522.762695312 668 l 1,10,-1
 85.3623046875 668 l 1,0,-1
EndSplineSet
EndChar
StartChar: ordmasculine
Encoding: 186 186 186
Width: 866
Flags: W
LayerCount: 2
Back
Fore
SplineSet
395.375 813 m 0,0,1
 490.775390625 813 490.775390625 813 552.833007812 892.5 c 128,-1,2
 614.890625 972 614.890625 972 642.181640625 1128 c 0,3,4
 669.47265625 1284 669.47265625 1284 634.868164062 1364 c 128,-1,5
 600.262695312 1444 600.262695312 1444 505.762695312 1444 c 0,6,7
 412.163085938 1444 412.163085938 1444 348.943359375 1363 c 128,-1,8
 285.72265625 1282 285.72265625 1282 258.78125 1128 c 0,9,10
 231.665039062 973 231.665039062 973 266.26953125 893 c 128,-1,11
 300.875 813 300.875 813 395.375 813 c 0,0,1
382.079101562 737 m 0,12,13
 224.579101562 737 224.579101562 737 147.986328125 844.5 c 128,-1,14
 71.3916015625 952 71.3916015625 952 102.181640625 1128 c 0,15,16
 133.146484375 1305 133.146484375 1305 247.352539062 1412.5 c 128,-1,17
 361.55859375 1520 361.55859375 1520 519.05859375 1520 c 0,18,19
 676.55859375 1520 676.55859375 1520 753.15234375 1412.5 c 128,-1,20
 829.74609375 1305 829.74609375 1305 798.78125 1128 c 0,21,22
 767.817382812 951 767.817382812 951 654.147460938 844 c 128,-1,23
 540.478515625 737 540.478515625 737 382.079101562 737 c 0,12,13
55.3349609375 639 m 1,24,-1
 674.53515625 639 l 1,25,-1
 656.340820312 535 l 1,26,-1
 37.140625 535 l 1,27,-1
 55.3349609375 639 l 1,24,-1
EndSplineSet
EndChar
StartChar: guillemotright
Encoding: 187 187 187
Width: 1127
Flags: W
LayerCount: 2
Back
Fore
SplineSet
644.598632812 1059 m 1,0,-1
 993.573242188 641 l 1,1,-1
 979.2265625 559 l 1,2,-1
 484.000976562 141 l 1,3,-1
 504.120117188 256 l 1,4,-1
 831.599609375 600 l 1,5,-1
 624.48046875 944 l 1,6,-1
 644.598632812 1059 l 1,0,-1
253.999023438 1059 m 1,7,-1
 602.97265625 641 l 1,8,-1
 588.626953125 559 l 1,9,-1
 93.4013671875 141 l 1,10,-1
 113.51953125 256 l 1,11,-1
 440.099609375 600 l 1,12,-1
 233.879882812 944 l 1,13,-1
 253.999023438 1059 l 1,7,-1
EndSplineSet
EndChar
StartChar: questiondown
Encoding: 191 191 191
Width: 988
Flags: W
LayerCount: 2
Back
Fore
SplineSet
812.700195312 1016 m 0,0,1
 802.799804688 960 802.799804688 960 761.400390625 921 c 128,-1,2
 720 882 720 882 669.599609375 882 c 0,3,4
 620.099609375 882 620.099609375 882 591.75 921 c 128,-1,5
 563.400390625 960 563.400390625 960 573.299804688 1016 c 0,6,7
 583.200195312 1071 583.200195312 1071 625.049804688 1110 c 128,-1,8
 666.900390625 1149 666.900390625 1149 716.400390625 1149 c 0,9,10
 767.700195312 1149 767.700195312 1149 795.150390625 1110.5 c 128,-1,11
 822.599609375 1072 822.599609375 1072 812.700195312 1016 c 0,0,1
780.299804688 -307 m 1,12,13
 676.799804688 -354 676.799804688 -354 586.799804688 -377 c 128,-1,14
 496.799804688 -400 496.799804688 -400 420.299804688 -400 c 0,15,16
 221.400390625 -400 221.400390625 -400 124.200195312 -293 c 128,-1,17
 27 -186 27 -186 58.5 -4 c 0,18,19
 90.900390625 182 90.900390625 182 211.5 300 c 128,-1,20
 332.099609375 418 332.099609375 418 541.799804688 469 c 1,21,-1
 586.799804688 723 l 1,22,-1
 697.5 723 l 1,23,-1
 639.900390625 395 l 1,24,25
 473.400390625 352 473.400390625 352 374.400390625 251 c 128,-1,26
 275.400390625 150 275.400390625 150 248.400390625 -6 c 0,27,28
 224.099609375 -143 224.099609375 -143 276.75 -222 c 128,-1,29
 329.400390625 -301 329.400390625 -301 442.799804688 -301 c 0,30,31
 544.5 -301 544.5 -301 621.450195312 -235.5 c 128,-1,32
 698.400390625 -170 698.400390625 -170 738.900390625 -47 c 1,33,-1
 825.299804688 -47 l 1,34,-1
 780.299804688 -307 l 1,12,13
EndSplineSet
Substitution2: "'case' Case-Sensitive Forms" questiondown.case
EndChar
StartChar: Aring
Encoding: 197 197 197
Width: 1331
Flags: W
LayerCount: 2
Back
Fore
SplineSet
916.469726562 1626 m 0,0,1
 927.495117188 1689 927.495117188 1689 895.23046875 1733.5 c 128,-1,2
 862.96484375 1778 862.96484375 1778 806.264648438 1778 c 0,3,4
 748.665039062 1778 748.665039062 1778 701.905273438 1734.5 c 128,-1,5
 655.14453125 1691 655.14453125 1691 643.7734375 1626 c 0,6,7
 632.751953125 1563 632.751953125 1563 664.204101562 1519 c 128,-1,8
 695.657226562 1475 695.657226562 1475 753.256835938 1475 c 0,9,10
 809.95703125 1475 809.95703125 1475 857.704101562 1519 c 128,-1,11
 905.454101562 1563 905.454101562 1563 916.469726562 1626 c 0,0,1
297.361328125 541 m 1,12,-1
 788.760742188 541 l 1,13,-1
 668.169921875 1251 l 1,14,-1
 297.361328125 541 l 1,12,-1
-177.083007812 0 m 1,15,-1
 -158.5390625 106 l 1,16,-1
 -40.638671875 106 l 1,17,-1
 623.038085938 1384 l 1,18,19
 564.709960938 1421 564.709960938 1421 541.631835938 1482 c 128,-1,20
 518.552734375 1543 518.552734375 1543 533.073242188 1626 c 0,21,22
 553.016601562 1740 553.016601562 1740 639.099609375 1820.5 c 128,-1,23
 725.182617188 1901 725.182617188 1901 827.783203125 1901 c 0,24,25
 930.383789062 1901 930.383789062 1901 988.749023438 1820.5 c 128,-1,26
 1047.11425781 1740 1047.11425781 1740 1027.16992188 1626 c 0,27,28
 1013.17480469 1546 1013.17480469 1546 966.96875 1482.5 c 128,-1,29
 920.762695312 1419 920.762695312 1419 849.837890625 1384 c 1,30,-1
 1069.06542969 106 l 1,31,-1
 1201.36523438 106 l 1,32,-1
 1182.81640625 0 l 1,33,-1
 694.1171875 0 l 1,34,-1
 712.661132812 106 l 1,35,-1
 862.061523438 106 l 1,36,-1
 806.942382812 434 l 1,37,-1
 241.743164062 434 l 1,38,-1
 71.861328125 106 l 1,39,-1
 219.4609375 106 l 1,40,-1
 200.916992188 0 l 1,41,-1
 -177.083007812 0 l 1,15,-1
EndSplineSet
EndChar
StartChar: AE
Encoding: 198 198 198
Width: 1845
Flags: W
AnchorPoint: "below" 950.31 0 basechar 0
AnchorPoint: "above" 1206.59 1465 basechar 0
LayerCount: 2
Back
Fore
SplineSet
347.44921875 541 m 1,0,-1
 787.549804688 541 l 1,1,-1
 935.37890625 1386 l 1,2,-1
 845.375976562 1386 l 1,3,-1
 347.44921875 541 l 1,0,-1
521.90625 0 m 1,4,-1
 540.44921875 106 l 1,5,-1
 711.44921875 106 l 1,6,-1
 768.830078125 434 l 1,7,-1
 284.630859375 434 l 1,8,-1
 90.44921875 106 l 1,9,-1
 238.048828125 106 l 1,10,-1
 219.506835938 0 l 1,11,-1
 -162.09375 0 l 1,12,-1
 -143.55078125 106 l 1,13,-1
 -25.6513671875 106 l 1,14,-1
 729.276367188 1386 l 1,15,-1
 535.776367188 1386 l 1,16,-1
 554.493164062 1493 l 1,17,-1
 1864.88964844 1493 l 1,18,-1
 1806.81347656 1161 l 1,19,-1
 1696.11328125 1161 l 1,20,-1
 1732.6796875 1370 l 1,21,-1
 1113.48046875 1370 l 1,22,-1
 1026.00878906 870 l 1,23,-1
 1468.80859375 870 l 1,24,-1
 1501.52441406 1057 l 1,25,-1
 1612.22363281 1057 l 1,26,-1
 1525.44628906 561 l 1,27,-1
 1414.74609375 561 l 1,28,-1
 1447.4609375 748 l 1,29,-1
 1004.66113281 748 l 1,30,-1
 895.323242188 123 l 1,31,-1
 1529.8203125 123 l 1,32,-1
 1566.38671875 332 l 1,33,-1
 1677.08691406 332 l 1,34,-1
 1619.00976562 0 l 1,35,-1
 521.90625 0 l 1,4,-1
EndSplineSet
EndChar
StartChar: Eth
Encoding: 208 208 208
Width: 1487
Flags: W
LayerCount: 2
Back
Fore
SplineSet
350.548828125 106 m 1,0,-1
 519.749023438 106 l 2,1,2
 781.649414062 106 781.649414062 106 951.092773438 272 c 128,-1,3
 1120.52734375 438 1120.52734375 438 1174.76074219 748 c 0,4,5
 1228.99511719 1058 1228.99511719 1058 1117.73730469 1222 c 128,-1,6
 1006.47851562 1386 1006.47851562 1386 743.676757812 1386 c 2,7,-1
 574.4765625 1386 l 1,8,-1
 479.657226562 844 l 1,9,-1
 782.056640625 844 l 1,10,-1
 760.188476562 719 l 1,11,-1
 457.7890625 719 l 1,12,-1
 350.548828125 106 l 1,0,-1
-19.89453125 0 m 1,13,-1
 -1.3505859375 106 l 1,14,-1
 169.649414062 106 l 1,15,-1
 276.888671875 719 l 1,16,-1
 96.888671875 719 l 1,17,-1
 118.756835938 844 l 1,18,-1
 298.756835938 844 l 1,19,-1
 393.576171875 1386 l 1,20,-1
 222.576171875 1386 l 1,21,-1
 241.293945312 1493 l 1,22,-1
 775.893554688 1493 l 2,23,24
 1123.29003906 1493 1123.29003906 1493 1282.77929688 1296 c 128,-1,25
 1442.26757812 1099 1442.26757812 1099 1380.86132812 748 c 0,26,27
 1319.28320312 396 1319.28320312 396 1090.2421875 198 c 128,-1,28
 861.206054688 0 861.206054688 0 514.706054688 0 c 2,29,-1
 -19.89453125 0 l 1,13,-1
EndSplineSet
EndChar
StartChar: multiply
Encoding: 215 215 215
Width: 1544
Flags: W
LayerCount: 2
Back
Fore
SplineSet
1290.59960938 1104 m 1,0,-1
 873.900390625 641 l 1,1,-1
 1290.59960938 180 l 1,2,-1
 1187.09960938 68 l 1,3,-1
 772.200195312 528 l 1,4,-1
 357.299804688 68 l 1,5,-1
 254.700195312 180 l 1,6,-1
 668.700195312 641 l 1,7,-1
 254.700195312 1104 l 1,8,-1
 357.299804688 1217 l 1,9,-1
 772.200195312 756 l 1,10,-1
 1187.09960938 1217 l 1,11,-1
 1290.59960938 1104 l 1,0,-1
EndSplineSet
EndChar
StartChar: Oslash
Encoding: 216 216 216
Width: 1511
Flags: W
AnchorPoint: "below" 625.581 0 basechar 0
AnchorPoint: "above" 881.87 1465 basechar 0
LayerCount: 2
Back
Fore
SplineSet
1178.75683594 1239 m 1,0,1
 1135.65625 1327 1135.65625 1327 1059.9296875 1370 c 128,-1,2
 984.1953125 1413 984.1953125 1413 872.599609375 1413 c 0,3,4
 651.19921875 1413 651.19921875 1413 509.221679688 1244.5 c 128,-1,5
 367.243164062 1076 367.243164062 1076 309.336914062 745 c 0,6,7
 288.51953125 626 288.51953125 626 286.037109375 529.5 c 128,-1,8
 283.555664062 433 283.555664062 433 299.985351562 352 c 1,9,-1
 1178.75683594 1239 l 1,0,1
330.890625 256 m 1,10,11
 372.919921875 167 372.919921875 167 449.736328125 122.5 c 128,-1,12
 526.551757812 78 526.551757812 78 639.051757812 78 c 0,13,14
 859.551757812 78 859.551757812 78 1001.52929688 246.5 c 128,-1,15
 1143.50390625 415 1143.50390625 415 1201.23925781 745 c 0,16,17
 1221.70507812 862 1221.70507812 862 1224.08984375 960.5 c 128,-1,18
 1226.46582031 1059 1226.46582031 1059 1210.21191406 1141 c 1,19,-1
 330.890625 256 l 1,10,11
1344.52832031 1276 m 1,20,21
 1403.93652344 1168 1403.93652344 1168 1420.08300781 1036.5 c 128,-1,22
 1436.22851562 905 1436.22851562 905 1408.23925781 745 c 0,23,24
 1347.88476562 400 1347.88476562 400 1129.90527344 185.5 c 128,-1,25
 911.93359375 -29 911.93359375 -29 620.33203125 -29 c 0,26,27
 493.432617188 -29 493.432617188 -29 393.854492188 14 c 128,-1,28
 294.27734375 57 294.27734375 57 218.421875 143 c 1,29,-1
 19.6337890625 -57 l 1,30,-1
 -38.4951171875 12 l 1,31,-1
 166.018554688 219 l 1,32,33
 106.086914062 324 106.086914062 324 90.6669921875 454.5 c 128,-1,34
 75.2470703125 585 75.2470703125 585 103.237304688 745 c 0,35,36
 163.767578125 1091 163.767578125 1091 382.192382812 1305.5 c 128,-1,37
 600.618164062 1520 600.618164062 1520 891.318359375 1520 c 0,38,39
 1018.21484375 1520 1018.21484375 1520 1118.78125 1477.5 c 128,-1,40
 1219.34667969 1435 1219.34667969 1435 1291.23046875 1352 c 1,41,-1
 1486.06152344 1550 l 1,42,-1
 1545.64160156 1479 l 1,43,-1
 1344.52832031 1276 l 1,20,21
EndSplineSet
EndChar
StartChar: Thorn
Encoding: 222 222 222
Width: 1245
Flags: W
LayerCount: 2
Back
Fore
SplineSet
400.73046875 434 m 1,0,-1
 638.330078125 434 l 2,1,2
 772.430664062 434 772.430664062 434 856.712890625 514.5 c 128,-1,3
 940.995117188 595 940.995117188 595 967.760742188 748 c 0,4,5
 994.356445312 900 994.356445312 900 938.241210938 980.5 c 128,-1,6
 882.120117188 1061 882.120117188 1061 748.01953125 1061 c 2,7,-1
 510.419921875 1061 l 1,8,-1
 400.73046875 434 l 1,0,-1
-28.89453125 0 m 1,9,-1
 -10.3505859375 106 l 1,10,-1
 160.649414062 106 l 1,11,-1
 384.576171875 1386 l 1,12,-1
 213.576171875 1386 l 1,13,-1
 232.293945312 1493 l 1,14,-1
 793.893554688 1493 l 1,15,-1
 775.176757812 1386 l 1,16,-1
 567.276367188 1386 l 1,17,-1
 528.962890625 1167 l 1,18,-1
 810.663085938 1167 l 2,19,20
 1012.265625 1167 1012.265625 1167 1110.30273438 1053.5 c 128,-1,21
 1208.34863281 940 1208.34863281 940 1174.76074219 748 c 0,22,23
 1140.82226562 554 1140.82226562 554 1002.52832031 440 c 128,-1,24
 864.236328125 326 864.236328125 326 663.537109375 326 c 2,25,-1
 381.836914062 326 l 1,26,-1
 343.348632812 106 l 1,27,-1
 551.249023438 106 l 1,28,-1
 532.706054688 0 l 1,29,-1
 -28.89453125 0 l 1,9,-1
EndSplineSet
EndChar
StartChar: germandbls
Encoding: 223 223 223
Width: 1231
Flags: W
LayerCount: 2
Back
Fore
SplineSet
899.099609375 1327 m 0,0,1
 899.099609375 1377 899.099609375 1377 867.150390625 1417.5 c 128,-1,2
 835.200195312 1458 835.200195312 1458 728.099609375 1458 c 0,3,4
 609.299804688 1458 609.299804688 1458 543.150390625 1393.5 c 128,-1,5
 477 1329 477 1329 452.700195312 1190 c 2,6,-1
 233.099609375 -66 l 2,7,8
 201.599609375 -245 201.599609375 -245 102.599609375 -335.5 c 128,-1,9
 3.599609375 -426 3.599609375 -426 -157.5 -426 c 1,10,-1
 -146.700195312 -328 l 1,11,12
 -52.2001953125 -328 -52.2001953125 -328 -4.9501953125 -269.5 c 128,-1,13
 42.2998046875 -211 42.2998046875 -211 67.5 -66 c 2,14,-1
 286.200195312 1186 l 2,15,16
 316.799804688 1362 316.799804688 1362 436.950195312 1459 c 128,-1,17
 557.099609375 1556 557.099609375 1556 745.200195312 1556 c 0,18,19
 936.900390625 1556 936.900390625 1556 1005.29980469 1484 c 128,-1,20
 1073.70019531 1412 1073.70019531 1412 1073.70019531 1332 c 0,21,22
 1073.70019531 1237 1073.70019531 1237 915.75 1133.5 c 128,-1,23
 757.799804688 1030 757.799804688 1030 739.799804688 936 c 0,24,25
 729.900390625 884 729.900390625 884 747 844.5 c 128,-1,26
 764.099609375 805 764.099609375 805 822.599609375 760 c 2,27,-1
 893.700195312 705 l 2,28,29
 1017 609 1017 609 1054.79980469 522.5 c 128,-1,30
 1092.59960938 436 1092.59960938 436 1072.79980469 322 c 0,31,32
 1045.79980469 167 1045.79980469 167 924.75 69 c 128,-1,33
 803.700195312 -29 803.700195312 -29 637.200195312 -29 c 0,34,35
 560.700195312 -29 560.700195312 -29 488.25 -10.5 c 128,-1,36
 415.799804688 8 415.799804688 8 351 43 c 1,37,-1
 391.5 276 l 1,38,-1
 489.599609375 276 l 1,39,40
 476.099609375 175 476.099609375 175 516.599609375 122.5 c 128,-1,41
 557.099609375 70 557.099609375 70 648.900390625 70 c 0,42,43
 748.799804688 70 748.799804688 70 816.75 130.5 c 128,-1,44
 884.700195312 191 884.700195312 191 902.700195312 295 c 0,45,46
 917.099609375 379 917.099609375 379 891.450195312 437 c 128,-1,47
 865.799804688 495 865.799804688 495 773.099609375 569 c 2,48,-1
 705.599609375 623 l 2,49,50
 622.799804688 689 622.799804688 689 594 753 c 128,-1,51
 565.200195312 817 565.200195312 817 579.599609375 899 c 0,52,53
 601.200195312 1021 601.200195312 1021 750.150390625 1141 c 128,-1,54
 899.099609375 1261 899.099609375 1261 899.099609375 1327 c 0,0,1
EndSplineSet
EndChar
StartChar: ae
Encoding: 230 230 230
Width: 1732
Flags: W
AnchorPoint: "below" 720.704 0 basechar 0
AnchorPoint: "above" 910.881 1092 basechar 0
LayerCount: 2
Back
Fore
SplineSet
1373.40039062 632 m 0,0,1
 1474.20019531 698 1474.20019531 698 1474.20019531 822 c 0,2,3
 1474.20019531 993 1474.20019531 993 1269.90039062 993 c 0,4,5
 1149.29980469 993 1149.29980469 993 1065.59960938 891 c 128,-1,6
 981.900390625 789 981.900390625 789 930.599609375 514 c 1,7,8
 1215.90039062 528 1215.90039062 528 1373.40039062 632 c 0,0,1
1075.5 -29 m 0,9,10
 861.299804688 -29 861.299804688 -29 765.900390625 167 c 1,11,12
 636.299804688 -29 636.299804688 -29 369.369140625 -29.107421875 c 0,13,14
 362.700195312 -29 362.700195312 -29 356.400390625 -29 c 0,15,16
 198 -29 198 -29 117.900390625 90 c 0,17,18
 62.099609375 174 62.099609375 174 62.099609375 294 c 0,19,20
 62.099609375 345 62.099609375 345 72 402 c 0,21,22
 133.200195312 755 133.200195312 755 354.599609375 937 c 0,23,24
 542.700195312 1092 542.700195312 1092 770.400390625 1092 c 0,25,26
 923.400390625 1092 923.400390625 1092 975.599609375 1063 c 1,27,-1
 958.5 966 l 1,28,29
 1101.59960938 1092 1101.59960938 1092 1297.79980469 1092 c 0,30,31
 1649.70019531 1092 1649.70019531 1092 1649.70019531 815 c 0,32,33
 1649.70019531 416 1649.70019531 416 911.700195312 408 c 1,34,35
 908.099609375 370 908.099609375 370 908.099609375 336 c 0,36,37
 908.099609375 242 908.099609375 242 938.700195312 180 c 0,38,39
 991.799804688 70 991.799804688 70 1134 70 c 0,40,41
 1238.40039062 70 1238.40039062 70 1289.70019531 105 c 0,42,43
 1381.5 168 1381.5 168 1403.09960938 249 c 1,44,-1
 1524.59960938 249 l 1,45,46
 1488.59960938 122 1488.59960938 122 1354.5 33 c 0,47,48
 1260.90039062 -29 1260.90039062 -29 1075.5 -29 c 0,9,10
248.400390625 415 m 0,49,50
 236.700195312 350 236.700195312 350 236.700195312 297 c 0,51,52
 236.700195312 86 236.700195312 86 423 86 c 0,53,54
 536.400390625 86 536.400390625 86 613.349609375 186.5 c 128,-1,55
 690.299804688 287 690.299804688 287 724.5 479 c 2,56,-1
 808.200195312 961 l 1,57,58
 808.200195312 990 808.200195312 990 736.200195312 990 c 0,59,60
 563.400390625 990 563.400390625 990 429.299804688 840 c 0,61,62
 296.099609375 689 296.099609375 689 248.400390625 415 c 0,49,50
EndSplineSet
AlternateSubs2: "'aalt' Access All Alternates" ae.alt
Substitution2: "'salt' Stylistic Alternatives" ae.alt
EndChar
StartChar: eth
Encoding: 240 240 240
Width: 1109
Flags: W
LayerCount: 2
Back
Fore
SplineSet
767.678710938 928 m 1,0,1
 728.752929688 937 728.752929688 937 693.08984375 941.5 c 128,-1,2
 657.427734375 946 657.427734375 946 621.427734375 946 c 0,3,4
 465.727539062 946 465.727539062 946 372.758789062 839 c 128,-1,5
 279.7890625 732 279.7890625 732 240.602539062 508 c 0,6,7
 203.864257812 298 203.864257812 298 254.5703125 184 c 128,-1,8
 305.27734375 70 305.27734375 70 433.077148438 70 c 0,9,10
 562.677734375 70 562.677734375 70 652.458984375 184.5 c 128,-1,11
 742.239257812 299 742.239257812 299 779.501953125 512 c 0,12,13
 799.095703125 624 799.095703125 624 796.40234375 729.5 c 128,-1,14
 793.708007812 835 793.708007812 835 767.678710938 928 c 1,0,1
779.081054688 1307 m 1,15,16
 914.561523438 1140 914.561523438 1140 964.51171875 944.5 c 128,-1,17
 1014.46191406 749 1014.46191406 749 976.5 532 c 0,18,19
 932.067382812 278 932.067382812 278 778.76171875 124.5 c 128,-1,20
 625.458007812 -29 625.458007812 -29 415.7578125 -29 c 0,21,22
 209.657226562 -29 209.657226562 -29 107.912109375 122.5 c 128,-1,23
 6.166015625 274 6.166015625 274 48.8515625 518 c 0,24,25
 90.1376953125 754 90.1376953125 754 242.405273438 899 c 128,-1,26
 394.670898438 1044 394.670898438 1044 599.87109375 1044 c 0,27,28
 631.37109375 1044 631.37109375 1044 664.595703125 1041 c 128,-1,29
 697.821289062 1038 697.821289062 1038 743.22265625 1030 c 1,30,31
 732.693359375 1083 732.693359375 1083 709.203125 1136.5 c 128,-1,32
 685.712890625 1190 685.712890625 1190 650.334960938 1245 c 1,33,-1
 334.46875 1096 l 1,34,-1
 314.813476562 1174 l 1,35,-1
 602.130859375 1309 l 1,36,37
 557.377929688 1367 557.377929688 1367 493.8125 1407.5 c 128,-1,38
 430.249023438 1448 430.249023438 1448 348.596679688 1470 c 1,39,-1
 379.842773438 1556 l 1,40,41
 482.392578125 1530 482.392578125 1530 568.220703125 1483 c 128,-1,42
 654.048828125 1436 654.048828125 1436 724.953125 1368 c 1,43,-1
 1040.99414062 1518 l 1,44,-1
 1060.65039062 1440 l 1,45,-1
 779.081054688 1307 l 1,15,16
EndSplineSet
EndChar
StartChar: divide
Encoding: 247 247 247
Width: 1544
Flags: W
LayerCount: 2
Back
Fore
SplineSet
652.5 1012 m 0,0,1
 652.5 1068 652.5 1068 687.150390625 1106.5 c 128,-1,2
 721.799804688 1145 721.799804688 1145 772.200195312 1145 c 0,3,4
 821.700195312 1145 821.700195312 1145 856.799804688 1106 c 128,-1,5
 891.900390625 1067 891.900390625 1067 891.900390625 1012 c 0,6,7
 891.900390625 956 891.900390625 956 856.799804688 917.5 c 128,-1,8
 821.700195312 879 821.700195312 879 772.200195312 879 c 0,9,10
 720.900390625 879 720.900390625 879 686.700195312 917 c 128,-1,11
 652.5 955 652.5 955 652.5 1012 c 0,0,1
652.5 272 m 0,12,13
 652.5 328 652.5 328 687.150390625 367 c 128,-1,14
 721.799804688 406 721.799804688 406 772.200195312 406 c 0,15,16
 821.700195312 406 821.700195312 406 856.799804688 367 c 128,-1,17
 891.900390625 328 891.900390625 328 891.900390625 272 c 0,18,19
 891.900390625 217 891.900390625 217 856.799804688 178 c 128,-1,20
 821.700195312 139 821.700195312 139 772.200195312 139 c 0,21,22
 720.900390625 139 720.900390625 139 686.700195312 177.5 c 128,-1,23
 652.5 216 652.5 216 652.5 272 c 0,12,13
195.299804688 723 m 1,24,-1
 1349.09960938 723 l 1,25,-1
 1349.09960938 561 l 1,26,-1
 195.299804688 561 l 1,27,-1
 195.299804688 723 l 1,24,-1
EndSplineSet
EndChar
StartChar: oslash
Encoding: 248 248 248
Width: 1109
Flags: W
AnchorPoint: "above" 651.6 1092 basechar 0
AnchorPoint: "below" 461.418 0 basechar 0
LayerCount: 2
Back
Fore
SplineSet
816.791992188 879 m 1,0,1
 792.564453125 936 792.564453125 936 747.150390625 964.5 c 128,-1,2
 701.736328125 993 701.736328125 993 635.135742188 993 c 0,3,4
 502.8359375 993 502.8359375 993 413.967773438 876 c 128,-1,5
 325.099609375 759 325.099609375 759 285.388671875 532 c 0,6,7
 272.791992188 460 272.791992188 460 269.220703125 401 c 128,-1,8
 265.6484375 342 265.6484375 342 269.676757812 293 c 1,9,-1
 816.791992188 879 l 1,0,1
292.157226562 190 m 1,10,11
 317.485351562 129 317.485351562 129 362.274414062 99.5 c 128,-1,12
 407.064453125 70 407.064453125 70 473.665039062 70 c 0,13,14
 605.96484375 70 605.96484375 70 694.919921875 187.5 c 128,-1,15
 783.875976562 305 783.875976562 305 823.587890625 532 c 0,16,17
 836.8828125 608 836.8828125 608 840.716796875 668.5 c 128,-1,18
 844.55078125 729 844.55078125 729 839.973632812 780 c 1,19,-1
 292.157226562 190 l 1,10,11
971.918945312 922 m 1,20,21
 1014.76757812 848 1014.76757812 848 1026.25195312 749 c 128,-1,22
 1037.7265625 650 1037.7265625 650 1017.08984375 532 c 0,23,24
 972.6484375 278 972.6484375 278 819.349609375 124.5 c 128,-1,25
 666.044921875 -29 666.044921875 -29 456.344726562 -29 c 0,26,27
 371.745117188 -29 371.745117188 -29 304.380859375 -2.5 c 128,-1,28
 237.016601562 24 237.016601562 24 186.1640625 78 c 1,29,-1
 27.373046875 -94 l 1,30,-1
 -30.0048828125 -31 l 1,31,-1
 135.235351562 147 l 1,32,33
 93.8056640625 224 93.8056640625 224 82.787109375 320.5 c 128,-1,34
 71.7685546875 417 71.7685546875 417 91.888671875 532 c 0,35,36
 136.323242188 786 136.323242188 786 289.5390625 939 c 128,-1,37
 442.754882812 1092 442.754882812 1092 652.455078125 1092 c 0,38,39
 737.0546875 1092 737.0546875 1092 804.59375 1066.5 c 128,-1,40
 872.1328125 1041 872.1328125 1041 920.98828125 991 c 1,41,-1
 1075.12207031 1157 l 1,42,-1
 1132.50585938 1094 l 1,43,-1
 971.918945312 922 l 1,20,21
EndSplineSet
EndChar
StartChar: thorn
Encoding: 254 254 254
Width: 1179
Flags: W
LayerCount: 2
Back
Fore
SplineSet
381.321289062 584 m 2,0,-1
 362.952148438 479 l 2,1,2
 349.217773438 400.5 349.217773438 400.5 349.217773438 337.299804688 c 0,3,4
 349.217773438 245.91015625 349.217773438 245.91015625 377.936523438 186.5 c 0,5,6
 426.500976562 86 426.500976562 86 552.500976562 86 c 0,7,8
 679.401367188 86 679.401367188 86 764.423828125 199 c 0,9,10
 849.438476562 312 849.438476562 312 887.930664062 532 c 0,11,12
 905.65234375 633.330078125 905.65234375 633.330078125 905.65234375 711.75 c 0,13,14
 905.65234375 804.349609375 905.65234375 804.349609375 880.928710938 865 c 0,15,16
 835.272460938 977 835.272460938 977 708.372070312 977 c 0,17,18
 582.372070312 977 582.372070312 977 498.5546875 876 c 128,-1,19
 414.73828125 775 414.73828125 775 381.321289062 584 c 2,0,-1
367.2265625 1450 m 1,20,-1
 207.926757812 1450 l 1,21,-1
 226.466796875 1556 l 1,22,-1
 551.3671875 1556 l 1,23,-1
 436.077148438 897 l 1,24,25
 502.172851562 997 502.172851562 997 585.638671875 1044.5 c 0,26,27
 669.095703125 1092 669.095703125 1092 779.795898438 1092 c 0,28,29
 956.196289062 1092 956.196289062 1092 1040.67871094 937 c 0,30,31
 1096.34375 834.870117188 1096.34375 834.870117188 1096.34375 691.5 c 0,32,33
 1096.34375 617.26953125 1096.34375 617.26953125 1081.43066406 532 c 0,34,35
 1037.69140625 282 1037.69140625 282 898.883789062 126.5 c 0,36,37
 760.0859375 -29 760.0859375 -29 583.685546875 -29 c 0,38,39
 472.986328125 -29 472.986328125 -29 406.142578125 18.5 c 128,-1,40
 339.299804688 66 339.299804688 66 308.196289062 166 c 1,41,-1
 204.6328125 -426 l 1,42,-1
 39.033203125 -426 l 1,43,-1
 367.2265625 1450 l 1,20,-1
EndSplineSet
EndChar
StartChar: dcroat
Encoding: 273 273 273
Width: 1179
Flags: W
LayerCount: 2
Back
Fore
SplineSet
1048.58984375 1227 m 1,0,-1
 833.930664062 0 l 1,1,-1
 668.331054688 0 l 1,2,-1
 697.374023438 166 l 1,3,4
 631.278320312 66 631.278320312 66 547.821289062 18.5 c 0,5,6
 464.35546875 -29 464.35546875 -29 353.655273438 -29 c 0,7,8
 177.254882812 -29 177.254882812 -29 92.412109375 126.5 c 0,9,10
 36.4228515625 229.110351562 36.4228515625 229.110351562 36.4228515625 372.860351562 c 0,11,12
 36.4228515625 446.969726562 36.4228515625 446.969726562 51.2998046875 532 c 0,13,14
 95.0400390625 782 95.0400390625 782 233.748046875 937 c 0,15,16
 372.46484375 1092 372.46484375 1092 549.764648438 1092 c 0,17,18
 660.46484375 1092 660.46484375 1092 727.307617188 1044.5 c 128,-1,19
 794.151367188 997 794.151367188 997 825.254882812 897 c 1,20,-1
 882.990234375 1227 l 1,21,-1
 589.58984375 1227 l 1,22,-1
 608.129882812 1333 l 1,23,-1
 901.530273438 1333 l 1,24,-1
 921.99609375 1450 l 1,25,-1
 765.396484375 1450 l 1,26,-1
 783.9453125 1556 l 1,27,-1
 1106.14453125 1556 l 1,28,-1
 1067.12988281 1333 l 1,29,-1
 1225.53027344 1333 l 1,30,-1
 1206.99023438 1227 l 1,31,-1
 1048.58984375 1227 l 1,0,-1
752.129882812 479 m 2,32,-1
 770.499023438 584 l 2,33,34
 784.133789062 661.9296875 784.133789062 661.9296875 784.133789062 724.879882812 c 0,35,36
 784.133789062 816.209960938 784.133789062 816.209960938 755.432617188 876 c 0,37,38
 706.950195312 977 706.950195312 977 580.950195312 977 c 0,39,40
 453.150390625 977 453.150390625 977 368.306640625 865 c 0,41,42
 283.463867188 753 283.463867188 753 244.799804688 532 c 0,43,44
 227.16015625 431.16015625 227.16015625 431.16015625 227.16015625 352.799804688 c 0,45,46
 227.16015625 260.209960938 227.16015625 260.209960938 251.79296875 199 c 0,47,48
 297.279296875 86 297.279296875 86 425.079101562 86 c 0,49,50
 551.079101562 86 551.079101562 86 634.805664062 186.5 c 0,51,52
 718.541992188 287 718.541992188 287 752.129882812 479 c 2,32,-1
EndSplineSet
AlternateSubs2: "'aalt' Access All Alternates" dcroat.alt
Substitution2: "'salt' Stylistic Alternatives" dcroat.alt
EndChar
StartChar: Hbar
Encoding: 294 294 294
Width: 1607
Flags: W
AnchorPoint: "above" 929.7 1465 basechar 0
AnchorPoint: "below" 673.2 0 basechar 0
LayerCount: 2
Back
Fore
SplineSet
477 870 m 1,0,-1
 1173.59960938 870 l 1,1,-1
 1207.79980469 1067 l 1,2,-1
 511.200195312 1067 l 1,3,-1
 477 870 l 1,0,-1
-28.7998046875 0 m 1,4,-1
 -10.7998046875 106 l 1,5,-1
 160.200195312 106 l 1,6,-1
 328.5 1067 l 1,7,-1
 157.5 1067 l 1,8,-1
 179.099609375 1189 l 1,9,-1
 350.099609375 1189 l 1,10,-1
 384.299804688 1386 l 1,11,-1
 213.299804688 1386 l 1,12,-1
 232.200195312 1493 l 1,13,-1
 756.900390625 1493 l 1,14,-1
 738 1386 l 1,15,-1
 567 1386 l 1,16,-1
 532.799804688 1189 l 1,17,-1
 1229.40039062 1189 l 1,18,-1
 1263.59960938 1386 l 1,19,-1
 1092.59960938 1386 l 1,20,-1
 1111.5 1493 l 1,21,-1
 1636.20019531 1493 l 1,22,-1
 1617.29980469 1386 l 1,23,-1
 1446.29980469 1386 l 1,24,-1
 1412.09960938 1189 l 1,25,-1
 1583.09960938 1189 l 1,26,-1
 1561.5 1067 l 1,27,-1
 1390.5 1067 l 1,28,-1
 1222.20019531 106 l 1,29,-1
 1393.20019531 106 l 1,30,-1
 1375.20019531 0 l 1,31,-1
 850.5 0 l 1,32,-1
 868.5 106 l 1,33,-1
 1039.5 106 l 1,34,-1
 1152 748 l 1,35,-1
 455.400390625 748 l 1,36,-1
 342.900390625 106 l 1,37,-1
 513.900390625 106 l 1,38,-1
 495.900390625 0 l 1,39,-1
 -28.7998046875 0 l 1,4,-1
EndSplineSet
EndChar
StartChar: hbar
Encoding: 295 295 295
Width: 1187
Flags: W
AnchorPoint: "above" 341.554 1465 basechar 0
LayerCount: 2
Back
Fore
SplineSet
88.892578125 0 m 1,0,-1
 300.573242188 1210 l 1,1,-1
 142.172851562 1210 l 1,2,-1
 163.521484375 1332 l 1,3,-1
 321.920898438 1332 l 1,4,-1
 342.557617188 1450 l 1,5,-1
 184.158203125 1450 l 1,6,-1
 202.70703125 1556 l 1,7,-1
 526.70703125 1556 l 1,8,-1
 487.521484375 1332 l 1,9,-1
 771.920898438 1332 l 1,10,-1
 750.573242188 1210 l 1,11,-1
 466.172851562 1210 l 1,12,-1
 407.393554688 874 l 1,13,14
 472.184570312 982 472.184570312 982 555.15625 1037 c 0,15,16
 638.135742188 1092 638.135742188 1092 735.3359375 1092 c 0,17,18
 893.736328125 1092 893.736328125 1092 950.759765625 991 c 0,19,20
 985.194335938 930.030273438 985.194335938 930.030273438 985.194335938 827.870117188 c 0,21,22
 985.194335938 760.809570312 985.194335938 760.809570312 970.352539062 676 c 2,23,-1
 870.641601562 106 l 1,24,-1
 1018.2421875 106 l 1,25,-1
 999.693359375 0 l 1,26,-1
 685.592773438 0 l 1,27,-1
 793.709960938 618 l 2,28,29
 811.791015625 721.370117188 811.791015625 721.370117188 811.791015625 790.030273438 c 0,30,31
 811.791015625 850.900390625 811.791015625 850.900390625 797.580078125 884.5 c 0,32,33
 767.33984375 956 767.33984375 956 657.540039062 956 c 0,34,35
 542.33984375 956 542.33984375 956 465.767578125 863 c 0,36,37
 389.205078125 770 389.205078125 770 358.065429688 592 c 2,38,-1
 254.493164062 0 l 1,39,-1
 88.892578125 0 l 1,0,-1
EndSplineSet
EndChar
StartChar: dotlessi
Encoding: 305 305 305
Width: 589
Flags: W
AnchorPoint: "above" 392.4 1092 basechar 0
LayerCount: 2
Back
Fore
SplineSet
315.900390625 106 m 1,0,-1
 472.5 106 l 1,1,-1
 454.5 0 l 1,2,-1
 132.299804688 0 l 1,3,-1
 299.700195312 956 l 1,4,-1
 141.299804688 956 l 1,5,-1
 159.299804688 1063 l 1,6,-1
 483.299804688 1063 l 1,7,-1
 315.900390625 106 l 1,0,-1
EndSplineSet
EndChar
StartChar: kgreenlandic
Encoding: 312 312 312
Width: 1116
Flags: W
LayerCount: 2
Back
Fore
SplineSet
285.282226562 0 m 1,0,-1
 119.681640625 0 l 1,1,-1
 286.3984375 953 l 1,2,-1
 127.09765625 953 l 1,3,-1
 145.818359375 1060 l 1,4,-1
 470.717773438 1060 l 1,5,-1
 379.92578125 541 l 1,6,-1
 855.198242188 953 l 1,7,-1
 717.498046875 953 l 1,8,-1
 736.217773438 1060 l 1,9,-1
 1005.31835938 1060 l 1,10,-1
 986.59765625 953 l 1,11,-1
 651.293945312 662 l 1,12,-1
 917.622070312 106 l 1,13,-1
 1055.32226562 106 l 1,14,-1
 1036.78222656 0 l 1,15,-1
 771.282226562 0 l 1,16,-1
 510.42578125 541 l 1,17,-1
 356.309570312 406 l 1,18,-1
 285.282226562 0 l 1,0,-1
EndSplineSet
EndChar
StartChar: Lslash
Encoding: 321 321 321
Width: 1233
Flags: W
LayerCount: 2
Back
Fore
SplineSet
-19.89453125 0 m 1,0,-1
 -1.3505859375 106 l 1,1,-1
 169.649414062 106 l 1,2,-1
 253.622070312 586 l 1,3,-1
 92.5537109375 473 l 1,4,-1
 45.6474609375 565 l 1,5,-1
 278.2890625 727 l 1,6,-1
 393.576171875 1386 l 1,7,-1
 222.576171875 1386 l 1,8,-1
 241.293945312 1493 l 1,9,-1
 765.09375 1493 l 1,10,-1
 746.375976562 1386 l 1,11,-1
 574.4765625 1386 l 1,12,-1
 484.205078125 870 l 1,13,-1
 800.041992188 1096 l 1,14,-1
 846.947265625 1004 l 1,15,-1
 459.5390625 729 l 1,16,-1
 353.5234375 123 l 1,17,-1
 969.120117188 123 l 1,18,-1
 1012.86035156 373 l 1,19,-1
 1123.55957031 373 l 1,20,-1
 1058.30957031 0 l 1,21,-1
 -19.89453125 0 l 1,0,-1
EndSplineSet
EndChar
StartChar: lslash
Encoding: 322 322 322
Width: 597
Flags: W
LayerCount: 2
Back
Fore
SplineSet
267.641601562 106 m 1,0,-1
 426.041992188 106 l 1,1,-1
 407.493164062 0 l 1,2,-1
 83.4931640625 0 l 1,3,-1
 202.455078125 680 l 1,4,-1
 61.4609375 584 l 1,5,-1
 21.609375 670 l 1,6,-1
 225.369140625 811 l 1,7,-1
 337.158203125 1450 l 1,8,-1
 180.557617188 1450 l 1,9,-1
 199.107421875 1556 l 1,10,-1
 521.306640625 1556 l 1,11,-1
 413.541015625 940 l 1,12,-1
 562.986328125 1038 l 1,13,-1
 601.938476562 952 l 1,14,-1
 390.96875 811 l 1,15,-1
 267.641601562 106 l 1,0,-1
EndSplineSet
EndChar
StartChar: Eng
Encoding: 330 330 330
Width: 1553
Flags: W
LayerCount: 2
Back
Fore
SplineSet
736.200195312 -181 m 0,0,1
 736.200195312 -319 736.200195312 -319 867.599609375 -319 c 0,2,3
 974.700195312 -319 974.700195312 -319 1030.04980469 -245 c 128,-1,4
 1085.40039062 -171 1085.40039062 -171 1124.09960938 49 c 2,5,-1
 1269 881 l 2,6,7
 1296 1031 1296 1031 1296 1130 c 128,-1,8
 1296 1229 1296 1229 1272.59960938 1282 c 0,9,10
 1224 1391 1224 1391 1048.5 1391 c 128,-1,11
 873 1391 873 1391 756 1262.5 c 128,-1,12
 639 1134 639 1134 595.799804688 887 c 2,13,-1
 459.900390625 107 l 1,14,-1
 630.900390625 107 l 1,15,-1
 612 0 l 1,16,-1
 86.400390625 0 l 1,17,-1
 105.299804688 107 l 1,18,-1
 277.200195312 107 l 1,19,-1
 500.400390625 1386 l 1,20,-1
 342 1386 l 1,21,-1
 360.900390625 1493 l 1,22,-1
 702 1493 l 1,23,-1
 666.900390625 1292 l 1,24,25
 841.5 1522 841.5 1522 1124.09960938 1522 c 0,26,27
 1351.79980469 1522 1351.79980469 1522 1433.70019531 1376 c 0,28,29
 1482.29980469 1289 1482.29980469 1289 1482.29980469 1167 c 128,-1,30
 1482.29980469 1045 1482.29980469 1045 1460.70019531 922 c 2,31,-1
 1306.79980469 41 l 2,32,33
 1263.59960938 -206 1263.59960938 -206 1155.15039062 -316 c 128,-1,34
 1046.70019531 -426 1046.70019531 -426 848.700195312 -426 c 0,35,36
 718.200195312 -426 718.200195312 -426 598.5 -358 c 1,37,-1
 639.900390625 -123 l 1,38,-1
 740.700195312 -123 l 1,39,40
 736.200195312 -155 736.200195312 -155 736.200195312 -181 c 0,0,1
EndSplineSet
AlternateSubs2: "'aalt' Access All Alternates" Eng.alt Eng.alt2
Substitution2: "'locl' Localized Forms in Latin - Sami" Eng.alt
EndChar
StartChar: eng
Encoding: 331 331 331
Width: 1187
Flags: W
LayerCount: 2
Back
Fore
SplineSet
747.783203125 -104 m 2,0,-1
 874.09765625 618 l 2,1,2
 892.09765625 720.919921875 892.09765625 720.919921875 892.09765625 789.719726562 c 0,3,4
 892.09765625 851.259765625 892.09765625 851.259765625 877.689453125 885.5 c 0,5,6
 847.178710938 958 847.178710938 958 738.279296875 958 c 0,7,8
 623.079101562 958 623.079101562 958 546.416992188 864.5 c 0,9,10
 469.763671875 771 469.763671875 771 438.444335938 592 c 2,11,-1
 334.880859375 0 l 1,12,-1
 169.28125 0 l 1,13,-1
 336.528320312 956 l 1,14,-1
 178.127929688 956 l 1,15,-1
 196.84765625 1063 l 1,16,-1
 520.84765625 1063 l 1,17,-1
 487.782226562 874 l 1,18,19
 552.573242188 982 552.573242188 982 635.543945312 1037 c 0,20,21
 718.514648438 1092 718.514648438 1092 815.71484375 1092 c 0,22,23
 972.333007812 1092 972.333007812 1092 1031.1484375 991 c 0,24,25
 1065.78027344 931.530273438 1065.78027344 931.530273438 1065.78027344 829.299804688 c 0,26,27
 1065.78027344 761.9296875 1065.78027344 761.9296875 1050.74121094 676 c 2,28,-1
 914.283203125 -104 l 2,29,30
 885.599609375 -268 885.599609375 -268 781.48828125 -361.5 c 0,31,32
 677.384765625 -455 677.384765625 -455 523.485351562 -455 c 0,33,34
 458.684570312 -455 458.684570312 -455 402.615234375 -438.5 c 128,-1,35
 346.553710938 -422 346.553710938 -422 296.532226562 -389 c 1,36,-1
 334.844726562 -170 l 1,37,-1
 420.344726562 -170 l 1,38,39
 417.64453125 -194.650390625 417.64453125 -194.650390625 417.64453125 -215.9296875 c 0,40,41
 417.64453125 -277.549804688 417.64453125 -277.549804688 440.225585938 -311 c 0,42,43
 470.600585938 -356 470.600585938 -356 544.401367188 -356 c 0,44,45
 626.30078125 -356 626.30078125 -356 676.206054688 -294.5 c 0,46,47
 724.967773438 -234.4296875 724.967773438 -234.4296875 747.783203125 -104 c 2,0,-1
EndSplineSet
EndChar
StartChar: OE
Encoding: 338 338 338
Width: 2096
Flags: W
LayerCount: 2
Back
Fore
SplineSet
911.25 106 m 1,0,-1
 1135.17871094 1386 l 1,1,-1
 966.87890625 1386 l 2,2,3
 704.076171875 1386 704.076171875 1386 535.884765625 1222 c 128,-1,4
 367.6953125 1058 367.6953125 1058 313.8125 750 c 0,5,6
 259.40625 439 259.40625 439 370.2265625 272.5 c 128,-1,7
 481.048828125 106 481.048828125 106 742.94921875 106 c 2,8,-1
 911.25 106 l 1,0,-1
1817.91015625 0 m 1,9,-1
 711.806640625 0 l 2,10,11
 365.306640625 0 365.306640625 0 205.544921875 198 c 128,-1,12
 45.783203125 396 45.783203125 396 107.712890625 750 c 0,13,14
 169.1171875 1101 169.1171875 1101 397.356445312 1297 c 128,-1,15
 625.59375 1493 625.59375 1493 972.990234375 1493 c 2,16,-1
 2063.79003906 1493 l 1,17,-1
 2005.71289062 1161 l 1,18,-1
 1895.01269531 1161 l 1,19,-1
 1931.58007812 1370 l 1,20,-1
 1314.1796875 1370 l 1,21,-1
 1226.70898438 870 l 1,22,-1
 1669.50878906 870 l 1,23,-1
 1702.22363281 1057 l 1,24,-1
 1811.12402344 1057 l 1,25,-1
 1724.34570312 561 l 1,26,-1
 1615.44628906 561 l 1,27,-1
 1648.16113281 748 l 1,28,-1
 1205.36132812 748 l 1,29,-1
 1096.01953125 123 l 1,30,-1
 1728.71972656 123 l 1,31,-1
 1765.28710938 332 l 1,32,-1
 1875.98730469 332 l 1,33,-1
 1817.91015625 0 l 1,9,-1
EndSplineSet
EndChar
StartChar: oe
Encoding: 339 339 339
Width: 1822
Flags: W
AnchorPoint: "below" 830.418 0 basechar 0
AnchorPoint: "above" 1021.46 1092 basechar 0
LayerCount: 2
Back
Fore
SplineSet
473.665039062 70 m 0,0,1
 606.864257812 70 606.864257812 70 695.282226562 187 c 128,-1,2
 783.700195312 304 783.700195312 304 823.587890625 532 c 128,-1,3
 863.474609375 760 863.474609375 760 815.90625 876.5 c 128,-1,4
 768.3359375 993 768.3359375 993 635.135742188 993 c 128,-1,5
 501.936523438 993 501.936523438 993 413.60546875 876.5 c 128,-1,6
 325.274414062 760 325.274414062 760 285.388671875 532 c 128,-1,7
 245.500976562 304 245.500976562 304 293.432617188 187 c 128,-1,8
 341.364257812 70 341.364257812 70 473.665039062 70 c 0,0,1
1463.40039062 631.790039062 m 0,9,10
 1563.76757812 698.462890625 1563.76757812 698.462890625 1563.76757812 822.1484375 c 0,11,12
 1563.76757812 993 1563.76757812 993 1359.6484375 993 c 0,13,14
 1239.05664062 993 1239.05664062 993 1155.48339844 891 c 128,-1,15
 1071.90039062 789 1071.90039062 789 1020.24023438 514 c 1,16,17
 1308.04199219 528.586914062 1308.04199219 528.586914062 1463.40039062 631.790039062 c 0,9,10
1001.70019531 408 m 1,18,19
 997.740234375 369.956054688 997.740234375 369.956054688 997.740234375 336.046875 c 0,20,21
 997.740234375 241.810546875 997.740234375 241.810546875 1028.32226562 179.5 c 0,22,23
 1082.06054688 70.0009765625 1082.06054688 70.0009765625 1224.26074219 70 c 0,24,25
 1328.69726562 70 1328.69726562 70 1379.70019531 105 c 0,26,27
 1471.5 168 1471.5 168 1493.09960938 249 c 1,28,-1
 1614.59960938 249 l 1,29,30
 1578.62695312 122.416015625 1578.62695312 122.416015625 1444.5 33 c 0,31,32
 1350.99023438 -29.3427734375 1350.99023438 -29.3427734375 1165.6796875 -29.3427734375 c 128,-1,33
 980.370117188 -29.3427734375 980.370117188 -29.3427734375 879.76171875 124.321289062 c 0,34,35
 866.952148438 143.885742188 866.952148438 143.885742188 856.491210938 165.059570312 c 1,36,37
 838.796875 143.971679688 838.796875 143.971679688 819.350585938 124.5 c 0,38,39
 666.044921875 -29 666.044921875 -29 456.344726562 -29 c 0,40,41
 247.544921875 -29 247.544921875 -29 147.500976562 124.5 c 0,42,43
 78.2236328125 230.790039062 78.2236328125 230.790039062 78.220703125 385.262695312 c 0,44,45
 78.220703125 453.877929688 78.220703125 453.877929688 91.8896484375 532 c 0,46,47
 136.327148438 785.999023438 136.327148438 785.999023438 289.5390625 939 c 128,-1,48
 442.754882812 1092 442.754882812 1092 652.455078125 1092 c 128,-1,49
 862.155273438 1092 862.155273438 1092 961.838867188 939 c 0,50,51
 974.27734375 919.909179688 974.27734375 919.909179688 984.473632812 899.24609375 c 1,52,53
 1001.30371094 919.348632812 1001.30371094 919.348632812 1019.71777344 938 c 0,54,55
 1171.75488281 1092 1171.75488281 1092 1387.74609375 1092 c 0,56,57
 1740.11425781 1092 1740.11425781 1092 1740.11425781 815.349609375 c 0,58,59
 1740.11425781 612.47265625 1740.11425781 612.47265625 1555.20019531 513.067382812 c 0,60,61
 1367.27148438 412.041992188 1367.27148438 412.041992188 1001.70019531 408 c 1,18,19
EndSplineSet
EndChar
StartChar: Tbar
Encoding: 358 358 358
Width: 1229
Flags: W
AnchorPoint: "above" 735.3 1465 basechar 0
AnchorPoint: "below" 478.8 0 basechar 0
LayerCount: 2
Back
Fore
SplineSet
221.400390625 0 m 1,0,-1
 239.400390625 106 l 1,1,-1
 411.299804688 106 l 1,2,-1
 519.299804688 719 l 1,3,-1
 216.900390625 719 l 1,4,-1
 238.5 844 l 1,5,-1
 540.900390625 844 l 1,6,-1
 633.599609375 1374 l 1,7,-1
 238.5 1374 l 1,8,-1
 198 1141 l 1,9,-1
 87.2998046875 1141 l 1,10,-1
 148.5 1493 l 1,11,-1
 1341.90039062 1493 l 1,12,-1
 1280.70019531 1141 l 1,13,-1
 1170 1141 l 1,14,-1
 1210.5 1374 l 1,15,-1
 815.400390625 1374 l 1,16,-1
 722.700195312 844 l 1,17,-1
 1025.09960938 844 l 1,18,-1
 1003.5 719 l 1,19,-1
 701.099609375 719 l 1,20,-1
 593.099609375 106 l 1,21,-1
 765 106 l 1,22,-1
 747 0 l 1,23,-1
 221.400390625 0 l 1,0,-1
EndSplineSet
EndChar
StartChar: tbar
Encoding: 359 359 359
Width: 740
Flags: W
AnchorPoint: "above" 431.1 1536 basechar 0
AnchorPoint: "below" 342.9 0 basechar 0
LayerCount: 2
Back
Fore
SplineSet
128.700195312 281 m 2,0,-1
 187.200195312 616 l 1,1,-1
 41.400390625 616 l 1,2,-1
 60.2998046875 723 l 1,3,-1
 206.099609375 723 l 1,4,-1
 246.599609375 956 l 1,5,-1
 100.799804688 956 l 1,6,-1
 119.700195312 1063 l 1,7,-1
 265.5 1063 l 1,8,-1
 323.099609375 1393 l 1,9,-1
 489.599609375 1393 l 1,10,-1
 432 1063 l 1,11,-1
 743.400390625 1063 l 1,12,-1
 724.5 956 l 1,13,-1
 413.099609375 956 l 1,14,-1
 372.599609375 723 l 1,15,-1
 684 723 l 1,16,-1
 665.099609375 616 l 1,17,-1
 353.700195312 616 l 1,18,-1
 295.200195312 281 l 2,19,20
 271.799804688 146 271.799804688 146 288.450195312 108 c 128,-1,21
 305.099609375 70 305.099609375 70 368.099609375 70 c 0,22,23
 432.900390625 70 432.900390625 70 470.25 112.5 c 128,-1,24
 507.599609375 155 507.599609375 155 525.599609375 250 c 1,25,-1
 650.700195312 250 l 1,26,27
 618.299804688 105 618.299804688 105 542.700195312 38 c 128,-1,28
 467.099609375 -29 467.099609375 -29 336.599609375 -29 c 0,29,30
 193.5 -29 193.5 -29 146.25 41.5 c 128,-1,31
 99 112 99 112 128.700195312 281 c 2,0,-1
EndSplineSet
EndChar
StartChar: longs
Encoding: 383 383 383
Width: 682
Flags: W
AnchorPoint: "above" 674.259 1536 basechar 0
AnchorPoint: "below" 36.0215 -430 basechar 0
LayerCount: 2
Back
Fore
SplineSet
918 1305 m 1,0,-1
 830.700195312 1305 l 1,1,2
 834.299804688 1326 834.299804688 1326 834.299804688 1345 c 0,3,4
 834.299804688 1391 834.299804688 1391 812.700195312 1419 c 0,5,6
 782.099609375 1458 782.099609375 1458 711 1458 c 0,7,8
 618.299804688 1458 618.299804688 1458 570.599609375 1401.5 c 128,-1,9
 522.900390625 1345 522.900390625 1345 497.700195312 1200 c 2,10,-1
 276.299804688 -66 l 2,11,12
 244.799804688 -244 244.799804688 -244 145.799804688 -335 c 128,-1,13
 46.7998046875 -426 46.7998046875 -426 -114.299804688 -426 c 1,14,-1
 -103.5 -328 l 1,15,16
 -9 -328 -9 -328 36.900390625 -272 c 0,17,18
 84.599609375 -212 84.599609375 -212 110.700195312 -66 c 2,19,-1
 288.900390625 956 l 25,20,-1
 130.5 956 l 1,21,-1
 149.400390625 1063 l 1,22,-1
 307.799804688 1063 l 1,23,-1
 331.200195312 1196 l 2,24,25
 362.700195312 1374 362.700195312 1374 461.700195312 1465 c 128,-1,26
 560.700195312 1556 560.700195312 1556 721.799804688 1556 c 0,27,28
 782.099609375 1556 782.099609375 1556 840.150390625 1544 c 128,-1,29
 898.200195312 1532 898.200195312 1532 954 1507 c 1,30,-1
 918 1305 l 1,0,-1
EndSplineSet
EndChar
StartChar: uni0180
Encoding: 384 384 384
Width: 1179
Flags: W
LayerCount: 2
Back
Fore
SplineSet
332.49609375 1450 m 1,0,-1
 174.095703125 1450 l 1,1,-1
 192.64453125 1556 l 1,2,-1
 516.64453125 1556 l 1,3,-1
 477.458984375 1332 l 1,4,-1
 761.859375 1332 l 1,5,-1
 740.510742188 1210 l 1,6,-1
 456.111328125 1210 l 9,7,-1
 401.35546875 897 l 17,8,9
 467.451171875 997 467.451171875 997 550.908203125 1044.5 c 128,-1,10
 634.365234375 1092 634.365234375 1092 745.065429688 1092 c 0,11,12
 921.46484375 1092 921.46484375 1092 1005.94824219 937 c 0,13,14
 1061.62207031 834.870117188 1061.62207031 834.870117188 1061.62207031 691.5 c 0,15,16
 1061.62207031 617.280273438 1061.62207031 617.280273438 1046.70019531 532 c 0,17,18
 1002.96875 282 1002.96875 282 864.162109375 126.5 c 128,-1,19
 725.35546875 -29 725.35546875 -29 548.955078125 -29 c 0,20,21
 438.254882812 -29 438.254882812 -29 371.420898438 18.5 c 128,-1,22
 304.578125 66 304.578125 66 273.473632812 166 c 1,23,-1
 244.430664062 0 l 1,24,-1
 78.8310546875 0 l 1,25,-1
 290.510742188 1210 l 1,26,-1
 132.111328125 1210 l 1,27,-1
 153.458984375 1332 l 1,28,-1
 311.859375 1332 l 1,29,-1
 332.49609375 1450 l 1,0,-1
328.23046875 479 m 2,30,31
 314.49609375 400.5 314.49609375 400.5 314.49609375 337.299804688 c 0,32,33
 314.49609375 245.91015625 314.49609375 245.91015625 343.206054688 186.5 c 0,34,35
 391.779296875 86 391.779296875 86 517.779296875 86 c 0,36,37
 644.678710938 86 644.678710938 86 729.693359375 199 c 128,-1,38
 814.715820312 312 814.715820312 312 853.200195312 532 c 0,39,40
 870.9296875 633.33984375 870.9296875 633.33984375 870.9296875 711.75 c 0,41,42
 870.9296875 804.360351562 870.9296875 804.360351562 846.20703125 865 c 0,43,44
 800.549804688 977 800.549804688 977 673.650390625 977 c 0,45,46
 547.650390625 977 547.650390625 977 463.833007812 876 c 128,-1,47
 380.015625 775 380.015625 775 346.598632812 584 c 2,48,-1
 328.23046875 479 l 2,30,31
EndSplineSet
EndChar
StartChar: uni0181
Encoding: 385 385 385
Width: 1354
Flags: W
LayerCount: 2
Back
Fore
SplineSet
384.299804688 1386 m 17,0,1
 180 1386 180 1386 103.5 1297 c 0,2,3
 23.400390625 1206 23.400390625 1206 -9 1020 c 1,4,-1
 -125.099609375 1020 l 1,5,-1
 -64.7998046875 1364 l 1,6,7
 40.5 1440 40.5 1440 208.799804688 1476 c 0,8,9
 315 1493 315 1493 403.200195312 1493 c 2,10,-1
 895.59375 1493 l 0,11,12
 1097.19042969 1493 1097.19042969 1493 1185.32714844 1400 c 0,13,14
 1272.72558594 1308 1272.72558594 1308 1240.54199219 1124 c 0,15,16
 1217.27734375 991 1217.27734375 991 1132.35253906 912 c 0,17,18
 1046.52929688 833 1046.52929688 833 905.688476562 815 c 1,19,20
 1074.28515625 791 1074.28515625 791 1144.61132812 694 c 0,21,22
 1215.67480469 596 1215.67480469 596 1186.98339844 432 c 0,23,24
 1148.13867188 210 1148.13867188 210 1003.76953125 105 c 128,-1,25
 859.40625 0 859.40625 0 592.106445312 0 c 2,26,-1
 -28.89453125 0 l 1,27,-1
 -10.3505859375 106 l 1,28,-1
 160.649414062 106 l 1,29,-1
 384.299804688 1386 l 17,0,1
475.60546875 862 m 1,30,-1
 704.206054688 862 l 2,31,32
 851.805664062 862 851.805664062 862 931.23046875 925 c 0,33,34
 1009.74609375 988 1009.74609375 988 1033.54199219 1124 c 0,35,36
 1061.00976562 1281 1061.00976562 1281 1001.02539062 1324 c 0,37,38
 915.579101562 1386 915.579101562 1386 795.875976562 1386 c 2,39,-1
 567.276367188 1386 l 1,40,-1
 475.60546875 862 l 1,30,-1
343.348632812 106 m 1,41,-1
 612.44921875 106 l 2,42,43
 774.44921875 106 774.44921875 106 862.794921875 184 c 128,-1,44
 951.137695312 262 951.137695312 262 980.8828125 432 c 0,45,46
 1010.09667969 599 1010.09667969 599 949.211914062 678 c 0,47,48
 889.0625 756 889.0625 756 726.162109375 756 c 2,49,-1
 457.0625 756 l 1,50,-1
 343.348632812 106 l 1,41,-1
EndSplineSet
EndChar
StartChar: uni0183
Encoding: 387 387 387
Width: 1179
Flags: W
LayerCount: 2
Back
Fore
SplineSet
328.229492188 479 m 2,0,1
 294.640625 287 294.640625 287 343.5703125 186 c 0,2,3
 391.77734375 86 391.77734375 86 517.77734375 86 c 0,4,5
 644.676757812 86 644.676757812 86 729.245117188 199 c 0,6,7
 814.712890625 312 814.712890625 312 853.201171875 532 c 0,8,9
 891.86328125 753 891.86328125 753 845.755859375 865 c 0,10,11
 800.549804688 977 800.549804688 977 673.650390625 977 c 0,12,13
 547.650390625 977 547.650390625 977 464.28125 876 c 0,14,15
 380.01171875 775 380.01171875 775 346.59765625 584 c 2,16,-1
 328.229492188 479 l 2,0,1
1049.4453125 1556 m 1,17,-1
 1002.73535156 1289 l 1,18,-1
 908.235351562 1289 l 1,19,-1
 933.42578125 1433 l 1,20,-1
 495.124023438 1433 l 1,21,-1
 401.35546875 897 l 1,22,23
 467.44921875 997 467.44921875 997 551.270507812 1044 c 0,24,25
 634.368164062 1092 634.368164062 1092 745.068359375 1092 c 0,26,27
 921.46484375 1092 921.46484375 1092 1005.94824219 937 c 0,28,29
 1090.44042969 782 1090.44042969 782 1046.70019531 532 c 0,30,31
 1002.96875 282 1002.96875 282 864.07421875 126 c 0,32,33
 725.357421875 -29 725.357421875 -29 548.958007812 -29 c 0,34,35
 438.2578125 -29 438.2578125 -29 371.78125 18 c 0,36,37
 304.578125 66 304.578125 66 273.471679688 166 c 1,38,-1
 244.431640625 0 l 1,39,-1
 -80.46875 0 l 1,40,-1
 -61.923828125 106 l 1,41,-1
 97.3759765625 106 l 1,42,-1
 332.498046875 1450 l 1,43,-1
 173.198242188 1450 l 1,44,-1
 191.7421875 1556 l 1,45,-1
 1049.4453125 1556 l 1,17,-1
EndSplineSet
EndChar
StartChar: uni0184
Encoding: 388 388 388
Width: 1354
Flags: W
LayerCount: 2
Back
Fore
SplineSet
343.348632812 106 m 1,0,-1
 612.44921875 106 l 2,1,2
 774.44921875 106 774.44921875 106 862.794921875 184 c 128,-1,3
 951.137695312 262 951.137695312 262 980.8828125 432 c 0,4,5
 1010.44824219 601 1010.44824219 601 949.751953125 678.5 c 128,-1,6
 889.0625 756 889.0625 756 726.162109375 756 c 2,7,-1
 457.0625 756 l 1,8,-1
 343.348632812 106 l 1,0,-1
163.19140625 1098 m 1,9,-1
 585.993164062 1493 l 1,10,-1
 475.60546875 862 l 1,11,-1
 704.206054688 862 l 2,12,13
 1046.20507812 862 1046.20507812 862 1144.61132812 694 c 1,14,15
 1212.17382812 576 1212.17382812 576 1186.98339844 432 c 0,16,17
 1148.13867188 210 1148.13867188 210 1003.76953125 105 c 128,-1,18
 859.40625 0 859.40625 0 592.106445312 0 c 2,19,-1
 -28.89453125 0 l 1,20,-1
 -10.3505859375 106 l 1,21,-1
 160.649414062 106 l 1,22,-1
 315.6484375 992 l 1,23,-1
 144.6484375 992 l 1,24,-1
 163.19140625 1098 l 1,9,-1
EndSplineSet
EndChar
StartChar: uni0185
Encoding: 389 389 389
Width: 1179
Flags: W
LayerCount: 2
Back
Fore
SplineSet
328.229492188 479 m 2,0,1
 294.640625 287 294.640625 287 343.208984375 186.5 c 128,-1,2
 391.77734375 86 391.77734375 86 517.77734375 86 c 0,3,4
 644.676757812 86 644.676757812 86 729.694335938 199 c 128,-1,5
 814.712890625 312 814.712890625 312 853.201171875 532 c 0,6,7
 891.86328125 753 891.86328125 753 846.206054688 865 c 128,-1,8
 800.549804688 977 800.549804688 977 673.650390625 977 c 0,9,10
 547.650390625 977 547.650390625 977 463.831054688 876 c 128,-1,11
 380.01171875 775 380.01171875 775 346.59765625 584 c 2,12,-1
 328.229492188 479 l 2,0,1
516.642578125 1556 m 1,13,-1
 401.35546875 897 l 1,14,15
 467.44921875 997 467.44921875 997 550.909179688 1044.5 c 128,-1,16
 634.368164062 1092 634.368164062 1092 745.068359375 1092 c 0,17,18
 921.46484375 1092 921.46484375 1092 1005.94824219 937 c 128,-1,19
 1090.44042969 782 1090.44042969 782 1046.70019531 532 c 128,-1,20
 1002.96875 282 1002.96875 282 864.162109375 126.5 c 128,-1,21
 725.357421875 -29 725.357421875 -29 548.958007812 -29 c 0,22,23
 438.2578125 -29 438.2578125 -29 371.41796875 18.5 c 128,-1,24
 304.578125 66 304.578125 66 273.471679688 166 c 1,25,-1
 244.431640625 0 l 1,26,-1
 -80.46875 0 l 1,27,-1
 -61.923828125 106 l 1,28,-1
 97.3759765625 106 l 1,29,-1
 275.642578125 1125 l 1,30,-1
 116.341796875 1125 l 1,31,-1
 138.384765625 1251 l 1,32,-1
 516.642578125 1556 l 1,13,-1
EndSplineSet
EndChar
StartChar: uni0186
Encoding: 390 390 390
Width: 1410
Flags: W
AnchorPoint: "above" 785.57 1465 basechar 0
LayerCount: 2
Back
Fore
SplineSet
164.817382812 1096 m 1,0,1
 260.780273438 1305 260.780273438 1305 419.536132812 1412.5 c 128,-1,2
 578.29296875 1520 578.29296875 1520 792.493164062 1520 c 0,3,4
 923.89453125 1520 923.89453125 1520 1027.64746094 1470 c 128,-1,5
 1131.39941406 1420 1131.39941406 1420 1201.72460938 1323 c 0,6,7
 1282.93164062 1211 1282.93164062 1211 1307.06054688 1068.5 c 128,-1,8
 1331.18066406 926 1331.18066406 926 1299.69042969 746 c 0,9,10
 1238.8046875 398 1238.8046875 398 1020.5546875 184.5 c 128,-1,11
 802.306640625 -29 802.306640625 -29 506.20703125 -29 c 0,12,13
 396.407226562 -29 396.407226562 -29 277.805664062 3 c 128,-1,14
 159.204101562 35 159.204101562 35 27.474609375 100 c 1,15,-1
 87.6552734375 444 l 1,16,-1
 189.35546875 444 l 1,17,18
 189.765625 256 189.765625 256 274.545898438 167 c 128,-1,19
 359.326171875 78 359.326171875 78 540.225585938 78 c 0,20,21
 755.326171875 78 755.326171875 78 895.677734375 247.5 c 128,-1,22
 1036.03515625 417 1036.03515625 417 1093.58984375 746 c 0,23,24
 1150.96484375 1074 1150.96484375 1074 1069.91992188 1243.5 c 128,-1,25
 988.875 1413 988.875 1413 773.774414062 1413 c 0,26,27
 623.473632812 1413 623.473632812 1413 512.366210938 1333.5 c 128,-1,28
 401.258789062 1254 401.258789062 1254 330.416992188 1096 c 1,29,-1
 164.817382812 1096 l 1,0,1
EndSplineSet
EndChar
StartChar: uni0187
Encoding: 391 391 391
Width: 1410
Flags: W
AnchorPoint: "above" 862.35 1465 basechar 0
LayerCount: 2
Back
Fore
SplineSet
1228.66210938 395 m 1,0,1
 1132.6953125 186 1132.6953125 186 973.404296875 78 c 0,2,3
 815.185546875 -29 815.185546875 -29 600.985351562 -29 c 0,4,5
 469.5859375 -29 469.5859375 -29 365.83203125 21 c 0,6,7
 262.079101562 71 262.079101562 71 191.749023438 168 c 0,8,9
 110.54296875 280 110.54296875 280 86.7841796875 422 c 0,10,11
 62.30078125 565 62.30078125 565 93.791015625 745 c 0,12,13
 154.669921875 1093 154.669921875 1093 372.833007812 1306 c 0,14,15
 591.169921875 1520 591.169921875 1520 887.270507812 1520 c 0,16,17
 997.07421875 1520 997.07421875 1520 1115.67578125 1488 c 0,18,19
 1200.75292969 1465 1200.75292969 1465 1291.85058594 1425 c 1,20,21
 1307.0703125 1512 1307.0703125 1512 1390.12207031 1570 c 0,22,23
 1468.11621094 1630 1468.11621094 1630 1570.71582031 1630 c 0,24,25
 1635.515625 1630 1635.515625 1630 1692.1171875 1614 c 0,26,27
 1747.63769531 1597 1747.63769531 1597 1797.66894531 1564 c 1,28,-1
 1759.35644531 1345 l 1,29,-1
 1673.85644531 1345 l 1,30,31
 1690.65039062 1441 1690.65039062 1441 1653.52539062 1486 c 0,32,33
 1623.59960938 1531 1623.59960938 1531 1549.79980469 1531 c 0,34,35
 1467.90039062 1531 1467.90039062 1531 1418.52636719 1470 c 0,36,37
 1369.15234375 1409 1369.15234375 1409 1346.40917969 1279 c 2,38,-1
 1305.828125 1047 l 1,39,-1
 1204.12792969 1047 l 1,40,41
 1203.71386719 1235 1203.71386719 1235 1119.38378906 1324 c 0,42,43
 1034.15429688 1413 1034.15429688 1413 853.251953125 1413 c 0,44,45
 638.15234375 1413 638.15234375 1413 497.88671875 1244 c 0,46,47
 357.446289062 1074 357.446289062 1074 299.890625 745 c 0,48,49
 242.509765625 417 242.509765625 417 323.643554688 248 c 0,50,51
 404.604492188 78 404.604492188 78 619.705078125 78 c 0,52,53
 770.004882812 78 770.004882812 78 881.19921875 158 c 0,54,55
 992.22265625 237 992.22265625 237 1063.06152344 395 c 1,56,-1
 1228.66210938 395 l 1,0,1
EndSplineSet
EndChar
StartChar: uni0188
Encoding: 392 392 392
Width: 1032
Flags: W
AnchorPoint: "above" 633.562 1092 basechar 0
LayerCount: 2
Back
Fore
SplineSet
891.630859375 319 m 1,0,1
 826.790039062 149 826.790039062 149 711.3203125 60 c 0,2,3
 595.8515625 -29 595.8515625 -29 437.451171875 -29 c 0,4,5
 228.651367188 -29 228.651367188 -29 128.517578125 124 c 0,6,7
 28.55859375 278 28.55859375 278 72.994140625 532 c 0,8,9
 117.603515625 787 117.603515625 787 271.26953125 940 c 0,10,11
 424.76171875 1092 424.76171875 1092 633.561523438 1092 c 0,12,13
 724.4609375 1092 724.4609375 1092 810.262695312 1068 c 0,14,15
 852.4375 1057 852.4375 1057 894.2890625 1039 c 1,16,17
 934.78515625 1183 934.78515625 1183 1021.17578125 1255 c 0,18,19
 1084.44628906 1308 1084.44628906 1308 1196.04589844 1308 c 0,20,21
 1260.84570312 1308 1260.84570312 1308 1316.546875 1292 c 0,22,23
 1372.9765625 1275 1372.9765625 1275 1422.99902344 1242 c 1,24,-1
 1384.68554688 1023 l 1,25,-1
 1299.18554688 1023 l 1,26,27
 1315.98925781 1119 1315.98925781 1119 1279.75488281 1164 c 0,28,29
 1248.9296875 1209 1248.9296875 1209 1175.12988281 1209 c 0,30,31
 1093.23046875 1209 1093.23046875 1209 1042.95605469 1148 c 0,32,33
 994.491210938 1087 994.491210938 1087 971.748046875 957 c 2,34,-1
 931.158203125 725 l 1,35,-1
 834.857421875 725 l 1,36,37
 840.44921875 865 840.44921875 865 788.645507812 929 c 0,38,39
 735.942382812 993 735.942382812 993 618.04296875 993 c 0,40,41
 483.942382812 993 483.942382812 993 395.422851562 878 c 0,42,43
 306.73046875 762 306.73046875 762 266.493164062 532 c 0,44,45
 226.256835938 302 226.256835938 302 273.463867188 186 c 0,46,47
 321.571289062 70 321.571289062 70 456.571289062 70 c 0,48,49
 563.670898438 70 563.670898438 70 638.416992188 132 c 0,50,51
 713.163085938 194 713.163085938 194 758.430664062 319 c 1,52,-1
 891.630859375 319 l 1,0,1
EndSplineSet
EndChar
StartChar: uni018A
Encoding: 394 394 394
Width: 1477
Flags: W
AnchorPoint: "above" 794.396 1465 basechar 0
LayerCount: 2
Back
Fore
SplineSet
384.576171875 1386 m 0,0,1
 180.276367188 1386 180.276367188 1386 103.505859375 1297 c 0,2,3
 23.685546875 1206 23.685546875 1206 -8.853515625 1020 c 1,4,-1
 -124.953125 1020 l 1,5,-1
 -64.7724609375 1364 l 1,6,7
 77.4453125 1467 77.4453125 1467 208.62109375 1476 c 0,8,9
 296.193359375 1493 296.193359375 1493 403.293945312 1493 c 2,10,-1
 766.893554688 1493 l 2,11,12
 1114.29003906 1493 1114.29003906 1493 1273.32910156 1296 c 0,13,14
 1433.26757812 1099 1433.26757812 1099 1371.86132812 748 c 0,15,16
 1310.28320312 396 1310.28320312 396 1081.2421875 198 c 128,-1,17
 852.206054688 0 852.206054688 0 505.706054688 0 c 2,18,-1
 -28.89453125 0 l 1,19,-1
 -10.3505859375 106 l 1,20,-1
 160.649414062 106 l 1,21,-1
 384.576171875 1386 l 0,0,1
343.348632812 106 m 1,22,-1
 510.749023438 106 l 2,23,24
 772.649414062 106 772.649414062 106 941.193359375 272 c 0,25,26
 1110.62695312 438 1110.62695312 438 1164.86132812 748 c 128,-1,27
 1219.09472656 1058 1219.09472656 1058 1108.28710938 1222 c 128,-1,28
 997.478515625 1386 997.478515625 1386 734.676757812 1386 c 2,29,-1
 567.276367188 1386 l 1,30,-1
 343.348632812 106 l 1,22,-1
EndSplineSet
EndChar
StartChar: uni018B
Encoding: 395 395 395
Width: 1354
Flags: W
LayerCount: 2
Back
Fore
SplineSet
776.249023438 106 m 1,0,-1
 889.961914062 756 l 1,1,-1
 620.862304688 756 l 2,2,3
 457.961914062 756 457.961914062 756 369.616210938 678 c 0,4,5
 282.346679688 601 282.346679688 601 252.780273438 432 c 0,6,7
 223.040039062 262 223.040039062 262 284.094726562 184 c 128,-1,8
 345.149414062 106 345.149414062 106 507.149414062 106 c 2,9,-1
 776.249023438 106 l 1,0,-1
1372.58984375 1493 m 1,10,-1
 1353.87890625 1386 l 1,11,-1
 1182.87890625 1386 l 1,12,-1
 958.950195312 106 l 1,13,-1
 1129.95019531 106 l 1,14,-1
 1111.41015625 0 l 1,15,-1
 490.40625 0 l 2,16,17
 223.106445312 0 223.106445312 0 115.474609375 105 c 128,-1,18
 7.84375 210 7.84375 210 46.6806640625 432 c 0,19,20
 71.873046875 576 71.873046875 576 180.715820312 694 c 1,21,22
 337.90625 862 337.90625 862 679.90625 862 c 2,23,-1
 908.504882812 862 l 1,24,-1
 997.379882812 1370 l 1,25,-1
 380.875976562 1370 l 1,26,-1
 344.313476562 1161 l 1,27,-1
 233.61328125 1161 l 1,28,-1
 291.693359375 1493 l 1,29,-1
 1372.58984375 1493 l 1,10,-1
EndSplineSet
EndChar
